<svg xmlns="http://www.w3.org/2000/svg" xmlns:xlink="http://www.w3.org/1999/xlink" width="115" height="42" viewBox="0 0 115 42">
    <defs>
        <path id="qncerj3waa" d="M0 0H114.692V42H0z"/>
        <path id="911wn82xpc" d="M0 0.074L18.5 0.074 18.5 19.444 0 19.444z"/>
    </defs>
    <g fill="none" fill-rule="evenodd">
        <g>
            <g>
                <g>
                    <g>
                        <g>
                            <g>
                                <g transform="translate(-849 -870) translate(310 804) translate(0 66) translate(539)">
                                    <mask id="h5y708v2mb" fill="#fff">
                                        <use xlink:href="#qncerj3waa"/>
                                    </mask>
                                    <g mask="url(#h5y708v2mb)">
                                        <g>
                                            <path fill="#1D1D1B" d="M28.505 3.265c.372 0 .636.136.789.4.15.267.23.571.23.916v1.43c0 .734.091 1.403.272 2.008.183.601.437 1.15.759 1.643.323.495.701.936 1.138 1.315.437.383.913.727 1.422 1.026l-1.006 1.312c-.329-.142-.68-.36-1.054-.647-.37-.29-.731-.613-1.061-.976-.338-.358-.638-.734-.903-1.12-.266-.392-.463-.748-.586-1.083-.135.442-.337.88-.61 1.304-.274.43-.586.828-.936 1.201-.354.373-.73.705-1.135 1.004-.398.302-.8.548-1.199.733l-1.202-1.53c.512-.266.993-.605 1.45-1.012.463-.413.859-.878 1.201-1.402.34-.521.61-1.094.805-1.731.197-.63.298-1.304.298-2.026V4.467l-.007.04c0-.837-.59-.837-.59-.837v-.44h1.387l.538.035zM43.045 3.265c.37 0 .632.136.788.4.154.267.23.571.23.916v1.43c0 .734.091 1.403.272 2.008.183.601.437 1.15.757 1.643.325.495.703.936 1.14 1.315.436.383.912.727 1.422 1.026l-1.009 1.312c-.326-.142-.678-.36-1.05-.647-.372-.29-.729-.613-1.066-.976-.334-.358-.634-.734-.898-1.12-.267-.392-.464-.748-.586-1.083-.135.442-.34.88-.616 1.304-.272.43-.581.828-.934 1.201-.346.373-.728.705-1.131 1.004-.398.302-.797.548-1.199.733l-1.203-1.53c.513-.266.992-.605 1.452-1.012.461-.413.857-.878 1.2-1.402.337-.521.61-1.094.804-1.731.197-.63.299-1.304.299-2.026V4.467l-.007.04c0-.837-.59-.837-.59-.837v-.44h1.385l.54.035zM35.028 2.423c.88 0 1.318.358 1.318 1.07V17.77h-2.555l-.008-14.04c0-.854-.668-.854-.668-.854v-.452h1.913zM49.501 2.423c.838 0 1.257.358 1.257 1.07v4.32h2.55v1.633h-2.55v8.323h-2.44l-.023-14.04c0-.854-.641-.854-.641-.854v-.452H49.5zM56.463 9.307c0 .534.063 1.002.194 1.408.126.405.307.744.535 1.018.23.272.502.48.812.625.31.146.64.218.994.218.706 0 1.29-.277 1.758-.834.464-.557.702-1.37.702-2.435 0-1.09-.238-1.915-.702-2.47C60.288 6.278 59.704 6 58.998 6c-.354 0-.683.07-.994.209-.31.139-.582.348-.812.627-.228.277-.409.623-.535 1.034-.13.413-.194.89-.194 1.436m-2.348 0c0-.726.107-1.41.328-2.054.218-.64.536-1.202.953-1.68.42-.477.932-.853 1.532-1.125.603-.274 1.29-.41 2.07-.41.763 0 1.442.136 2.04.41.595.272 1.097.648 1.512 1.126.413.477.729 1.04.938 1.68.213.642.32 1.327.32 2.053 0 .727-.107 1.408-.32 2.044-.21.634-.525 1.19-.938 1.663-.415.47-.917.843-1.513 1.117-.597.27-1.276.407-2.04.407-.78 0-1.466-.136-2.07-.407-.599-.274-1.11-.647-1.531-1.117-.417-.474-.735-1.029-.953-1.663-.221-.636-.328-1.317-.328-2.044M70.182 6.82h5.255c.099-.252.18-.513.242-.783.06-.268.121-.55.18-.845.028-.17.015-.286-.033-.349-.049-.062-.167-.094-.356-.094h-5.435V3.231h7.087c.442 0 .763.09.962.268.193.179.28.479.259.902-.137 2.046-.821 3.85-2.056 5.416-1.234 1.565-3.131 2.87-5.697 3.914l-1.128-1.582c1.267-.558 2.324-1.143 3.164-1.755.837-.61 1.515-1.296 2.033-2.055h-4.477V6.82zM65.654 2.423c.84 0 1.257.358 1.257 1.07v4.32h2.55v1.633h-2.55v8.323h-2.44L64.45 3.73c0-.854-.641-.854-.641-.854v-.452h1.846zM81.805 2.423c.84 0 1.257.358 1.257 1.07v4.32h2.553v1.633h-2.553v8.323h-2.438l-.022-14.04c0-.854-.64-.854-.64-.854v-.452h1.843zM113.374 2.423c.88 0 1.318.358 1.318 1.07V17.77h-2.554l-.008-14.04c0-.854-.668-.854-.668-.854v-.452H113.374zM95.054 2.423c.709 0 1.061.348 1.061 1.04v13.499h-2.087v-7.85h-3.566V7.505h3.566l-.022-3.794c0-.841-.603-.841-.603-.841v-.446h1.651zM98.802 2.423c.903 0 1.352.387 1.352 1.158v14.188h-2.502l-.03-14.04c0-.854-.699-.854-.699-.854v-.452h1.879z" transform="translate(0 10.5)"/>
                                            <path fill="#1D1D1B" d="M91.744 4.038v1.76h-4.557v6.432c0 .22.047.365.138.44.096.072.251.11.472.11h4.28v1.758h-5.669c-.482 0-.88-.147-1.195-.44-.314-.292-.472-.75-.472-1.374l-.099-7.279c0-.92-.642-.92-.642-.92v-.487h7.744zM107.547 11.996h-3.03c-.204 0-.353-.036-.442-.11-.088-.071-.128-.217-.128-.433V4.966h3.166c.289 0 .434.122.434.362v6.668zm1.907-8.294c-.266-.313-.656-.471-1.178-.471H100.961v.48s.604 0 .604.909l.082 7.322c0 .615.147 1.065.443 1.355.296.289.669.434 1.123.434h6.633V4.805c0-.422-.136-.79-.392-1.103z" transform="translate(0 10.5)"/>
                                            <path fill="#FEFEFE" d="M18.577 17.924c0 .802-.668 1.46-1.485 1.46H1.482c-.814 0-1.482-.658-1.482-1.46V2.27C0 1.467.668.808 1.482.808h15.61c.817 0 1.485.659 1.485 1.462v15.654z" transform="translate(0 10.5)"/>
                                            <path fill="#1D1D1B" d="M12.122 8.066s-.011 0-.013.002c.013.046.013-.002.013-.002M12.928 8.065s-.007.002-.01.005c.01.045.01-.005.01-.005" transform="translate(0 10.5)"/>
                                            <g transform="translate(0 10.5)">
                                                <mask id="0s5o7i5qld" fill="#fff">
                                                    <use xlink:href="#911wn82xpc"/>
                                                </mask>
                                                <path fill="#1D1D1B" d="M18.25 17.697c0 .813-.647 1.481-1.439 1.481H1.69c-.789 0-1.436-.668-1.436-1.481V1.82C.254 1.006.901.337 1.69.337H16.81c.792 0 1.44.669 1.44 1.484v15.876zM16.811.074H1.688C.756.074 0 .86 0 1.82v15.872c0 .965.757 1.745 1.69 1.75H16.81c.934-.005 1.69-.785 1.69-1.75V1.821c0-.96-.756-1.747-1.69-1.747z" mask="url(#0s5o7i5qld)"/>
                                            </g>
                                            <path fill="#1D1D1B" d="M6.598 9.738c.025-.093.137-.2.215-.2.233.015.516.092.625.308.152.345-.24.817-.5.83-.34.016-.456-.592-.34-.938m.756-2.385l.29-.038c.302.025.767.093 1.112.234.106.035.228.067.37.067.172.01.312-.007.432-.045.65-.231 1.335-.321 1.962-.336.095.023.218 0 .26.17.043.18.02.038.03.41.013.643-.195 1.673.32 2.07.006 0 .207.1.242.384.003.233-.098.732-.181 1.064-.12.399-.113.484-.45.957-.197.28-.317.534-1.029.958-.33.175-.752.295-1.213.277-.41-.017-.522-.077-.672-.27-.123-.491.494-.253.563-.644.068-.353-.225-.398-.628-.495l-.186-.064s-.08-.039-.1-.127c0-.017 0-.09.04-.125.057-.038.145-.025.145-.025l.49.025c.601.044.706-.078.882-.12.5-.083.433.037.714-.104.146-.087.156-.463.081-.633-.101-.23-.497-.368-.643-.178-.195.263.426.464.214.578-.228.13-.597-.049-.802-.12-.33-.142-1.062.126-1.04-.445.042-.777.776-1.646.179-2.431-.26-.308-.855-.158-1.186-.167-.318-.005-.438-.234-.448-.438-.023-.218.137-.327.252-.389m3.178-1.927c.654-.054.586.66.62 1.017.052.409-.21.376-.512.436-.309.056-.422-.009-.469-.468-.048-.348-.154-.944.361-.985M12.41 8.83c.007-.112.085-.148.195-.135.075.002.198.067.225.135.166.261-.032.657-.032.657s-.05.097-.102.097c-.016 0-.023-.008-.04-.032.017-.228.092-.404-.177-.552-.045-.03-.085-.095-.069-.17m-.367 5.484s.462.088.589.258c0 0-.039.197-.716.345 0 0-.928.188-1.199.26 0 0-.4-.11.131-.41.425-.233.185-.103.757-.418 0 0 .202-.173.438-.035M5.456 7.183c.008.105.216.009.216.147.036 1.087.081 1.716.081 1.716s.024.627.266 1.686c.122.552.287 1.043.488 1.481.208.466.856 1.109.865 1.342.015.18.041.267-.009.467-.16.217-.996.401-2.042.917 1.565.54 1.96.604 4.017 2.023.764-.442 1.28-.603 1.802-.886 1.598-.849 3.31-1.175 3.31-1.175l-2.163-.91s-.312-.08-.382-.37l-.037-.173c.017-.077.037-.155.053-.22.064-.194.105-.234.193-.44.102-.204.215-.354.323-.633.205-.485.604-1.082.714-2.537.054-.657.016-2.265.026-2.308.095-.022.15-.045.178-.045-.015-.06-.031-.265-.113-.866-.013-.058-.045-.253-.065-.288l1.116-.346-.006 2.212c-.251.027-.37.15-.37.29v.03c.007.156.134.226.125.447-.056.92-.013 2.78-.105 3.71-.02.203.155.325.421.335l.078.017c.278-.007.514-.072.496-.292-.091-.938-.16-2.82-.2-3.823-.018-.178.134-.178.134-.424 0-.035.02-.228-.363-.303L14.5 5.727l.026-.008 2.436-.836-8.294-2.46L2.423 5.1l3.142.964c-.123.636-.123 1.015-.11 1.12" transform="translate(0 10.5)"/>
                                            <path fill="#1D1D1B" d="M15.349 3.325c.383 0 .704.314.704.717 0 .392-.32.706-.704.706-.403 0-.722-.314-.722-.706 0-.403.32-.717.722-.717m0 1.521c.44 0 .805-.361.805-.804 0-.443-.364-.811-.805-.811-.45 0-.81.368-.81.811 0 .443.36.804.81.804M9.315 10.383c.056-.008.109-.048.127-.105-.09-.63 1.067-.396 1.058-.979-.003-.197-.462-.144-.652-.176-.252-.043-.545-.137-.726-.12-.104 0-.202.065-.216.152-.02.467-.123 1.181.41 1.228" transform="translate(0 10.5)"/>
                                            <path fill="#1D1D1B" d="M15.53 3.36h.32c.046 0 .102.026.132.038.046.033.062.078.062.143 0 .045-.016.085-.05.122-.032.031-.074.042-.144.042h-.32V3.36zm0 .474h.298c.076 0 .14.02.174.064.034.04.042.105.042.19 0 .033.004.06.004.084.008.022.02.045.024.059h.212c-.022-.014-.04-.05-.048-.101-.018-.042-.018-.082-.018-.152 0-.06-.014-.111-.056-.158-.032-.025-.064-.047-.102-.058.038-.012.066-.028.102-.057.05-.056.076-.114.076-.192 0-.085-.026-.153-.084-.21-.07-.053-.172-.072-.282-.072h-.526v1h.184v-.397z" transform="translate(0 10.5)"/>
                                        </g>
                                    </g>
                                </g>
                            </g>
                        </g>
                    </g>
                </g>
            </g>
        </g>
    </g>
</svg>
