<svg xmlns="http://www.w3.org/2000/svg" xmlns:xlink="http://www.w3.org/1999/xlink" width="47" height="42" viewBox="0 0 47 42">
    <defs>
        <path id="nprhxy81sa" d="M0 0H47V42H0z"/>
    </defs>
    <g fill="none" fill-rule="evenodd">
        <g>
            <g>
                <g transform="translate(-453.000000, -804.000000) translate(310.000000, 804.000000) translate(143.000000, 0.000000)">
                    <mask id="43m7e2b4lb" fill="#fff">
                        <use xlink:href="#nprhxy81sa"/>
                    </mask>
                    <g mask="url(#43m7e2b4lb)">
                        <g>
                            <path d="M0 0H48.621V18.577H0z" transform="translate(-0.810345, 12.115385)"/>
                            <path fill="#06C755" d="M17.169 1.161h-2.394c-.367 0-.665.295-.665.658v14.735c0 .363.298.658.665.658h2.394c.367 0 .664-.295.664-.658V1.82c0-.363-.297-.658-.664-.658M31.25 1.161c-.366 0-.664.295-.664.658v8.754l-6.815-9.12c-.015-.023-.033-.045-.051-.066l-.004-.004-.04-.04-.012-.012-.036-.03-.017-.012c-.011-.009-.023-.016-.035-.024-.006-.005-.013-.008-.02-.012l-.035-.02-.021-.01-.039-.016-.02-.007c-.014-.006-.027-.01-.04-.013l-.024-.006c-.013-.004-.025-.006-.038-.008l-.028-.004c-.011-.003-.023-.003-.035-.005l-.034-.002h-2.417c-.367 0-.664.294-.664.657v14.735c0 .363.297.658.664.658h2.393c.368 0 .666-.295.666-.658v-8.75l6.822 9.13c.047.065.105.12.168.162.003.002.006.003.007.006l.042.024c.006.003.011.007.019.01l.032.016.032.013.02.008.044.015.01.002c.054.014.111.022.17.022h2.394c.368 0 .665-.295.665-.658V1.82c0-.363-.297-.658-.665-.658h-2.393zM11.399 13.522H4.894V1.819c0-.363-.297-.658-.664-.658H1.836c-.366 0-.664.295-.664.658v14.736c0 .176.07.336.185.454l.01.01.01.01c.119.113.28.183.458.183H11.4c.366 0 .664-.295.664-.659v-2.372c0-.363-.298-.66-.664-.66M46.862 4.851c.367 0 .664-.295.664-.659V1.821c0-.365-.297-.66-.664-.66H37.3c-.18 0-.341.071-.46.186l-.008.007-.01.011c-.115.118-.186.278-.186.454v14.735c0 .178.072.337.187.455.002.004.005.008.009.01.003.003.007.007.01.008.118.115.28.185.458.185h9.563c.367 0 .664-.295.664-.66v-2.37c0-.365-.297-.66-.664-.66H40.36V11.03h6.503c.367 0 .664-.294.664-.659V8.001c0-.364-.297-.66-.664-.66H40.36v-2.49h6.503z" transform="translate(-0.810345, 12.115385)"/>
                        </g>
                    </g>
                </g>
            </g>
        </g>
    </g>
</svg>
