<svg xmlns="http://www.w3.org/2000/svg" xmlns:xlink="http://www.w3.org/1999/xlink" width="54" height="42" viewBox="0 0 54 42">
    <defs>
        <path id="ybilh5pz4a" d="M0 0L53.308 0 53.308 42 0 42z"/>
    </defs>
    <g fill="none" fill-rule="evenodd">
        <g>
            <g>
                <g>
                    <g>
                        <g>
                            <g transform="translate(-310 -870) translate(310 804) translate(0 66)">
                                <mask id="3bxpntnjjb" fill="#fff">
                                    <use xlink:href="#ybilh5pz4a"/>
                                </mask>
                                <path fill="#3B4751" d="M14.066 12.924H4.138C1.567 12.924 0 14.117 0 16.577V28.27h4.392V17.16H6.91v11.11h4.383V17.16h2.52v11.11h4.39V16.577c0-2.46-1.567-3.653-4.137-3.653zM42.949 24.11v-6.98h10.345v-4.206H42.462c-2.654 0-4.056 1.413-4.056 3.625v8.158c0 2.012 1.168 3.563 4.132 3.563h10.817v-4.16H42.949zM31.523 20.08v4.007h-6.507v-6.938h6.507v2.917c2.266.001 4.738-.92 4.738-3.462 0-2.486-1.916-3.635-4.972-3.679H20.554V28.27H31.38c3.064 0 5.8-1.121 5.8-4.088 0-2.93-2.414-4.103-5.657-4.103z" mask="url(#3bxpntnjjb)"/>
                            </g>
                        </g>
                    </g>
                </g>
            </g>
        </g>
    </g>
</svg>
