<svg xmlns="http://www.w3.org/2000/svg" xmlns:xlink="http://www.w3.org/1999/xlink" width="114" height="42" viewBox="0 0 114 42">
    <defs>
        <path id="9fhum2q1ya" d="M0 0H113.077V42H0z"/>
        <path id="u2bu0eo74c" d="M0 0.271L21.871 0.271 21.871 23.31 0 23.31z"/>
        <path id="tsfuoigy3e" d="M0.089 0.263L5.625 0.263 5.625 8.118 0.089 8.118z"/>
        <path id="x0gz4amb9g" d="M0 23.337L112.612 23.337 112.612 0.299 0 0.299z"/>
    </defs>
    <g fill="none" fill-rule="evenodd">
        <g>
            <g>
                <g>
                    <g>
                        <g>
                            <g transform="translate(-702 -804) translate(310 804) translate(392)">
                                <mask id="4wjb8ljceb" fill="#fff">
                                    <use xlink:href="#9fhum2q1ya"/>
                                </mask>
                                <g mask="url(#4wjb8ljceb)">
                                    <g transform="translate(0 8.885)">
                                        <path fill="#F18A00" d="M2.85 15.305c-.154-.096-.267-.016-.309.031-.037.038-.092.158 0 .3.593.933 1.594 3.687-.839 7.698h3.994c.585-2.681.268-6.12-2.846-8.03M11.576 16.716c-.23-.05-.398.15-.207.337 0 0 1.877 1.654 1.503 6.282h3.467s-.082-5.568-4.763-6.619"/>
                                        <g transform="translate(0 .027)">
                                            <mask id="bvcg6vv8od" fill="#fff">
                                                <use xlink:href="#u2bu0eo74c"/>
                                            </mask>
                                            <path fill="#F18A00" d="M18.072 10.513c-.146-.137-3.288-3.216-3.401-3.336-.116-.117-.793-.86-.116-1.566.488-.51 1.15-.222 1.415.017.258.24 3.025 2.765 3.025 2.765.193-1.63.896-2.01.896-2.01s.398-.286.668.095c.215.305-.128.734-.128.734.218.06.263.283.231.486-.02.12-.076.232-.165.318-.062.062-.113.087-.113.087.093-.008.154.04.192.104.038.07.052.165.052.247-.004.185-.07.38-.199.517-.202.22-.494.333-.494.333.033.644-.153.966-.424 1.186-.658.567-1.315.143-1.439.023zM15.24.919c.245 0 .448.198.448.445 0 .248-.203.448-.448.448-.246 0-.448-.2-.448-.448 0-.247.202-.445.448-.445zm-5.128 14.414l-.001-.004c-.023.018-.05.025-.077.025-.076 0-.137-.06-.137-.136V8.415c0-.883-.59-.958-.867-.958H4.25c-.351 0-.512-.153-.587-.294-.022-.041-.042-.093-.017-.154.023-.064.068-.089.113-.106l4.867-1.62c.055-.02.124-.04.198-.062.022-.007.06-.027.1 0 .052.028.048.052.055.08.044.177.13.465.25.684.603 1.09 1.815 1.145 1.815 1.145l.004 6.53c0 1.026-.593 1.436-.936 1.673zM4.398 9.656h3.49V8.76h-3.49v.897zm0 2.2h3.49v-.897h-3.49v.897zm16.795-2.12s1.116-.607.375-1.677c0 0 .65-.605.047-1.304 0 0 .415-.743-.186-1.257 0 0 .851-1.364-.141-1.924-.295-.165-.577-.168-.815-.11-.143.04-.28.103-.41.18-.258.163-.433.368-.6.625-.202.298-.507.815-.97 1.695l-1.758-1.581c-.124-.114.025-.324.094-.429.12-.182.291-.315.476-.43.196-.122.411-.215.63-.282.161-.052.538-.122.534-.35-.003-.149-.174-.2-.29-.217-.094-.013-.193-.023-.29-.027-.068-.003-.173.014-.217-.058-.028-.04-.035-.101-.024-.149.013-.066.099-.093.158-.108 0 0 .633-.15.598-.3 0 0 0-.093-.464-1.028 0 0-.094-.176-.488.154-.065.055-.113.12-.198.137-.192.037-.353-.158-.48-.275-.165-.154-.334-.294-.532-.4-.27-.144-.568-.22-.872-.233-.05-.004-.1-.004-.15-.004-.249.004-.529.045-.762.137-.095.038-.208.04-.294-.02-.076-.048-.14-.117-.223-.157-.1-.049-.207-.073-.32-.073-.396 0-.714.318-.714.715 0 .028.003.052.004.076l.006.042c.017.1.055.195.11.277.01.018.023.035.035.049.021.026.047.054.047.095 0 .03-.01.055-.032.076-.25.257-.752.745-1.215 2.158 0 0-2.178-1.761-4.094-1.08-.125.044-.249.099-.367.164 0 0 .95.563 1.297 1.128.026.04.02.074.005.097-.012.026-.03.05-.095.063l-.002-.002-3.982.625c-.033.011-.059 0-.07-.023-.01-.027.007-.049.019-.058L8.07 1.73s.134-.113.24-.28c.065-.09.104-.197.104-.313 0-.264-.197-.484-.454-.517-.027-.007-.056-.01-.085-.014-.195-.025-.373-.02-.373-.02H4.388s-.068.002-.148.02c-.099.024-.175.117-.175.222 0 .082.055.154.127.22.158.147.288.212.297.444.005.243-.125.47-.24.675l-1.52 2.656c-.023.038-.058.112-.13.171-.075.061-.152.071-.26.089l-2.115.292c-.163.02-.224.122-.224.24 0 .102.06.187.152.222.098.034.177.065.31.112 0 0 .373 1.114.432 1.272.058.153.31.533.966.318.246-.083.591-.02.591.445v6.183c0 .014.001.048.02.08.02.027.057.048.09.054.275.05 1.026.221 1.729.64.03.015.047.024.074.007.026-.013.024-.04.024-.06v-1.732h3.455l-.006.888s0 .883-.936.883H4.885c-.088 0-.153.06-.16.128-.013.109.056.164.167.233 0 0 4.091 2.374 3.02 8.018l3.426.003s.276-3.565-2.355-5.647c-.081-.063-.108-.115-.111-.148-.003-.073.075-.092.127-.102l.075-.022c.585-.16 3.281-1.065 3.313-4.07l.016-5.66c.031-1.135.15-1.344.374-1.344.143 0 .235.229.325.568.173.658.428 1.227.916 1.708.324.32.646.638.971.954 0 0 1.73 1.696 1.855 1.834.252.276 1.288 1.958-1.334 3.477-.143.081-.313.122-.387.283-.092.198.127.394.247.522.35.376.61.78.852 1.224.747 1.366 1.806 3.995 1.293 6.42h3.98s.366-5.546-4.656-7.47c-.074-.028-.134-.09-.104-.175.03-.083.117-.12.187-.167.4-.27 1.876-1.402 1.594-3.094 0 0 2.628.081 2.677-2.666z" mask="url(#bvcg6vv8od)"/>
                                        </g>
                                        <path fill="#53575A" d="M65.976 16.957c0 .759-1.303 1.31-5.972 1.31-4.668 0-5.973-.551-5.973-1.31s1.305-1.314 5.973-1.314c4.669 0 5.972.555 5.972 1.314zm4.044-3.866v-1.414H49.988v1.414h8.458v1.128c-6.23.155-8.029 1.259-8.029 2.738 0 1.595 2.091 2.756 9.587 2.756 7.496 0 9.586-1.161 9.586-2.756 0-1.48-1.799-2.583-8.031-2.738v-1.128h8.46zM60.004 7.258c4.2 0 5.37.445 5.37 1.058 0 .612-1.17 1.058-5.37 1.058s-5.374-.446-5.374-1.058c0-.613 1.173-1.058 5.374-1.058zm0 3.45c6.964 0 8.905-1.008 8.905-2.392 0-1.387-1.941-2.394-8.905-2.394-6.965 0-8.905 1.007-8.905 2.394 0 1.384 1.94 2.391 8.905 2.391z"/>
                                        <g transform="translate(106.987 6.004)">
                                            <mask id="9eiidbi95f" fill="#fff">
                                                <use xlink:href="#tsfuoigy3e"/>
                                            </mask>
                                            <path fill="#53575A" d="M0.092 0.263L0.089 8.118 2.982 8.118 2.982 6.166 5.625 6.166 5.625 4.562 2.982 4.562 2.982 3.21 5.625 3.21 5.625 1.699 2.982 1.699 2.986 0.263z" mask="url(#9eiidbi95f)"/>
                                        </g>
                                        <path fill="#53575A" d="M92.61 14.719v1.575h13.46s1.1-.034 1.133 1.13c.031 1.164 0 1.92 0 1.92h2.956V16.89s.073-2.171-2.348-2.171h-15.2zM95.3 9.855c0-1.353 1.574-2.446 3.514-2.446 1.94 0 3.511 1.093 3.511 2.446 0 1.349-1.572 2.446-3.511 2.446-1.94 0-3.515-1.097-3.515-2.446m-3.131-.062c-.123 2.258 2.642 3.993 6.637 3.993 3.961 0 6.465-1.68 6.541-3.89.093-2.685-2.929-4.006-6.535-4.006-3.613 0-6.485 1.07-6.643 3.903M79.082 10.629L79.082 12.139 82.821 12.139 82.821 19.342 85.696 19.342 85.696 6.32 82.821 6.32 82.834 10.629z"/>
                                        <mask id="agajexboih" fill="#fff">
                                            <use xlink:href="#x0gz4amb9g"/>
                                        </mask>
                                        <path fill="#53575A" d="M87.246 19.342L90.066 19.342 90.066 6.32 87.246 6.32zM81.248 7.734V6.32h-9.844v1.414h3.588c0 1.778-.793 6.159-4.12 8.746-.186.143-.285.497-.07.774.29.332.714.116.812.078.352-.14 2.22-.89 4.416-4.03 0 0 .125-.345.751.094 0 0 1.73.975 1.417 5.947h2.832s.19-6.197-4.214-7.519c0 0 .784-2.107.907-4.09h3.525zM28.464 6.3v7.997s-.058 2.833 6.492 2.96c0 0 4.154-.068 5.669-.7v2.78h2.87V12.15h1.512v7.186H47.8V6.3h-2.792v4.467h-1.512V6.299h-2.87v7.303s0 2.521-4.978 2.08c0 0-3.274-.062-4.345-1.511V7.874h7.872V6.299h-10.71z" mask="url(#agajexboih)"/>
                                    </g>
                                </g>
                            </g>
                        </g>
                    </g>
                </g>
            </g>
        </g>
    </g>
</svg>
