<svg xmlns="http://www.w3.org/2000/svg" xmlns:xlink="http://www.w3.org/1999/xlink" width="159" height="42" viewBox="0 0 159 42">
    <defs>
        <path id="7mp7wehv9a" d="M0 0H158.308V42H0z"/>
    </defs>
    <g fill="none" fill-rule="evenodd">
        <g>
            <g>
                <g>
                    <g>
                        <g>
                            <g transform="translate(-878 -804) translate(310 804) translate(568)">
                                <mask id="3ldjzr7lvb" fill="#fff">
                                    <use xlink:href="#7mp7wehv9a"/>
                                </mask>
                                <g mask="url(#3ldjzr7lvb)">
                                    <g>
                                        <path fill="#54565A" d="M98.03 6.895h2.96c.729-.16.782-2.018.782-2.018-.233-3.968-5.197-4.07-5.197-4.07-5.38.128-5.303 4.12-5.303 4.12s-.26 3.36 4.004 4.019h7.433v.816H92.57v2.67s.248 1.273 1.405 1.299h11.82v-1.272H95.618v-1.155h10.19V1.418h-3.099v6.054h-6.161s-2.437-.042-2.399-2.621c0 0-.01-2.239 2.382-2.239 0 0 2.174-.077 2.406 2.239 0 0 0 1.502-.907 2.044M107.653 4.798c0 1.487 1.404 1.54 1.404 1.54h7.517V7.57h-9.959v1.54h2.734c-.902.847-.77 2.207-.77 2.207.613 4.18 6.241 4.028 6.241 4.028 2.97 0 4.647-1.256 4.647-1.256 3-2.233 1.433-4.394 1.433-4.394h-3.4c.851.723.799 1.57.799 1.57.078 2.277-3.136 2.437-3.136 2.437-3.531 0-3.399-2.54-3.399-2.54 0-1.539 1.647-1.977 1.647-1.977h8.55v-1.59h-2.23V5.39c0-.695-.635-.618-.635-.618h-8.234V3.105h10.782v-1.49H107.65l.004 3.183zM129.96.886c.277 2.745-1.302 5.259-1.302 5.259 2.476.993 3.528 3.451 3.528 3.451V2.533h-1.762V.808h3.963c.55 0 .496.522.496.522v12.4h-2.596v-2.903h-2.304c-1.276-3.166-2.525-3.061-2.525-3.061-1.9 2.042-3.852 2.46-3.852 2.46V8.42c3.827-2.224 3.7-5.835 3.7-5.835h-3.73V.886h6.383zM136.5 13.731L139.731 13.731 139.731.808 136.5.808z" transform="translate(0 13.73)"/>
                                        <path fill="#54565A" d="M151.848 11.375v3.163h3.229V9.65H144.93s-2.478-.224-2.478-3.572c0 0 0-3.188 2.722-3.188 0 0 2.826-.054 2.798 3.188 0 0 .056 2.346-1.32 3.039h3.096s1.268-1.248.997-3.593c0 0-.372-4.556-5.571-4.716 0 0-5.063 0-5.44 5.058 0 0-.132 2.401 1.346 3.823 0 0 1.052 1.291 3.284 1.696l7.484-.01z" transform="translate(0 13.73)"/>
                                        <path fill="#54565A" d="M151.847 8.885V1.597s-.062-.79.67-.79h4.983v1.765h-2.36v1.555h2.36v1.842h-2.333v2.906l-3.32.01zM62.256.808L62.256 7.094 57.261.808 55.716.808 51.774.808 51.692.808 51.692 13.731 55.716 13.731 55.716 5.767 62.05 13.731 62.256 13.731 65.865 13.731 66.231 13.731 66.231.808zM0 13.731L4.846 13.731 4.846.808 0 .808zM27.31.812h-4.975V.808H17.77v12.914h4.566V4.018h2.575s3.328-.096 3.328 3.246c0 3.345-3.004 3.39-3.004 3.39h-2.34v3.077h4.325c5.838 0 5.896-6.495 5.896-6.495 0-5.768-5.806-6.424-5.806-6.424M11.673.808L7.269.808 7.269 10.568 7.269 13.731 11.673 13.731 16.962 13.731 16.962 10.568 11.673 10.568zM33.923 7.663c0 7.038 8.537 6.867 8.537 6.867s8.425.54 8.425-7.178S42.54.002 42.54.002c-1.843 0-8.617.625-8.617 7.66m4.704-.41c0-2.194 1.69-3.972 3.778-3.972 2.087 0 3.778 1.778 3.778 3.972s-1.691 3.972-3.778 3.972c-2.088 0-3.778-1.778-3.778-3.972M80.31 5.267h4.498v-.639S84.47 0 77.14 0c-7.328 0-8.486 4.51-8.486 7.396 0 2.88 1.328 7.13 8.118 7.13 0 0 3.341.291 7.216-1.892V6.287h-7.3v2.794h2.973v1.659s-.06.739-2.069.739c-2.008 0-4.13-1.06-4.13-4.144 0-3.086 1.696-4.22 3.85-4.22 0 0 2.999.03 2.999 2.152" transform="translate(0 13.73)"/>
                                        <path fill="#EA0029" d="M27.462 21.808s4.404-5.654 15.168-5.654c10.765 0 14.716 5.654 14.716 5.654H27.462z" transform="translate(0 13.73)"/>
                                    </g>
                                </g>
                            </g>
                        </g>
                    </g>
                </g>
            </g>
        </g>
    </g>
</svg>
