<svg xmlns="http://www.w3.org/2000/svg" xmlns:xlink="http://www.w3.org/1999/xlink" width="93" height="42" viewBox="0 0 93 42">
    <defs>
        <path id="c1sp98pfqa" d="M0 0H92.885V42H0z"/>
        <path id="0p869lgg9c" d="M0 0.189L7.997 0.189 7.997 8.579 0 8.579z"/>
        <path id="8blww6vrce" d="M0.353 0.162L11.998 0.162 11.998 14.376 0.353 14.376z"/>
    </defs>
    <g fill="none" fill-rule="evenodd">
        <g>
            <g>
                <g>
                    <g>
                        <g>
                            <g transform="translate(-428 -870) translate(310 804) translate(0 66) translate(118)">
                                <mask id="n3mmhzn42b" fill="#fff">
                                    <use xlink:href="#c1sp98pfqa"/>
                                </mask>
                                <g mask="url(#n3mmhzn42b)">
                                    <g>
                                        <path fill="#183E79" d="M29.104 1.635c0-.547-.423-.827-.884-.827h-9.517v.983h8.092v2.24c0 .839-.066 1.675-.321 2.366h-9.512v.982h5.535v1.89h-4.004v.981h8.236v5.096h1.338c.649 0 .971-.252.971-1.059v-4.174c0-.535-.369-.844-.806-.844h-3.427v-1.89h5.887v-.982h-2.247c.384-.537.66-1.61.66-2.435V1.635zM5.865 9.692H3.231c.192.24.307.894.307 1.374v2.999c0 .999.308 1.281 1.207 1.281h8.178v-1.084H5.865v-4.57z" transform="translate(0 12.923)"/>
                                        <g transform="translate(0 12.923)">
                                            <mask id="ig3g5li3zd" fill="#fff">
                                                <use xlink:href="#0p869lgg9c"/>
                                            </mask>
                                            <path fill="#183E79" d="M3.977 7.632c-.956 0-1.597-1.02-1.607-2.487.01-1.464.651-2.483 1.607-2.483.966 0 1.617 1.02 1.626 2.483-.01 1.468-.66 2.487-1.626 2.487zm4.02-6.223h-2.91V.19H2.684c.167.162.228.63.228.966v.254H0v.935h1.904C1.057 2.946.491 3.928.478 5.136c.025 2.039 1.612 3.443 3.5 3.443 1.898 0 3.491-1.404 3.518-3.443-.017-1.208-.583-2.19-1.434-2.792h1.935v-.935z" mask="url(#ig3g5li3zd)"/>
                                        </g>
                                        <path fill="#183E79" d="M12.724.808H9.692c.297.203.37.76.37 1.182v8.51h1.54c.754 0 1.122-.282 1.122-.985V4.991h2.622v-.919h-2.622V.808zM60.577.808c.385.233.578.775.578 1.244v13.294h1.357c.93 0 1.296-.485 1.296-1.252V.808h-3.231zM57.447 5.318h-2.524v.955h2.524v7.458h1.122c.814 0 1.2-.432 1.2-1.293V.808h-2.784c.306.196.462.777.462 1.217v3.293zM41.188 2.564c.041-.537-.248-.949-.803-.949h-6.453v1.003h4.805c0 3.556-2.1 5.799-5.622 6.402l.438.672c4.548-.548 7.303-2.683 7.635-7.128" transform="translate(0 12.923)"/>
                                        <path fill="#183E79" d="M41.99 15.114c-1.171 0-1.955-1.142-1.967-2.784.012-1.646.796-2.788 1.967-2.788 1.182 0 1.975 1.142 1.987 2.788-.012 1.642-.805 2.784-1.987 2.784zM46.038.808h-2.566c.265.223.396.824.396 1.28v1.1h-2.334v.996h2.334V5.63h-2.41v.993h2.41v2.274c-.563-.27-1.204-.42-1.877-.42-2.176 0-4 1.562-4.03 3.84.03 2.273 1.854 3.838 4.03 3.838 2.184 0 4.018-1.565 4.047-3.839 0-.042-.002-.084-.005-.126l.005.004V.808zM57.258 2.445c0-.584-.405-.83-.92-.83h-5.976v.95h4.407c0 2.919-2.228 4.757-5.5 5.84 3.55.513 6.238 2.147 8.077 4.518v-2.89c-1.455-1.07-3.145-1.654-4.762-1.916 2.495-.863 4.674-3.689 4.674-5.672" transform="translate(0 12.923)"/>
                                        <g transform="translate(0 12.923) translate(80.77 .808)">
                                            <mask id="cxsgfqpbzf" fill="#fff">
                                                <use xlink:href="#8blww6vrce"/>
                                            </mask>
                                            <path fill="#183E79" d="M2.975.162l3.633 11.253L10.13.162h1.867S7.786 12.996 7.602 13.536c-.185.538-.645.84-1.236.84H5.024L.354.162h2.62z" mask="url(#cxsgfqpbzf)"/>
                                        </g>
                                        <path fill="#183E79" d="M79.154.808H67.038v1.315h4.863v13.223h1.294c.645 0 1.1-.407 1.1-1.007V2.123h4.859V.808zM82.385.808h-1.616c.416.292.737.977.911 1.615" transform="translate(0 12.923)"/>
                                    </g>
                                </g>
                            </g>
                        </g>
                    </g>
                </g>
            </g>
        </g>
    </g>
</svg>
