<svg xmlns="http://www.w3.org/2000/svg" xmlns:xlink="http://www.w3.org/1999/xlink" width="520" height="420" viewBox="0 0 520 420">
    <defs>
        <path id="prefix__a" d="M0.244 0.151L272.755 0.151 272.755 419.754 0.244 419.754z"/>
    </defs>
    <g fill="none" fill-rule="evenodd">
        <g transform="translate(104) translate(143.277 .093)">
            <mask id="prefix__b" fill="#fff">
                <use xlink:href="#prefix__a"/>
            </mask>
            <path fill="#88E518" d="M.795 402.2L115.103 10.056c1.698-5.867 7.076-9.905 13.184-9.905h130.727c9.146 0 15.736 8.77 13.19 17.554L157.896 409.844c-1.702 5.871-7.076 9.91-13.184 9.91H13.985c-9.146 0-15.736-8.774-13.19-17.554" mask="url(#prefix__b)"/>
        </g>
        <path fill="#FFB1AA" d="M293.334 262.441l-25.924-3.805s12.685 32.026 18.113 42.965l12.092 2.22-4.281-41.38z" transform="translate(104)"/>
        <path fill="#FFB1AA" d="M276.928 406.869c2.579 1.506 6.531-3.148 6.531-3.148 3.855-6.682 6.375-14.06 6.6-21.747-.47-16.47-8.22-32.809-8.22-32.809s22.517-25.632 26.33-31.115c0 0 6.33-7.332 6.676-15.018.476-2.623-.954-9.059-.954-9.059-1.907-10.489-14.057-42.868-14.057-42.868s-11.732 8.72-32.66 6.818l21.641 46.136-19.976 39.478" transform="translate(104)"/>
        <path fill="#FFF" d="M221.908 160.232L215.488 158.673 222.86 169.534 225.397 164.936M188.932 170.405l4.439-8.878c-2.537-3.33-5.033-3.25-5.033-3.25l-5.273 7.055" transform="translate(104)"/>
        <path fill="#FFF" d="M187.478 161.315s-.634 1.692 2.095 4.05c4.91 4.24 9.85 7.472 15.019 8.343 0 0-6.316 7.984-9.297 9.773-6.635 3.982-14.698-5.05-18.029-9.753-1.234-1.744-3.28-4.468-1.042-6.457 2.145-1.907 4.912-2.996 6.913-5.72 0 0 2.536-3.21 5.201-3.274" transform="translate(104)"/>
        <path fill="#FFF" d="M223.204 164.17s-12.684 8.455-18.732 9.419c0 0 4.17 6.569 8.106 10.012 5.72 5.006 9.535 1.43 9.535 1.43s4.53-2.146 10.966-10.25c1.572-1.745.893-3.622-.568-5.12-1.695-1.74-4.146-3.884-5.607-5.835-2.577-3.44-4.995-3.594-4.995-3.594" transform="translate(104)"/>
        <path stroke="#28DC84" stroke-linecap="round" stroke-linejoin="round" stroke-width="3.195" d="M183.137 161.55s2.536-3.208 5.201-3.273" transform="translate(104)"/>
        <g>
            <path fill="#FFF" d="M5.23 3.744C2.654.304.235.15.235.15" transform="translate(104) translate(221.673 160.082)"/>
            <path stroke="#28DC84" stroke-linecap="round" stroke-linejoin="round" stroke-width="3.195" d="M5.23 3.744C2.654.304.235.15.235.15" transform="translate(104) translate(221.673 160.082)"/>
        </g>
        <path fill="#FFF" d="M183.065 165.332L155.399 176.589 152.07 219.396 231.501 246.983 264.796 204.176 245.295 178.491 222.86 169.533" transform="translate(104)"/>
        <path fill="#2642A1" d="M244.66 312.3l.338 6.465s10.727 8.105 15.257 19.31c0 0 7.866 17.64 9.297 33.612 0 0 .954 33.612.476 47.915h.478-150.184c-1.191-17.402.239-51.253.239-51.253 1.669-12.634 6.913-22.408 6.913-22.408 3.576-7.867 13.826-22.408 13.826-22.408l.716-10.966" transform="translate(104)"/>
        <g>
            <path fill="#FFF" d="M.06.081s4.324.393 10.247 1.354c5.913.96 11.855 1.724 17.78 2.602 5.64.836 11.698 2.141 16.45 5.611 5.143 3.757 8.027 9.427 10.348 15.156 0 0 13.588 40.764 14.78 47.2 0 0 .156 3.545-3.815 6.437 0 0-5.244 4.53-17.163 6.436 0 0-15.253 3.038-28.095-2.907" transform="translate(104) translate(234.453 172.861)"/>
            <path stroke="#28DC84" stroke-width="3.195" d="M.06.081s4.324.393 10.247 1.354c5.913.96 11.855 1.724 17.78 2.602 5.64.836 11.698 2.141 16.45 5.611 5.143 3.757 8.027 9.427 10.348 15.156 0 0 13.588 40.764 14.78 47.2 0 0 .156 3.545-3.815 6.437 0 0-5.244 4.53-17.163 6.436 0 0-15.253 3.038-28.095-2.907" transform="translate(104) translate(234.453 172.861)"/>
        </g>
        <g>
            <path fill="#FFF" d="M51.035 65.735S40.698 77.801 38.45 81.427C30.857 93.68 12.338 70.572 8.978 66.092l-4.44-6.552C1.982 57.347-.333 52.237.055 48.73c.39-3.515 3.402-5.584 5.612-8.047 2.287-2.55 4.815-5.096 7.109-7.637 4.55-5.04 8.86-10.088 13.518-15.03 3.582-3.799 7.48-6.689 11.767-9.688 4.329-3.027 9.182-4.292 14.276-5.14 4.743-.79 9.524-1.354 14.308-1.83C72.477.775 78.327.323 84.181.03" transform="translate(104) translate(90.93 168.683)"/>
            <path stroke="#28DC84" stroke-width="3.195" d="M51.035 65.735S40.698 77.801 38.45 81.427C30.857 93.68 12.338 70.572 8.978 66.092l-4.44-6.552C1.982 57.347-.333 52.237.055 48.73c.39-3.515 3.402-5.584 5.612-8.047 2.287-2.55 4.815-5.096 7.109-7.637 4.55-5.04 8.86-10.088 13.518-15.03 3.582-3.799 7.48-6.689 11.767-9.688 4.329-3.027 9.182-4.292 14.276-5.14 4.743-.79 9.524-1.354 14.308-1.83C72.477.775 78.327.323 84.181.03" transform="translate(104) translate(90.93 168.683)"/>
        </g>
        <path fill="#FFB1AA" d="M103.22 138.283c.07.1 2.77-3.138 6.433-1.044 0 0 3.87 1.327.887 10.755 0 0-4.39 11.44-6.544 16.577 0 0-2.82 14.872-9.197 21.77 0 0-4.99 50.896-6.182 59.478 0 0-.953 13.111-4.29 18.832L71.21 225.817l1.665-39.002-9.75-26.636 11.89-12.604" transform="translate(104)"/>
        <path fill="#F25A5A" d="M165.248 88.755c-.531 9.217-1.658 16.376-6.001 22.798-5.174 7.65-12.736 18.23-9.671 28.08 4.954 15.922 30.84 19.693 43.786 16.137l26.684 1.012c8.453-.96 17.24-2.337 24.116-7.568 6.145-4.675 8.423-12.167 6.852-19.585-1.482-6.998-6.155-13.785-5.525-21.185" transform="translate(104)"/>
        <path stroke="#28DC84" stroke-linecap="round" stroke-linejoin="round" stroke-width="3.195" d="M261.208 243.435c6.587 2.35 13.994 3.432 20.855 1.839 4.583-1.064 12.01-4.147 14.664-8.275" transform="translate(104)"/>
        <path fill="#FFF" d="M143.268 197.001s2.38 7.888 1.192 16.687c-1.062 7.853-5.305 31.893-6.497 39.283-1.192 7.39-4.53 35.757-2.622 45.293 0 0 .066 11.573 6.74 15.625 0 0 21.73 6.072 53.121 5.602 29.49-.006 47.174-6.447 47.174-6.447 11.204-3.814 11.919-29.322 11.919-41.718 0-12.396 2.89-50.741 2.89-50.741" transform="translate(104)"/>
        <path stroke="#28DC84" stroke-linecap="round" stroke-linejoin="round" stroke-width="3.195" d="M114.601 213.399s9.774 4.53 14.78 12.158c0 0 4.053 5.72 4.291 10.012" transform="translate(104)"/>
        <path fill="#28DC84" d="M207.095 189.427c0 1.638-1.388 2.966-3.1 2.966-1.71 0-3.098-1.328-3.098-2.966 0-1.638 1.387-2.966 3.099-2.966 1.711 0 3.099 1.328 3.099 2.966" transform="translate(104)"/>
        <path stroke="#28DC84" stroke-width="1.229" d="M207.095 189.427c0 1.638-1.388 2.966-3.1 2.966-1.71 0-3.098-1.328-3.098-2.966 0-1.638 1.387-2.966 3.099-2.966 1.711 0 3.099 1.328 3.099 2.966z" transform="translate(104)"/>
        <path fill="#28DC84" d="M205.903 213.89c0 1.638-1.388 2.965-3.1 2.965-1.71 0-3.098-1.327-3.098-2.965s1.387-2.966 3.099-2.966c1.711 0 3.099 1.328 3.099 2.966" transform="translate(104)"/>
        <path stroke="#28DC84" stroke-width="1.229" d="M205.903 213.89c0 1.638-1.388 2.965-3.1 2.965-1.71 0-3.098-1.327-3.098-2.965s1.387-2.966 3.099-2.966c1.711 0 3.099 1.328 3.099 2.966z" transform="translate(104)"/>
        <path fill="#FFB1AA" d="M222.113 164.768c-.954-6.913-.477-26.46-.477-26.46l-32.778-2.027s.47 22.55-1.43 26.938c0 0 8.083 7.186 17.2 10.28 0 0 12.366-4.52 17.485-8.73" transform="translate(104)"/>
        <path fill="#FFB1AA" d="M238.522 73.94c1.99 21.608 5.01 56.37-20.269 66.255-3.76 1.47-7.814 2.327-11.862 2.246-4.049-.081-8.065-1.1-11.764-2.72-24.862-10.89-20.45-45.503-17.596-67.015l12.297-10.746" transform="translate(104)"/>
        <path fill="#ED443B" d="M216.645 119.753c-.605-.526-1.525-.565-2.339-.393-3.016.64-7.464.58-7.464.58s-4.447-.12-7.436-.879c-.806-.204-1.727-.202-2.352.3-.831.667-.445 1.755.001 2.506 1.598 2.69 5.034 4.66 9.653 4.754 4.618.092 8.13-1.74 9.835-4.364.476-.732.905-1.804.102-2.504" transform="translate(104)"/>
        <path stroke="#ED443B" stroke-width=".737" d="M216.645 119.753c-.605-.526-1.525-.565-2.339-.393-3.016.64-7.464.58-7.464.58s-4.447-.12-7.436-.879c-.806-.204-1.727-.202-2.352.3-.831.667-.445 1.755.001 2.506 1.598 2.69 5.034 4.66 9.653 4.754 4.618.092 8.13-1.74 9.835-4.364.476-.732.905-1.804.102-2.504z" transform="translate(104)"/>
        <path stroke="#F47D7D" stroke-linecap="round" stroke-linejoin="round" stroke-width="3.195" d="M206.491 94.771s-.365 7.83-.829 10.117c-.435 2.15-3.561 2.842-3.2 5.479.347 2.514 3.956 2.776 5.743 2.797h.122" transform="translate(104)"/>
        <path fill="#3F3F3F" d="M192.916 102.114l-.403-.008c-.679-.014-1.218-.575-1.204-1.253l.07-3.502c.014-.678.575-1.217 1.253-1.204l.403.009c.679.013 1.218.574 1.204 1.253l-.07 3.501c-.014.679-.574 1.218-1.253 1.204" transform="translate(104)"/>
        <path stroke="#3F3F3F" stroke-width=".5" d="M192.916 102.114l-.403-.008c-.679-.014-1.218-.575-1.204-1.253l.07-3.502c.014-.678.575-1.217 1.253-1.204l.403.009c.679.013 1.218.574 1.204 1.253l-.07 3.501c-.014.679-.574 1.218-1.253 1.204z" transform="translate(104)"/>
        <path fill="#3F3F3F" d="M221.872 102.814l-.404-.008c-.678-.014-1.217-.575-1.203-1.253l.07-3.502c.014-.678.575-1.217 1.253-1.204l.403.008c.678.014 1.217.575 1.204 1.253l-.07 3.502c-.014.678-.575 1.218-1.253 1.204" transform="translate(104)"/>
        <path stroke="#3F3F3F" stroke-width=".5" d="M221.872 102.814l-.404-.008c-.678-.014-1.217-.575-1.203-1.253l.07-3.502c.014-.678.575-1.217 1.253-1.204l.403.008c.678.014 1.217.575 1.204 1.253l-.07 3.502c-.014.678-.575 1.218-1.253 1.204z" transform="translate(104)"/>
        <path fill="#FFB1AA" d="M176.471 92.872c-6.357-2.684-11.365 1.109-11.196 7.256.175 6.388 5.736 10.997 11.72 10.012M238.273 94.111c6.46-2.426 11.312 1.563 10.897 7.7-.432 6.375-6.173 10.757-12.113 9.533M282.777 378.183c3.343 8.4.478 16.231.478 16.231-.866 3.252-8.67 20.411-13.97 14.327-2.082-2.39.33-6.74 1.064-9.197 1.16-3.875 1.818-7.879 2.372-11.878.667-5.275-2.575-13.824-4.49-18.867-.345-.907-1.646-1.353-1.659-.382-.032 2.39-.525 5.673-1.09 8.415-.74 3.593-4.036 6.032-7.113 2.893-1.5-1.53-1.403-4.41-1.434-6.306-.066-3.904.553-7.838.092-11.73-.868-7.342-3.745-18.226 2.612-24.012 0 0 13.938-17.765 17.064-22.726 2.917-4.63 6.437-10.966 8.82-13.35 0 0 7.629-6.198 15.257-4.529l-.55 14.36-24.494 33.77 8.561 19.739" transform="translate(104)"/>
        <path stroke="#F47D7D" stroke-linecap="round" stroke-linejoin="round" stroke-width="3.195" d="M88.337 159.278s-4.137 2.148-5.85 7.417" transform="translate(104)"/>
        <path fill="#DCE2E5" d="M98.207 161.603l-30.725-5.276c-.649-.111-1.085-.727-.973-1.376l10.088-59.038c.111-.648.728-1.084 1.376-.973l30.726 5.276c.65.111 1.085.728.973 1.376L99.584 160.63c-.112.649-.728 1.084-1.377.973" transform="translate(104)"/>
        <path stroke="#3F3F3F" stroke-linecap="round" stroke-linejoin="round" stroke-width="2.703" d="M97.033 161.401l-28.377-4.872c-1.297-.223-2.168-1.455-1.946-2.753l9.685-56.688c.223-1.298 1.455-2.169 2.753-1.946l28.376 4.872c1.298.223 2.17 1.455 1.946 2.753l-9.684 56.688c-.223 1.298-1.456 2.169-2.753 1.946z" transform="translate(104)"/>
        <path fill="#3F3F3F" d="M66.91 152.611c-.333 1.941.97 3.785 2.911 4.118l26.047 4.472c1.94.333 3.784-.97 4.118-2.91l.502-2.93-33.075-5.678-.503 2.928zM109.27 103.932c.334-1.94-.97-3.785-2.91-4.118l-26.047-4.472c-1.941-.333-3.785.97-4.118 2.91l-.402 2.344 33.075 5.678.403-2.342z" transform="translate(104)"/>
        <path fill="#FFF" d="M96.729 114.852L84.3 112.703c-2.009-.347-3.92 1-4.266 3.01l-2.149 12.427c-.347 2.009 1 3.919 3.008 4.266l12.429 2.149c2.009.347 3.918-1 4.266-3.009l2.148-12.428c.348-2.009-.999-3.919-3.008-4.266" transform="translate(104)"/>
        <path fill="#006D2F" d="M83.898 128.413l2.22.384c.115.02.23-.04.281-.144l4.562-9.363c.077-.158-.019-.345-.191-.375l-2.22-.383c-.116-.02-.23.038-.281.144l-4.563 9.362c-.077.158.02.345.192.375" transform="translate(104)"/>
        <path fill="#88E518" d="M89.864 129.444l2.22.384c.115.02.23-.039.281-.144l4.562-9.363c.077-.157-.019-.344-.191-.374l-2.22-.384c-.116-.02-.23.039-.282.144l-4.562 9.363c-.077.157.02.344.192.374" transform="translate(104)"/>
        <path fill="#7EE5A3" d="M86.118 128.796l-2.47-.426c-.115-.02-.203-.114-.216-.23l-1.154-10.351c-.02-.175.133-.319.306-.289l2.469.427c.115.02.204.114.217.23l1.154 10.35c.02.175-.134.32-.306.29" transform="translate(104)"/>
        <path fill="#00C63B" d="M92.084 129.828l-2.47-.427c-.115-.02-.203-.114-.216-.23l-1.154-10.35c-.02-.175.133-.32.306-.29l2.469.427c.115.02.203.114.216.23l1.155 10.351c.02.174-.134.319-.306.289" transform="translate(104)"/>
        <path fill="#FFF" d="M67.099 160.033c3.007 1.47 12.383 2.075 10.517-3.804-1.048-3.303-7.295-4.734-10.191-5.394-5.068-.515-7.931 7.656-8.624 11.576" transform="translate(104)"/>
        <path fill="#FFB1AA" d="M70.966 137.872c3.005-2.064 7.878-10.02 1.32-10.839-3.697-.461-7.765 4.435-7.765 4.435-3.353 4.274-1.576 7.764-.697 8.55 0 0 1.442 1.611 3.345 1.136" transform="translate(104)"/>
        <path fill="#FFB1AA" d="M64.552 152.57c-2.357-.043-2.557-1.852-2.557-1.852s-2.24-2.797.927-7.395c2.247-3.261 11.333-9.105 14.02-3.346 1.88 4.03-5.493 9.025-9.295 11" transform="translate(104)"/>
        <path fill="#FFB1AA" d="M90.524 228.842s5.558-5.827 8.592-8.44c0 0 7.983 3.018 15.724 10.637 0 0 6.575 7.145 7.764 10.474-2.145 4.768-28.265 33.628-28.265 33.628-12.873 14.78-25.03 11.204-25.03 11.204-16.926-3.576-15.257-21.455-15.257-21.455 0-18.594 16.203-79.411 16.203-79.411 0-.027-.008-.06-.022-.083-2.668-4.368-7.916-11.768-10.49-18.478-1.665-4.344-.425-11.509 3.208-14.599 3.594-3.057 13.186-.747 14.665 3.91 1.866 5.879-7.51 5.275-10.517 3.804" transform="translate(104)"/>
        <path stroke="#F47D7D" stroke-linecap="round" stroke-linejoin="round" stroke-width="3.195" d="M77.193 159.498c-1.98 2.256-7.835 1.64-10.094.535" transform="translate(104)"/>
        <path stroke="#28DC84" stroke-linecap="round" stroke-linejoin="round" stroke-width="3.195" d="M95.53 219.597s7.548-.438 19.31 11.442c4.647 5.006 13.448 18.085 10.237 21.89M245.398 311.563c8.72-4.436 8.897-27.84 8.897-40.237 0-12.396 2.89-50.74 2.89-50.74M141.793 197.001s2.381 7.888 1.192 16.687c-1.061 7.853-4.813 31.893-6.005 39.283-1.192 7.39-3.546 35.757-1.64 45.293 0 0 .93 11.154 6.004 14.642M204.472 174.78s-6.197 6.912-9.177 8.701c-6.635 3.982-14.698-5.05-18.028-9.753-1.235-1.744-3.281-4.467-1.043-6.457 2.145-1.907 4.912-2.996 6.913-5.72M204.472 174.78s4.17 5.378 8.105 8.82c5.722 5.007 9.536 1.431 9.536 1.431s4.53-2.146 10.966-10.25c1.572-1.745.893-3.622-.568-5.12-1.695-1.74-4.146-3.884-5.608-5.835" transform="translate(104)"/>
        <path stroke="#F47D7D" stroke-linecap="round" stroke-linejoin="round" stroke-width="3.195" d="M94.799 186.341s-4.99 50.896-6.182 59.478c0 0-.953 13.111-4.29 18.832M286.954 300.886s6.222-4.797 13.826-3.814M282.777 378.183c3.343 8.4.478 16.231.478 16.231-.866 3.252-8.67 20.411-13.97 14.327" transform="translate(104)"/>
        <path stroke="#F47D7D" stroke-linecap="round" stroke-linejoin="round" stroke-width="3.195" d="M276.928 406.869c2.579 1.506 6.531-3.148 6.531-3.148 4.96-8.065 6.851-14.06 7.077-21.747-.471-16.47-8.697-32.809-8.697-32.809" transform="translate(104)"/>
        <path fill="#F25A5A" d="M189.541 66.877c-.841 6.793-2.117 14.03-5.82 19.916-3.637 5.777-12.456 10.701-17.262 4.162-4.344-5.91-3.184-15.855-.54-22.255 3.284-7.945 9.104-14.559 16.685-18.533 0 0 14.477-8.531 32.996-4.584 16.427 3.502 45.247 21.418 38.985 41.553-6.117 19.669-39.777 4.265-48.651-1.915-6.894-4.801-17.126-12.67-18.354-21.602" transform="translate(104)"/>
        <path fill="#1FA3EC" d="M80.516 36.425c0-5.88-4.378-10.662-9.98-11.273-.577-8.555-7.54-15.316-16.066-15.316-8.527 0-15.49 6.761-16.067 15.316-5.6.61-9.98 5.394-9.98 11.273 0 5.86 4.35 10.63 9.923 11.268v.127h32.247v-.127c5.574-.638 9.923-5.408 9.923-11.268" transform="translate(104)"/>
        <path fill="#7963CC" d="M142.988 32.846h-38.443c-1.317 0-2.384 1.067-2.384 2.383v6.455h43.211V35.23c0-1.316-1.067-2.383-2.384-2.383M102.16 73.673c0 1.316 1.068 2.384 2.385 2.384h38.443c1.317 0 2.384-1.068 2.384-2.384V44.63h-43.211v29.043z" transform="translate(104)"/>
        <path fill="#FFF" d="M115.223 58.451h1.999c1.554 0 2.611-.966 2.611-2.392 0-1.402-1.021-2.296-2.622-2.296-1.59 0-2.646.954-2.737 2.465h-3.167c.112-3.3 2.418-5.378 5.995-5.378 3.361 0 5.779 1.958 5.779 4.7 0 2.02-1.192 3.59-3.02 3.99v.217c2.247.265 3.656 1.86 3.656 4.157 0 3.057-2.703 5.268-6.44 5.268-3.654 0-6.13-2.15-6.277-5.438h3.28c.103 1.475 1.272 2.405 3.033 2.405 1.715 0 2.906-1.027 2.906-2.513 0-1.523-1.125-2.466-2.962-2.466h-2.034v-2.719zM131.142 54.85L130.936 54.85 126.918 57.799 126.918 54.403 131.153 51.297 134.569 51.297 134.569 68.735 131.142 68.735z" transform="translate(104)"/>
        <path fill="#00C63B" d="M46.377 77.287c-.426-.396-.994-.64-1.621-.64H2.384c-.627 0-1.196.244-1.62.64l22.17 18.76c.367.31.904.31 1.27 0l22.173-18.76z" transform="translate(104)"/>
        <path fill="#00C63B" d="M0 80.5v31.082c0 1.317 1.067 2.384 2.384 2.384h42.372c1.316 0 2.383-1.067 2.383-2.384V80.501L24.205 99.907c-.367.31-.904.31-1.27 0L0 80.501z" transform="translate(104)"/>
    </g>
</svg>
