<svg xmlns="http://www.w3.org/2000/svg" xmlns:xlink="http://www.w3.org/1999/xlink" width="519" height="420" viewBox="0 0 519 420">
    <defs>
        <path id="prefix__a" d="M0 0.151L272.512 0.151 272.512 419.754 0 419.754z"/>
        <path id="prefix__c" d="M0 419.848L440.406 419.848 440.406 0.245 0 0.245z"/>
    </defs>
    <g fill="none" fill-rule="evenodd">
        <g transform="translate(0 .093)">
            <mask id="prefix__b" fill="#fff">
                <use xlink:href="#prefix__a"/>
            </mask>
            <path fill="#00C63B" d="M271.96 402.2L157.652 10.056C155.955 4.19 150.576.151 144.468.151H13.741C4.595.151-1.995 8.921.551 17.705l114.308 392.14c1.703 5.87 7.077 9.91 13.185 9.91H258.77c9.146 0 15.735-8.775 13.19-17.555" mask="url(#prefix__b)"/>
        </g>
        <path fill="#2642A1" d="M431.567 205.515L406.358 194.1l-21.496 7.487s-1.494 7.01-1.191 14.542c-4.643-1.207-9.24-2.398-15.972-3.576-9.899-1.733-33.162-7.99-33.162-7.99l-21.403-2.378-10.94 44.71 16.636 31.452s58.987 2.082 85.103-5.721c0 0 22.408-5.245 26.223-28.13 0 0 2.838-17.102 1.411-38.981"/>
        <path stroke="#232C66" stroke-linecap="round" stroke-linejoin="round" stroke-width="3.195" d="M395.828 240.92c-3.337-10.012-11.68-23.123-11.68-23.123"/>
        <path fill="#FCA7A7" d="M391.138 107.414s-1.508-2.373 3.021-5.234c4.53-2.86 11.205-3.337 11.205-3.337s7.39-.954 7.628 3.576c0 0 .764 2.602.5 4.995"/>
        <path fill="#FCA7A7" d="M399.105 107.177h-17.242s-2.245-1.898.139-4.281c2.989-2.99 16.562-10.22 19.124-3.805 0 0 1.784 2.973 1.784 6.778"/>
        <path fill="#FCA7A7" d="M370.56 107.425c-2.513-5.443 9.07-8.45 12.156-9.774 3.338-1.43 7.153.238 7.153.238s4.242 3.226 2.577 9.409"/>
        <path stroke="#ED7474" stroke-linecap="round" stroke-linejoin="round" stroke-width="3.195" d="M381.863 107.177s-2.245-1.898.139-4.281c1.138-1.139 3.804-2.408 6.819-3.788M391.138 107.414s-1.508-2.373 3.021-5.234c2.183-1.378 3.532-1.87 5.724-2.354"/>
        <path fill="#D2A173" d="M437.069 205.163H318.366v-98.898h118.703c1.843 0 3.337 1.494 3.337 3.337v92.223c0 1.843-1.494 3.338-3.337 3.338"/>
        <path fill="#BF845C" d="M311.215 202.779L318.366 205.163 318.366 106.265 311.215 106.265z"/>
        <mask id="prefix__d" fill="#fff">
            <use xlink:href="#prefix__c"/>
        </mask>
        <path fill="#BF845C" d="M249.715 205.163L311.707 205.163 311.707 106.265 249.715 106.265z" mask="url(#prefix__d)"/>
        <path fill="#2642A1" d="M203.42 187.44L178.053 201.71 144.758 315.862 164.735 349.157 294.584 338.693 303.621 204.088z" mask="url(#prefix__d)"/>
        <path fill="#2642A1" d="M156.965 379.475s-3.358 30.804-.603 40.373h157.946c5.707-12.663 3.582-36.128 4.043-53.191.544-20.168 1.193-47.008.845-67.15-.357-20.691.121-37.63-2.582-58.517" mask="url(#prefix__d)"/>
        <path stroke="#232C66" stroke-linecap="round" stroke-linejoin="round" stroke-width="3.195" d="M302.153 269.98s9.694-.38 15.356-.163M285.778 280.037s-.84 34.427 1.455 42.172c0 0 .77 4.711 8.22 6.595 0 0 9.352 2.944 20.52 2.46M290.12 285.73s13.06 4.534 23.038 4.517c0 0 1.951-.134 5.212-1.262" mask="url(#prefix__d)"/>
        <path stroke="#232C66" stroke-linecap="round" stroke-linejoin="round" stroke-width="3.195" d="M314.307 418.172c5.708-12.663 3.583-34.452 4.044-51.515.544-20.168 1.193-47.008.845-67.15-.357-20.691.121-37.63-2.582-58.517" mask="url(#prefix__d)"/>
        <path fill="#2642A1" d="M285.694 195.866c-4.324-1.031-14.183-2.48-18.128-2.503l-7.545 12.469 34.246 9.83" mask="url(#prefix__d)"/>
        <path fill="#2642A1" d="M257.155 184.23s5.538.816 7.577 4.202c2.552 4.239 7.518 8.934 8.177 10.426 1.399 3.166-.568 7.281-1.293 10.112-1.347 5.269-3.085 8.975-6.615 7.13 0 0-7.373-6.321-8.249-7.065" mask="url(#prefix__d)"/>
        <path stroke="#232C66" stroke-linecap="round" stroke-linejoin="round" stroke-width="3.195" d="M257.155 184.23s5.538.816 7.577 4.202" mask="url(#prefix__d)"/>
        <path fill="#2642A1" d="M209.02 176.048s-5.822.04-8.434 4.197c-1.515 2.41-2.315 5.424-3.734 7.901-1.38 2.41-2.6 2.976-1.667 6.123 1.1 3.71 8.816 14.941 14.437 23.745 0 0 4.384 7.447 9.182 3.943 0 0 8.461-6.413 14.457-11.857" mask="url(#prefix__d)"/>
        <path fill="#FCA7A7" d="M259.618 195.688c-1.37-1.365-2.084-6.421-2.084-6.421-.466-4.786-.73-20.339-.73-20.339l-23.577-25.722-25.246 6.413s.715 19.07.715 24.077c0 0-.238 5.483-.477 8.343l17.08 22.049 22.99 24.099" mask="url(#prefix__d)"/>
        <path fill="#2642A1" d="M247.496 228.187c.993-6.932 3.328-20.815 3.328-20.815.75-5.02 10.686-14.155 10.686-14.155l5.645 5.639-18.074 35.197" mask="url(#prefix__d)"/>
        <g mask="url(#prefix__d)">
            <g>
                <path fill="#3F3F3F" d="M.016 48.975s24.444-1.448 35.408 1.114l8.087-47.472C43.706 1.37 42.74.241 41.475.244l-30.46.064C9.336.31 7.906 1.532 7.64 3.192L1.285 33.437" transform="translate(277.215 193.259)"/>
                <path stroke="#3F3F3F" stroke-width="2.703" d="M.016 48.975s24.444-1.448 35.408 1.114l8.087-47.472C43.706 1.37 42.74.241 41.475.244l-30.46.064C9.336.31 7.906 1.532 7.64 3.192L1.285 33.437" transform="translate(277.215 193.259)"/>
            </g>
        </g>
        <path stroke="#232C66" stroke-linecap="round" stroke-linejoin="round" stroke-width="3.195" d="M259.924 329.33s.75 46.737.776 59.046c.026 12.31 1.366 19.62 1.382 27.37M190.018 269.758s31.228-.293 43.995.592c0 0 .384 1.813.24 4.775" mask="url(#prefix__d)"/>
        <path fill="#EF9595" d="M272.972 128.899c8.066-3.143 6.237-13.544 6.237-13.544l-11.26-2.748" mask="url(#prefix__d)"/>
        <path fill="#FCA7A7" d="M274.68 114.163s-2.384 25.745-4.53 34.327c-3.417 13.672-14.78 26.461-31.466 25.508-11.71-.67-24.942-9.116-29.457-20.383-3.4-8.488-4.82-17.687-5.11-26.818 0 0 0-13.588.716-16.925 0 0 .238-5.96 1.43-9.536" mask="url(#prefix__d)"/>
        <path stroke="#ED7474" stroke-linecap="round" stroke-linejoin="round" stroke-width="3.195" d="M247.504 133.949s.309 6.087.477 8.581c.192 2.855-.802 4.56-1.192 5.245" mask="url(#prefix__d)"/>
        <path stroke="#EF5C54" stroke-linecap="round" stroke-linejoin="round" stroke-width="3.195" d="M233.678 152.781c3.955 2.28 14.78 4.291 20.5 0" mask="url(#prefix__d)"/>
        <path fill="#3F3F3F" d="M231.722 125.043c-1.099-.052-2.011.349-2.05 1.17l-.211 4.422c-.04.822.831 1.307 1.93 1.36 1.098.052 2.01-.349 2.05-1.17l.21-4.422c.04-.822-.83-1.307-1.929-1.36M261.716 125.839c-.967-.046-1.772.35-1.81 1.152l-.206 4.319c-.038.802.726 1.273 1.692 1.319.967.046 1.773-.35 1.81-1.152l.207-4.319c.038-.803-.726-1.273-1.693-1.32" mask="url(#prefix__d)"/>
        <path fill="#00B900" d="M227.197 55.024c-10.776 3.281-20.252 7.749-26.655 16.945-5.434 7.803-3.527 31.403-3.527 31.403h7.867s1.427-1.855 4.052-3.576" mask="url(#prefix__d)"/>
        <path fill="#DCEEF7" d="M208.934 99.796s-.715-21.216 4.291-32.42c0 0 2.539-7.899 13.972-12.352 8.25-2.664 13.352-3.133 20.307-2.841 12.304.516 29.164 10.958 30.513 23.838 0 0 .526 8.757-.666 24.014" mask="url(#prefix__d)"/>
        <path fill="#FCA7A7" d="M204.833 103.436c-7.408-2.751-15.105 2.805-14.418 11.032.565 6.764 6.725 12.469 13.703 12.33" mask="url(#prefix__d)"/>
        <path fill="#3F3F3F" d="M204.833 103.436c-1.282 5.36-.7 17.495-.7 17.495.397 5.945 2.417 4.85 2.417 4.85.954-.24 1.43-4.53 1.43-4.53.99-4.68 2.146-7.39 2.146-7.39 3.1-3.814 3.362-9.895 3.362-9.895l-4.554-4.17s-3.15 1.948-4.1 3.64" mask="url(#prefix__d)"/>
        <path fill="#3F3F3F" d="M231.641 110.387s-6.496 9.672-14.84 9.434c0 0-10.012.238-8.343-9.774 0 0 .458-4.627 5.32-9.384" mask="url(#prefix__d)"/>
        <path stroke="#ED7474" stroke-linecap="round" stroke-linejoin="round" stroke-width="2.949" d="M238.684 173.997c-6.115-.349-12.645-2.82-18.132-6.705" mask="url(#prefix__d)"/>
        <path stroke="#ED7474" stroke-linecap="round" stroke-linejoin="round" stroke-width="3.195" d="M274.68 114.163s-2.384 25.745-4.53 34.327c-3.417 13.672-14.78 26.461-31.466 25.508" mask="url(#prefix__d)"/>
        <path fill="#3F3F3F" d="M255.658 107.663c1.977 3.46 4.29 10.727.424 11.963-6.538 2.088-15.442-4.811-15.493-12.568 0 0 8.248-4.122 14.907-3.33" mask="url(#prefix__d)"/>
        <path fill="#3F3F3F" d="M255.515 106.518c.524 5.84 5.383 12.757 11.156 15.403 2.993 1.373 6.333 2.277 9.428.97 3.643-1.538 5.813-5.116 1.926-7.883 0 0-1.515-5.572-15.784-13.658" mask="url(#prefix__d)"/>
        <path fill="#00B900" d="M277.35 100.035l8.344 16.449c.715 2.383-.238 2.86-.238 2.86-.954 1.192-3.863-1.367-3.863-1.367-13.062-9.837-26.46-11.443-26.46-11.443-15.924-.063-31.944 7.152-34.805 8.106-2.86.953-4.53-1.908-4.53-1.908-2.621-3.814-6.864-12.936-6.864-12.936 6.268-4.106 20.116-10.4 43.1-10.187 0 0 13.398.89 25.317 10.426" mask="url(#prefix__d)"/>
        <path stroke="#232C66" stroke-linecap="round" stroke-linejoin="round" stroke-width="3.195" d="M259.102 317.773s3.852-2.386 5.152-6.997c0 0 .727-6.094.419-7.917" mask="url(#prefix__d)"/>
        <path fill="#FCA7A7" d="M269.217 249.824s4.771-5.255 9.329-6.404c6.43-1.622 14.99-2.744 21.66-2.93 4.804-.135 14.334.623 17.01 5.688 1.413 2.674-.505 5.826-4.92 6.063 0 0-17.395 1.313-27.066 6.386" mask="url(#prefix__d)"/>
        <path fill="#FCA7A7" d="M280.845 255.039c5.686-2.675 27.652-6.665 32.835-1.428 0 0 3.734 4.937-3.409 7.495l-27.737 8.303" mask="url(#prefix__d)"/>
        <path fill="#FCA7A7" d="M278.779 243.192c1.36-3.422 8.187-8.22 12.062-8.456 3.875-.236 13.447-.94 13.447-.94 5.242-.467 5.233-4.8 5.233-4.8.537-7.067-14.56-6.58-18.478-6.572-5.699.012-11.62 2.76-11.62 2.76-5.53 2.686-10.162 5.535-14.417 8.565-4.206 2.997-8.392 6.387-10.57 11.337-1.946 4.425-2.87 12.302-4.338 18.227-.906 2.737-6.89 12.095-6.89 12.095s-3.798 15.008 2.385 27.85c0 0 4.595 10.704 7.742 12.743 3.198-2.992 11.977-13.123 14.836-16.685.577-.719 1.295-1.794 2.11-2.225 6.745-3.565 9.853-8.025 15.528-13.986 5.665-5.952 16.599-9.905 23.113-14.705 2.245-1.654 4.433-5.249 1.417-6.883-5.1-2.762-19.567 2.966-23.995 5.362" mask="url(#prefix__d)"/>
        <path stroke="#ED7474" stroke-linecap="round" stroke-linejoin="round" stroke-width="3.195" d="M269.217 249.824s4.771-5.255 9.329-6.404M280.845 255.039c5.095-2.397 23.261-5.85 30.712-2.774M308.522 260.927c-6.11-1.047-18.198 3.798-22.178 5.952" mask="url(#prefix__d)"/>
        <path fill="#2642A1" d="M157.602 319.892s5.967-7.944 14.56-13.556c9.106-5.945 36.736-14.747 46.758-18.72 0 0 16.685-7.902 24.289-12.208 0 0-1.793 14.897.654 22.49 0 0 5.817 20.2 15.239 19.876l-14.866 12.644c-12.595 18.414-38.331 37.85-53.01 44.12-28.04 11.98-43.095-.517-43.095-.517-9.034-5.737-13.823-17.385-17.344-27-11.082-30.266-15.835-66.356-11.073-98.113 2.207-14.715 8.572-32.08 23.665-38.024 6.986-2.75 52.206-20.978 52.206-20.978" mask="url(#prefix__d)"/>
        <path stroke="#232C66" stroke-linecap="round" stroke-linejoin="round" stroke-width="3.195" d="M220.983 293.235s-.648 17.097 7.582 28.706c0 0 8.076 10.164 15.67 8.477" mask="url(#prefix__d)"/>
        <path stroke="#232C66" stroke-linecap="round" stroke-linejoin="round" stroke-width="3.195" d="M259.102 317.773l-14.867 12.645c-12.594 18.414-38.33 37.85-53.009 44.12-15.277 6.528-26.7 5.789-33.933 3.764M157.602 319.892s5.967-7.944 14.56-13.556c9.106-5.945 36.736-14.747 46.758-18.72 0 0 14.54-7.425 22.143-11.73M144.64 226.004s11.928-1.849 22.59 10.286c13.779 15.68 16.02 36.63 18.885 56.796" mask="url(#prefix__d)"/>
        <path fill="#2642A1" d="M251.423 237.42c-.608-2.127-2.432-6.99-2.432-6.99-1.24-3.421-7.659-17.701-7.659-17.701-2.46-6.608-7.235-9.548-12.715-13.385-7.641-5.351-14.852-11.156-20.848-18.358l-4.349 6.455 13.952 32.026" mask="url(#prefix__d)"/>
        <path stroke="#232C66" stroke-linecap="round" stroke-linejoin="round" stroke-width="3.195" d="M229.191 215.862s11.319 29.414 13.374 37.273M195.185 194.268c1.1 3.712 8.816 14.942 14.437 23.746 0 0 4.384 7.447 9.182 3.942 0 0 8.461-6.412 14.457-11.857M256.753 209.035c.875.744 8.248 7.065 8.248 7.065 3.53 1.845 5.268-1.861 6.615-7.13.724-2.83 2.692-6.946 1.293-10.112-.66-1.492-5.625-6.187-8.177-10.426" mask="url(#prefix__d)"/>
    </g>
</svg>
