<svg xmlns="http://www.w3.org/2000/svg" xmlns:xlink="http://www.w3.org/1999/xlink" width="520" height="420" viewBox="0 0 520 420">
    <defs>
        <path id="prefix__a" d="M0.206 0.151L272.719 0.151 272.719 419.757 0.206 419.757z"/>
    </defs>
    <g fill="none" fill-rule="evenodd">
        <g transform="translate(96) translate(151.142 .093)">
            <mask id="prefix__b" fill="#fff">
                <use xlink:href="#prefix__a"/>
            </mask>
            <path fill="#006D2F" d="M.757 402.203L115.066 10.056C116.764 4.19 122.142.151 128.25.151h130.728c9.146 0 15.736 8.77 13.19 17.554L157.859 409.846c-1.702 5.872-7.076 9.91-13.184 9.91H13.947c-9.146 0-15.736-8.773-13.19-17.553" mask="url(#prefix__b)"/>
        </g>
        <path fill="#FFF" d="M124.7 94.225H74.478c-7.51 0-13.597 6.087-13.597 13.597v50.224c0 7.51 6.087 13.597 13.597 13.597H124.7c7.51 0 13.597-6.088 13.597-13.597v-50.224c0-7.51-6.088-13.597-13.597-13.597" transform="translate(96)"/>
        <path stroke="#DFE6ED" stroke-width="1.475" d="M124.7 94.225H74.478c-7.51 0-13.597 6.087-13.597 13.597v50.224c0 7.51 6.087 13.597 13.597 13.597H124.7c7.51 0 13.597-6.088 13.597-13.597v-50.224c0-7.51-6.088-13.597-13.597-13.597z" transform="translate(96)"/>
        <path fill="#006D2F" d="M84.154 154.136h8.634c.449 0 .844-.296.969-.728l11.118-38.337c.186-.645-.298-1.289-.97-1.289h-8.633c-.45 0-.844.296-.97.728l-11.117 38.337c-.187.645.297 1.29.97 1.29" transform="translate(96)"/>
        <path fill="#88E518" d="M107.359 154.136h8.634c.448 0 .843-.296.968-.728l11.118-38.337c.187-.645-.297-1.289-.969-1.289h-8.634c-.449 0-.843.296-.969.728l-11.117 38.337c-.187.645.297 1.29.969 1.29" transform="translate(96)"/>
        <path fill="#7EE5A3" d="M92.788 154.136h-9.603c-.448 0-.843-.296-.968-.728l-11.118-38.337c-.187-.645.297-1.289.969-1.289h9.602c.449 0 .844.296.968.728l11.119 38.337c.187.645-.298 1.29-.97 1.29" transform="translate(96)"/>
        <path fill="#00C63B" d="M115.992 154.136h-9.602c-.449 0-.844-.296-.969-.728l-11.117-38.337c-.188-.645.296-1.289.968-1.289h9.603c.449 0 .843.296.968.728l11.118 38.337c.187.645-.297 1.29-.969 1.29" transform="translate(96)"/>
        <path fill="#00B900" d="M63.821 33.88H13.597C6.087 33.88 0 39.966 0 47.475V97.7c0 7.51 6.088 13.598 13.597 13.598h50.224c7.51 0 13.597-6.088 13.597-13.598V47.476c0-7.51-6.087-13.597-13.597-13.597" transform="translate(96)"/>
        <path fill="#FFF" d="M66.77 69.184c0-12.613-12.644-22.874-28.187-22.874-15.541 0-28.187 10.261-28.187 22.874 0 11.307 10.028 20.777 23.573 22.568.919.198 2.168.605 2.484 1.39.284.712.186 1.829.091 2.548 0 0-.33 1.99-.402 2.414-.123.712-.567 2.787 2.441 1.519 3.01-1.268 16.233-9.559 22.147-16.365h-.001c4.085-4.48 6.042-9.026 6.042-14.074" transform="translate(96)"/>
        <path fill="#00B900" d="M32.856 63.089H30.88c-.303 0-.549.246-.549.548V75.92c0 .303.246.548.549.548h1.977c.303 0 .55-.245.55-.548V63.637c0-.302-.247-.548-.55-.548M46.465 63.089h-1.977c-.303 0-.549.246-.549.548v7.297l-5.628-7.601c-.013-.02-.028-.038-.043-.056l-.004-.003c-.01-.012-.022-.024-.033-.034l-.01-.01-.03-.024-.014-.011-.028-.02-.016-.01-.03-.016-.017-.008c-.01-.005-.02-.01-.032-.014l-.017-.006-.033-.01-.02-.006-.03-.007-.024-.003-.029-.003-.028-.002-.02-.001h-1.976c-.303 0-.55.246-.55.548V75.92c0 .303.247.548.55.548h1.977c.303 0 .549-.245.549-.548v-7.294l5.635 7.61c.039.055.087.1.14.136l.005.004c.011.007.023.015.034.02l.016.009.026.013.027.011c.006.002.01.005.016.006l.038.013.008.001c.044.012.091.019.14.019h1.977c.304 0 .55-.245.55-.548V63.637c0-.302-.246-.548-.55-.548M28.09 73.392h-5.372v-9.755c0-.303-.246-.548-.549-.548h-1.977c-.303 0-.549.245-.549.548V75.92c0 .147.059.28.154.379l.007.009.008.007c.099.095.232.153.38.153h7.898c.303 0 .548-.246.548-.549v-1.977c0-.303-.245-.55-.548-.55M57.384 66.164c.303 0 .548-.245.548-.549v-1.977c0-.303-.245-.549-.548-.549h-7.899c-.149 0-.282.06-.381.155l-.007.006-.009.01c-.093.098-.152.23-.152.377V75.92c0 .147.06.28.154.379l.007.009.008.007c.099.095.232.153.38.153h7.899c.303 0 .548-.246.548-.549v-1.977c0-.303-.245-.55-.548-.55h-5.372v-2.076h5.372c.303 0 .548-.245.548-.549V68.79c0-.304-.245-.55-.548-.55h-5.372v-2.076h5.372z" transform="translate(96)"/>
        <path fill="#DCE2E5" d="M26.166 127.77h-5.91l8.733-9.359 8.732 9.36H31.81c0 10.102 8.22 18.322 18.325 18.322v5.646c-13.216 0-23.969-10.753-23.969-23.969" transform="translate(96)"/>
        <path stroke="#DCE2E5" stroke-width="1.475" d="M26.166 127.77h0-5.91l8.733-9.359 8.732 9.36H31.81c0 10.102 8.22 18.322 18.325 18.322v5.646c-13.216 0-23.969-10.753-23.969-23.969z" transform="translate(96)"/>
        <path fill="#DCE2E5" d="M109.31 87.192l-8.731-9.36h5.827c0-10.057-8.183-18.242-18.242-18.242v-5.808c13.261 0 24.05 10.789 24.05 24.05h5.828l-8.732 9.36z" transform="translate(96)"/>
        <path stroke="#DCE2E5" stroke-width="1.475" d="M109.31 87.192l-8.731-9.36h5.827c0-10.057-8.183-18.242-18.242-18.242v-5.808c13.261 0 24.05 10.789 24.05 24.05h5.828l-8.732 9.36z" transform="translate(96)"/>
        <path fill="#DCEEF7" d="M174.522 202.958L238.575 187.738 273.455 215.008 205.597 299.355 167.546 313.941" transform="translate(96)"/>
        <path fill="#00B900" d="M217.726 208.31s-3.916 3.42-7.492 6.757c0 0-6.54 19.6-11.68 45.055-3.58 6.89-20.544 36.062-20.544 36.062l-2.103-3.403c-3.287-12.135.953-31.229.953-31.229 6.698-18.64 23.362-47.916 23.362-47.916-.715-4.529 0-9.297 0-9.297s7.516-9.229 10.37-10.656c0 0 6.42 10.94 7.134 14.626" transform="translate(96)"/>
        <path fill="#003528" d="M176.384 294.926c-2.179-51.697 20.229-99.155 20.229-99.155l3.065.106 2.69-6.794c-3.958.98-10.06 2.2-14.016 3.184-4.653 1.158-14.328 4.347-18.882 5.874-13.809 4.633-22.646 17.88-28.368 31.944l-10.973 18.218 10.464 30.758 35.79 15.865z" transform="translate(96)"/>
        <path fill="#DCEEF7" d="M209.167 181.435c-1.52.266-3.657.997-4.775 2.184-1.188 1.263-1.946 3.535-2.902 5.025-.978 1.524-2.02 3.01-3.157 4.421-1.323 1.644-2.248 3.235-2.385 4.865-.191 2.278.045 4.62 1.413 6.41 0 0 .954 2.145 2.861 0 1.907-2.146 5.483-6.437 10.25-10.49 0 0 6.913 11.44 8.582 15.971 1.94 5.262 10.355 1.141 13.589-.476l33.612-30.99c-1.583-2.035-3.056-2.763-4.052-5.006-.954-2.145-.954-3.099-1.908-6.436-.953-3.338-4.995-2.838-4.995-2.838" transform="translate(96)"/>
        <path stroke="#00B900" stroke-linecap="round" stroke-linejoin="round" stroke-width="3.195" d="M234.55 209.107c-3.234 1.617-13.556 5.977-15.496.714-1.67-4.53-8.581-15.256-8.581-15.256" transform="translate(96)"/>
        <path fill="#003528" d="M92.71 295.403c-.477-5.483 5.317-11.984 5.317-11.984l1.265 22.515s-5.232-.475-6.582-10.531" transform="translate(96)"/>
        <path fill="#DCEEF7" d="M99.161 300.647c-1.669-8.582-1.534-21.356-1.534-21.356l28.539 13.088-17.6 16.41" transform="translate(96)"/>
        <path fill="#003528" d="M121.316 294.926c-4.054 4.633-18.99 5.586-24.791 3.54-4.054-1.431-3.815-3.063-3.815-3.063s2.145 23.6 6.913 37.903c0 0 6.437 20.025 18.356 25.03 0 0 13.736 6.097 20.395-4.05 0 0 8.561-8.636 12.05-16.563l6.024-32.027" transform="translate(96)"/>
        <path fill="#DCEEF7" d="M127.038 311.375c-1.43-2.146 2.383-6.675 2.383-6.675l10.3 4.326-5.47 5.945" transform="translate(96)"/>
        <path stroke="#001C12" stroke-linecap="round" stroke-linejoin="round" stroke-width="3.195" d="M131.805 318.765c-1.042 2.27-5.612 16.502-.476 17.164" transform="translate(96)"/>
        <g>
            <path fill="#3F3F3F" d="M52.137 58.332L16.94 41.21l-1.555-9.002L.322 3.025C-.335 1.755.587.24 2.016.24h27.349c1.336 0 2.561.746 3.175 1.933l13.065 25.243" transform="translate(96) translate(67.83 193.997)"/>
            <path stroke="#3F3F3F" stroke-width="2.703" d="M52.137 58.332L16.94 41.21l-1.555-9.002L.322 3.025C-.335 1.755.587.24 2.016.24h27.349c1.336 0 2.561.746 3.175 1.933l13.065 25.243" transform="translate(96) translate(67.83 193.997)"/>
        </g>
        <path stroke="#7C5656" stroke-linecap="round" stroke-linejoin="round" stroke-width="3.195" d="M180.275 122.348L171.33 123.208" transform="translate(96)"/>
        <path fill="#FFCACA" d="M206.659 168.343s1.668 15.257 2.145 20.978c0 0 .477 2.384 1.669 4.29 0 0 28.606-9.296 46.008-24.553 0 0-4.767-17.879-6.887-32.69" transform="translate(96)"/>
        <path fill="#FFCACA" d="M251.451 131.731c-1.566 9.711-6.166 15.558-6.166 15.558-3.188 4.739-7.953 8.97-12.446 12.446-7.394 5.722-15.582 9.067-24.989 9.561-5.959.314-12.171-2.181-16.512-6.236-4.053-3.787-6.339-8.52-8.07-13.69-2.417-7.223-3.547-27.75-3.547-27.75s-4.723-20.924 5.107-34.242c0 0 14.11-17.123 40.588-11.098 0 0 21.72 7.927 26.794 31.868 0 0 1.269 14.163-.759 23.583" transform="translate(96)"/>
        <path stroke="#F98482" stroke-linecap="round" stroke-linejoin="round" stroke-width="3.195" d="M189.87 125.662s.273 6.678-.257 8.572c-.296 1.054-1.19 2.753-.927 3.932.317 1.427 1.321 2.378 2.405 2.78" transform="translate(96)"/>
        <path fill="#3F3F3F" d="M203.108 116.298c.84-.056 1.55.316 1.601 1.088l.275 4.154c.05.772-.604 1.234-1.444 1.29-.841.055-1.55-.317-1.602-1.089l-.274-4.154c-.051-.772.603-1.234 1.444-1.29" transform="translate(96)"/>
        <path stroke="#3F3F3F" stroke-width=".5" d="M203.108 116.298c.84-.056 1.55.316 1.601 1.088l.275 4.154c.05.772-.604 1.234-1.444 1.29-.841.055-1.55-.317-1.602-1.089l-.274-4.154c-.051-.772.603-1.234 1.444-1.29z" transform="translate(96)"/>
        <path fill="#3F3F3F" d="M182.388 120.568c.51-.034.948.293.992.95l.233 3.532c.044.657-.347 1.039-.857 1.073-.51.033-.948-.294-.992-.95l-.234-3.533c-.043-.657.348-1.039.858-1.072" transform="translate(96)"/>
        <path stroke="#3F3F3F" stroke-width=".5" d="M182.388 120.568c.51-.034.948.293.992.95l.233 3.532c.044.657-.347 1.039-.857 1.073-.51.033-.948-.294-.992-.95l-.234-3.533c-.043-.657.348-1.039.858-1.072z" transform="translate(96)"/>
        <path stroke="#7C5656" stroke-linecap="round" stroke-linejoin="round" stroke-width="3.195" d="M214.58 119.345c.764 6.63-3.28 12.542-9.032 13.205-5.753.662-11.036-4.175-11.8-10.805-.763-6.63 3.282-12.542 9.034-13.204 5.752-.663 11.035 4.175 11.799 10.804zM193.669 122.342L186.147 122.873" transform="translate(96)"/>
        <path stroke="#F46256" stroke-linecap="round" stroke-linejoin="round" stroke-width="3.195" d="M189.733 147.842c2.863 1.052 6.523.943 9.596.301 3.048-.636 6.48-2.261 7.643-4.587" transform="translate(96)"/>
        <path stroke="#001C12" stroke-linecap="round" stroke-linejoin="round" stroke-width="3.195" d="M162.796 214.113s-11.92 26.7-17.165 56.498" transform="translate(96)"/>
        <path fill="#003528" d="M138.718 342.842s-4.052 40.773-3.575 77.008h149.886c-.951-29.495-4.274-60.331-4.274-60.331" transform="translate(96)"/>
        <path fill="#003528" d="M199.507 308.514c-6.436-2.622-36.711-21.931-36.711-21.931-1.43 9.773-18.595 36.95-23.124 42.91-4.53 5.959-8.343 6.436-8.343 6.436s50.299 32.42 55.783 35.52c16.55 9.355 41.815 23.504 61.264 15.017 27.508-10.408 42.707-43.618 55.783-68.178 20.262-36.95 19.07-68.179 19.07-68.179 0-25.507-14.78-37.426-14.78-37.426s-15.018-12.158-20.74-15.972c-5.72-3.814-21.454-18.356-21.454-18.356s-23.901 18.07-37.665 35.52c-13.35 16.925-35.996 55.305-51.015 81.29" transform="translate(96)"/>
        <path fill="#FFCACA" d="M115.701 235.064c-1.72-3.431-8.559-11.97-2.251-15.706 0 0 3.575-1.67 7.866 4.529 4.291 6.198 10.727 12.634 10.727 12.634s15.972 17.403 13.588 34.09c0 0 5.757 6.639 7.885 9.16 0 0-4.162 20.149-17.42 31.127l-14.78-13.826s-21.762-14.005-25.507-17.403c-4.603-4.176-9.77-12.316-10.728-15.495-1.247-4.139.477-6.675.477-6.675" transform="translate(96)"/>
        <path fill="#FFCACA" d="M91.756 266.32c-2.384-1.43-4.29-5.245-4.29-5.245s-2.126-3.26-4.053-9.535c-1.471-4.791.184-6.25.184-6.25s1.03-2.695 3.566-3.805l11.416 12.842" transform="translate(96)"/>
        <path fill="#FFCACA" d="M127.753 247.01c-1.67-3.099-7.39-7.151-7.39-7.151-2.146-1.907-7.39-7.867-10.966-11.443-2.198-2.197-7.851-8.898-11.92-14.064-4.309-5.474-7.382-7.867-7.382-7.867-1.621-1.216-4.992-2.077-6.543.202-1.014 1.492-.62 3.736.106 5.28 1.908 4.053 4.298 7.797 6.668 10.728 1.863 2.304 7.505 11.85 10.325 18.035.38.835-.482 1.607-1.322 1.237-5.915-2.615-9.48-6.876-9.48-6.876s-1.424-4.697-3.808-8.272c-.941-1.413-2.857-3.033-4.867-2.382-2.268.733-2.301 4.3-2.052 6.125.715 5.244.715 8.582 3.337 12.634 2.622 4.053 7.39 9.297 7.39 9.297s4.132 3.737 6.827 6.432" transform="translate(96)"/>
        <path stroke="#001C12" stroke-linecap="round" stroke-linejoin="round" stroke-width="3.195" d="M218.598 272.64c15.696.951 25.726-1.314 25.726-1.314v-10.728s-10.031.625-12.172.387" transform="translate(96)"/>
        <path fill="#00682A" d="M158.49 364.12c0 3.326-1.598 6.022-3.569 6.022-1.97 0-3.568-2.696-3.568-6.022s1.598-6.022 3.568-6.022c1.971 0 3.569 2.696 3.569 6.022" transform="translate(96)"/>
        <path stroke="#00682A" stroke-width=".5" d="M158.49 364.12c0 3.326-1.598 6.022-3.569 6.022-1.97 0-3.568-2.696-3.568-6.022s1.598-6.022 3.568-6.022c1.971 0 3.569 2.696 3.569 6.022z" transform="translate(96)"/>
        <path fill="#00682A" d="M159.382 396.297c0 3.326-1.598 6.022-3.569 6.022-1.97 0-3.568-2.696-3.568-6.022 0-3.325 1.598-6.021 3.568-6.021 1.971 0 3.569 2.696 3.569 6.021" transform="translate(96)"/>
        <path stroke="#00682A" stroke-width=".5" d="M159.382 396.297c0 3.326-1.598 6.022-3.569 6.022-1.97 0-3.568-2.696-3.568-6.022 0-3.325 1.598-6.021 3.568-6.021 1.971 0 3.569 2.696 3.569 6.021z" transform="translate(96)"/>
        <path stroke="#00682A" stroke-linecap="round" stroke-linejoin="round" stroke-width="3.195" d="M259.58 195.28c-1.944 9.153-3.546 18.28-6.118 27.277-.571 1.997-1.236 4.621-2.504 6.343-1.286 1.745-4.084 2.598-6.158 2.854-3.054.377-6.197.947-8.65 1.493-3.028.675-5.502 1.949-6.647 3.746-1.448 2.276-1.525 3.989-1.628 6.68-.08 2.059.192 4.835.276 6.893.083 2.007.281 4.202-.059 6.19-.57 3.33-3.244 5.667-5.938 7.418 0 0-26.461 19.071-31.706 23.362M187.207 198.042s-10.143 8.728-12.968 13.21c-1 1.585-2.125 3.663-1.625 5.606.903 3.511 6.19 5.602 3.94 9.061-1.548 2.382-4.62 4.37-6.845 6.073-4.12 3.15-2.293 9.688-2.146 14.065.3 8.905 2.897 30.557 2.897 31.51" transform="translate(96)"/>
        <path stroke="#7C5656" stroke-linecap="round" stroke-linejoin="round" stroke-width="3.195" d="M248.231 111.827L213.859 115.658" transform="translate(96)"/>
        <path fill="#912617" d="M251.475 110.653c-1.643 3.678-6.163 3.845-6.163 3.845-7.213.943-23.391-2.774-33.085-9.757-4.43-3.192-9.596-7.825-11.66-12.85-.412-1.001-1.038-2.625-2.206-3.02-1.387-.467-3.052 1.05-3.964 1.911-1.96 1.852-3.88 2.493-3.88 2.493s-1.443.197-2.607-.79c0 0-1.165-.987-1.655-.524 0 0-2.005.337-4.24 6.585 0 0-4.09 9.872-2.318 23.039l.024.034c-4.053 0-8.17-1.661-8.17-1.661-2.683-.947-5.232-2.592-7.274-4.594-2.534-2.486-4.354-5.818-5.305-9.223-1.466-5.258.137-13.345 4.238-17.22 2.155-2.037 2.668-5.15 3.014-7.956.422-3.418.953-6.579 2.367-9.771 3.936-8.885 14.159-10.519 22.534-7.46 0 0 3.723-4.678 11.866-5.878 0 0 6.937-.756 12.595 1.55 6.76 2.757 14.9-1.605 21.89 1.815 5.174 2.531 10.949 9.135 13.237 12.538 2.288 3.404 6.08 4.227 6.08 4.227s11.961 1.587 14.945 14.073c0 0 4.768 15.495-5.721 23.124" transform="translate(96)"/>
        <path fill="#FFCACA" d="M251.57 110.748s1.756-3.05 5.575-3.18c10.377-.354 11.886 13.281 5.555 19.32-3.33 3.177-8.27 4.619-12.417 4.982" transform="translate(96)"/>
        <path stroke="#001C12" stroke-linecap="round" stroke-linejoin="round" stroke-width="3.195" d="M230.974 313.52s20.024-35.758 23.839-50.062c2.127-7.977 6.048-15.514 10.03-22.701 5.455-9.85 14.523-23.068 28.588-24.26M131.329 335.928s50.299 32.421 55.783 35.52c16.55 9.356 41.815 23.505 61.264 15.018 12.53-4.74 20.5-11.511 28.885-22.741" transform="translate(96)"/>
        <path stroke="#F98482" stroke-linecap="round" stroke-linejoin="round" stroke-width="3.195" d="M229.943 161.826c-6.626 4.445-13.897 7.04-22.093 7.47M84.757 246.091c2.468 5.567 8.253 10.298 13.346 13.467M92.79 267.248c-4.914-4.597-6.278-8.795-6.278-8.795" transform="translate(96)"/>
        <path fill="#DCEEF7" d="M140.626 327.585c-3.996-3.576-13.588-16.21-13.588-16.21s1.907 1.668 8.104-3.814c0 0 10.763-9.237 15.519-20.177 0 0 2.617-5.706 2.855-7.613l9.28 6.812s-8.885 26.407-22.17 41.002" transform="translate(96)"/>
        <path stroke="#001C12" stroke-linecap="round" stroke-linejoin="round" stroke-width="3.195" d="M162.796 286.583s30.274 19.309 36.711 21.931c6.436 2.622 20.74 9.774 26.7 14.065 0 0 7.453 4.046 8.82 15.495M139.672 329.492c4.53-5.96 21.693-33.136 23.124-42.91" transform="translate(96)"/>
        <path stroke="#F98482" stroke-linecap="round" stroke-linejoin="round" stroke-width="3.195" d="M125.607 246.057c-1.5-2.754-5.244-6.198-5.244-6.198-2.146-1.907-3.868-3.93-5.965-6.574" transform="translate(96)"/>
        <path stroke="#00B900" stroke-linecap="round" stroke-linejoin="round" stroke-width="3.195" d="M210.473 194.565c-4.768 4.053-8.344 7.629-10.25 9.774-1.908 2.146-2.862 0-2.862 0M197.361 204.34c-.537-.959-.448-1.893-.765-3.478" transform="translate(96)"/>
        <path stroke="#F98482" stroke-linecap="round" stroke-linejoin="round" stroke-width="3.195" d="M207.85 169.296c-5.96.314-12.171-2.181-16.512-6.236-4.053-3.787-6.339-8.52-8.07-13.69-.976-2.916-1.742-8.002-2.309-13.03" transform="translate(96)"/>
        <path stroke="#7C5656" stroke-linecap="round" stroke-linejoin="round" stroke-width="3.195" d="M186.34 123.724c.753 6.54-1.425 12.163-4.865 12.559-3.44.396-6.84-4.584-7.594-11.124-.753-6.54 1.426-12.162 4.866-12.558 3.44-.396 6.84 4.584 7.593 11.123z" transform="translate(96)"/>
    </g>
</svg>
