<?xml version="1.0" encoding="UTF-8"?>
<svg width="11px" height="11px" viewBox="0 0 11 11" version="1.1" xmlns="http://www.w3.org/2000/svg" xmlns:xlink="http://www.w3.org/1999/xlink">
    <title>B9B59E3A-E3D6-47A7-8D1E-4F590E26853F</title>
    <g id="Page-1" stroke="none" stroke-width="1" fill="none" fill-rule="evenodd">
        <g id="앱-다운로드-BTN,-외부링크-icon" transform="translate(-1009.000000, -1972.000000)" fill="#D6D6D6" fill-rule="nonzero">
            <g id="icon_new-window" transform="translate(1009.000000, 1972.000000)">
                <path d="M5,1 L5,2 L1,2 L1,10 L9,10 L9,6 L10,6 L10,10 C10,10.5522847 9.55228475,11 9,11 L1,11 C0.44771525,11 0,10.5522847 0,10 L0,2 C0,1.44771525 0.44771525,1 1,1 L5,1 Z" id="Combined-Shape"></path>
                <polygon id="Shape-Copy" points="9.24974747 1 7 1 7 0 11 0 11 4 10 4 10 1.66396103 5.50710678 6.15685425 4.8 5.44974747"></polygon>
            </g>
        </g>
    </g>
</svg>