<svg xmlns="http://www.w3.org/2000/svg" xmlns:xlink="http://www.w3.org/1999/xlink" width="80" height="3429" viewBox="0 0 80 3429">
    <defs>
        <linearGradient id="rmk8ouf0la" x1="49.998%" x2="49.998%" y1="77.125%" y2="27.806%">
            <stop offset="0%" stop-color="#868686"/>
            <stop offset="100%" stop-color="#868686" stop-opacity=".362"/>
        </linearGradient>
        <linearGradient id="hy3iykkdyd" x1="100%" x2="0%" y1="50%" y2="50%">
            <stop offset="0%" stop-color="#FFF"/>
            <stop offset="100%" stop-color="#FFF" stop-opacity="0"/>
        </linearGradient>
        <path id="s4dbtflqgb" d="M0 0L23.75 0 23.75 23.75 0 23.75z"/>
    </defs>
    <g fill="none" fill-rule="evenodd">
        <g>
            <path d="M0 0H80V3429H0z"/>
            <g>
                <path d="M0 0H40V40H0z"/>
                <path stroke="#000" stroke-linecap="round" stroke-linejoin="round" stroke-width="2" d="M23 13L16 20 23 27"/>
            </g>
            <g opacity=".9">
                <g>
                    <path d="M0 0H33V14H0z" transform="translate(0 3000) matrix(-1 0 0 1 33 0)"/>
                    <path stroke="#345CCD" stroke-linecap="round" stroke-linejoin="round" stroke-width="1.5" d="M31 3L27 7 31 11" transform="translate(0 3000) matrix(-1 0 0 1 33 0) matrix(-1 0 0 1 58 0)"/>
                    <path stroke="#345CCD" stroke-linecap="round" stroke-width="1.5" d="M31 7L1 7" transform="translate(0 3000) matrix(-1 0 0 1 33 0)"/>
                </g>
            </g>
            <g opacity=".9">
                <g>
                    <path d="M0 0H23V12H0z" transform="translate(0 3100)"/>
                    <path stroke="#345CCD" stroke-linecap="round" d="M21 6L1 6" transform="translate(0 3100)"/>
                    <path stroke="#345CCD" stroke-linecap="round" stroke-linejoin="round" d="M21 2L17 6 21 10" transform="translate(0 3100) matrix(-1 0 0 1 38 0)"/>
                </g>
            </g>
            <g>
                <path d="M0 0.976L28 0.976 28 28.976 0 28.976z" transform="translate(0 3200)"/>
                <path stroke="#FFF" stroke-linejoin="round" stroke-width="2" d="M20 0.976L8 12.976 20 24.976" transform="translate(0 3200) matrix(0 1 1 0 1.024 -1.024)"/>
            </g>
            <g>
                <path fill="url(#rmk8ouf0la)" d="M0 18.619L5.588 18.619 5.588 3.286 0 3.286z" transform="translate(3 3306)"/>
                <path fill="#868686" d="M18.388 9.593c-.848-1.33-2.637-1.733-3.995-.903l-13.03 7.97c-1.358.83-1.77 2.581-.922 3.91.849 1.33 2.637 1.734 3.995.903l13.03-7.97c1.358-.83 1.77-2.58.922-3.91" transform="translate(3 3306)"/>
                <path fill="#868686" d="M18.388 12.602c-.848 1.329-2.637 1.733-3.995.903l-13.03-7.97c-1.358-.83-1.77-2.582-.922-3.91C1.29.294 3.078-.11 4.436.721l13.03 7.97c1.358.83 1.77 2.58.922 3.91" transform="translate(3 3306)"/>
            </g>
            <g fill="#888">
                <path d="M16.64 9.537c.53 0 .904-.355.904-.875 0-.521-.373-.876-.904-.876-.53 0-.903.355-.903.876 0 .52.373.875.903.875zm-4.63.03c.487 0 .86-.354.86-.89s-.373-.891-.86-.891c-.484 0-.858.355-.858.89 0 .537.374.892.859.892zm-6.455.085c.516 0 .889-.355.889-.92 0-.567-.373-.921-.889-.921-.515 0-.888.354-.888.92 0 .566.373.92.888.92zm3.357 7.034l1.752 4.119c.15.26.522.26.67 0l1.754-4.119h5.118c2.08 0 3.794-1.7 3.794-3.8V3.818C22 1.718 20.286 0 18.206 0H3.748C1.668 0 0 1.718 0 3.819v9.066c0 2.1 1.684 3.801 3.762 3.801h5.15zm7.552-10.01c.499 0 .866.186 1.117.504v-.395H18.7v3.675c0 1.3-1.001 1.85-2.02 1.85v-1.022h.037c.537 0 .865-.279.865-.828v-.356c-.251.318-.618.504-1.117.504-1.087 0-1.883-.899-1.883-1.966 0-1.068.796-1.966 1.883-1.966zm-4.453 0c1.126 0 2.03.89 2.03 2.043s-.904 2.043-2.03 2.043c-1.125 0-2.029-.89-2.029-2.043s.904-2.043 2.029-2.043zM7.525 5.354c.932.092 1.776.662 1.776 1.863v3.436H8.153V7.217c0-.466-.234-.74-.628-.817V5.354zM3.3 5.496v-.001h1.148V7.15c.254-.294.628-.473 1.141-.473 1.004 0 1.83.89 1.83 2.043s-.826 2.043-1.83 2.043c-.513 0-.887-.178-1.14-.473v.364H3.3V5.496z" transform="translate(0 3405) translate(1 2)"/>
            </g>
            <g fill="#888" fill-rule="nonzero">
                <path d="M21.58 9.287c0 .133-.108.242-.244.242h-2.381v.918h2.381c.136 0 .244.109.244.242v.875c0 .135-.108.243-.244.243h-2.381v.917h2.381c.136 0 .244.11.244.243v.875c0 .134-.108.242-.244.242h-3.502c-.066 0-.125-.026-.168-.067l-.004-.004c-.001 0-.003-.001-.003-.003-.041-.044-.068-.103-.068-.168v-5.43c0-.065.025-.124.067-.167.001-.001.003-.002.004-.005.001 0 .003-.001.003-.003.044-.041.103-.067.169-.067h3.502c.136 0 .244.109.244.242v.875zm-4.84 4.555c0 .134-.11.242-.245.242h-.877c-.021 0-.043-.003-.061-.008h-.004l-.018-.006-.007-.002-.01-.006c-.004 0-.008-.004-.012-.006-.003 0-.006-.002-.007-.003-.005-.003-.01-.005-.016-.01h-.003c-.023-.017-.044-.037-.062-.06l-2.498-3.366v3.225c0 .134-.11.242-.244.242H11.8c-.134 0-.244-.108-.244-.242v-5.43c0-.133.11-.242.244-.242h.899c.004.002.008.002.013.003h.01l.013.004.01.001.014.006.008.002.013.007.007.003.014.006c.002.003.005.004.008.006l.012.008.006.005c.006.004.01.007.012.01l.006.005.015.016v.001c.008.007.014.015.02.024l2.495 3.361V8.412c0-.133.11-.242.244-.242h.877c.136 0 .244.109.244.242v5.43zm-6.036 0c0 .134-.11.242-.244.242h-.876c-.136 0-.244-.108-.244-.242v-5.43c0-.133.108-.242.244-.242h.876c.135 0 .244.109.244.242v5.43zm-2.115 0c0 .134-.109.242-.243.242H4.845c-.066 0-.125-.026-.17-.067l-.003-.004c-.002 0-.002-.003-.003-.003-.043-.044-.068-.103-.068-.168v-5.43c0-.133.108-.243.244-.243h.875c.135 0 .243.11.243.243v4.312h2.383c.134 0 .243.11.243.243v.875zM25.5 10.864C25.5 5.288 19.892.75 13 .75S.5 5.288.5 10.864c0 5 4.447 9.187 10.453 9.978.408.087.961.268 1.1.615.128.315.084.81.043 1.126l-.179 1.068c-.055.315-.252 1.232 1.084.672 1.334-.56 7.198-4.227 9.82-7.236 1.81-1.98 2.679-3.991 2.679-6.223z" transform="translate(2 2703)"/>
            </g>
            <g fill="#888" fill-rule="nonzero">
                <path d="M22.942 5.293c.01.23.014.461.014.694 0 7.087-5.158 15.263-14.595 15.263-2.896 0-5.592-.889-7.861-2.41.4.05.809.075 1.223.075 2.404 0 4.615-.858 6.371-2.297-2.246-.043-4.14-1.595-4.793-3.725.313.062.635.096.964.096.469 0 .923-.066 1.353-.189-2.346-.491-4.115-2.661-4.115-5.258l.001-.07c.69.403 1.481.645 2.323.672C2.45 7.183 1.544 5.54 1.544 3.678c0-.981.254-1.903.695-2.695 2.53 3.245 6.31 5.38 10.572 5.604-.087-.393-.132-.802-.132-1.222 0-2.963 2.297-5.365 5.13-5.365 1.475 0 2.809.653 3.744 1.695 1.168-.24 2.267-.687 3.257-1.303-.382 1.254-1.196 2.305-2.254 2.969 1.037-.13 2.026-.42 2.944-.846-.686 1.077-1.557 2.02-2.558 2.778" transform="translate(2 2805)"/>
            </g>
            <g>
                <g>
                    <g>
                        <g transform="translate(3 2903) translate(.75 .75)">
                            <mask id="1megruy67c" fill="#fff">
                                <use xlink:href="#s4dbtflqgb"/>
                            </mask>
                            <path fill="#868686" fill-rule="nonzero" d="M1.31 0C.586 0 0 .587 0 1.31v21.13c0 .724.587 1.31 1.31 1.31h11.377v-9.185H9.602V10.97h3.085V8.326c0-3.067 1.873-4.738 4.61-4.738 1.31 0 2.437.098 2.765.142v3.205H18.17c-1.484 0-1.771.707-1.771 1.745v2.29h3.56l-.464 3.595h-3.096v9.185h6.041c.724 0 1.311-.587 1.311-1.31V1.31c0-.724-.587-1.31-1.31-1.31H1.31z" mask="url(#1megruy67c)"/>
                        </g>
                    </g>
                </g>
            </g>
            <g>
                <path d="M0 0H26V26H0z" transform="translate(0 2500)"/>
                <path stroke="#868686" stroke-linecap="round" stroke-linejoin="round" d="M15 9L11 13 15 17" transform="translate(0 2500) matrix(0 -1 -1 0 26 26)"/>
            </g>
            <g fill="#888" fill-rule="nonzero">
                <g>
                    <path d="M11.38 15.517v-9.31l8.275 4.655-8.276 4.655zM29.372 3.231C29.028 1.959 28.011.958 26.721.618 24.38 0 15 0 15 0S5.619 0 3.28.618C1.988.958.971 1.959.626 3.23 0 5.536 0 10.345 0 10.345s0 4.809.627 7.114c.345 1.272 1.362 2.273 2.652 2.613C5.62 20.69 15 20.69 15 20.69s9.381 0 11.72-.618c1.291-.34 2.308-1.341 2.653-2.613.627-2.305.627-7.114.627-7.114s0-4.81-.627-7.114z" transform="translate(0 2605)"/>
                </g>
            </g>
            <g>
                <g>
                    <path d="M0 0H26V26H0z" transform="translate(0 2400) matrix(1 0 0 -1 0 26)"/>
                    <path stroke="#868686" stroke-linecap="round" stroke-linejoin="round" d="M15 9L11 13 15 17" transform="translate(0 2400) matrix(1 0 0 -1 0 26) matrix(0 -1 -1 0 26 26)"/>
                </g>
            </g>
            <g>
                <path d="M0 0H30V30H0z" transform="translate(0 2200)"/>
                <path stroke="#868686" stroke-linecap="round" stroke-linejoin="round" stroke-width="1.5" d="M18 9L12 15 18 21" transform="translate(0 2200) matrix(0 -1 -1 0 30 30)"/>
            </g>
            <g>
                <path d="M0 0H30V30H0z" transform="translate(0 2300)"/>
                <path stroke="#868686" stroke-linecap="round" stroke-linejoin="round" stroke-width="1.5" d="M18 9L12 15 18 21" transform="translate(0 2300) rotate(90 15 15)"/>
            </g>
            <g>
                <path d="M0 0H30V30H0z" transform="translate(0 2100)"/>
                <path stroke="#CCC" stroke-linecap="round" stroke-linejoin="round" stroke-width="1.5" d="M18 9L12 15 18 21" transform="translate(0 2100) rotate(90 15 15)"/>
            </g>
            <g>
                <path d="M0 0H30V30H0z" transform="translate(0 2000)"/>
                <path stroke="#CCC" stroke-linecap="round" stroke-linejoin="round" stroke-width="1.5" d="M18 9L12 15 18 21" transform="translate(0 2000) matrix(0 -1 -1 0 30 30)"/>
            </g>
            <g stroke="#000" stroke-linejoin="round" stroke-width="2">
                <g>
                    <path d="M0 0L16 16" transform="translate(7 1807)"/>
                    <path d="M0 0L16 16" transform="translate(7 1807) matrix(-1 0 0 1 16 0)"/>
                </g>
            </g>
            <g>
                <path d="M0 0H30V30H0z" transform="translate(0 1900)"/>
                <path fill="#000" fill-rule="nonzero" d="M4 7H26V9H4zM4 14H26V16H4zM4 21H26V23H4z" transform="translate(0 1900)"/>
            </g>
            <g>
                <path fill="#FFF" fill-rule="nonzero" d="M30 0H66V30H30z" transform="translate(0 1700)"/>
                <path fill="url(#hy3iykkdyd)" fill-rule="nonzero" d="M0 0H30V30H0z" transform="translate(0 1700)"/>
                <path stroke="#222" stroke-linecap="round" stroke-linejoin="round" stroke-width="2" d="M50 9L44 15 50 21" transform="translate(0 1700) matrix(-1 0 0 1 94 0)"/>
            </g>
            <g>
                <g>
                    <path fill="#FFF" fill-rule="nonzero" d="M30 0H66V30H30z" transform="translate(0 1600) matrix(-1 0 0 1 66 0)"/>
                    <path fill="url(#hy3iykkdyd)" fill-rule="nonzero" d="M0 0H30V30H0z" transform="translate(0 1600) matrix(-1 0 0 1 66 0)"/>
                    <path stroke="#222" stroke-linecap="round" stroke-linejoin="round" stroke-width="2" d="M50 9L44 15 50 21" transform="translate(0 1600) matrix(-1 0 0 1 66 0) matrix(-1 0 0 1 94 0)"/>
                </g>
            </g>
            <g>
                <path d="M0 0H24V24H0z" transform="translate(0 1300)"/>
                <path stroke="#345CCD" stroke-linecap="round" stroke-linejoin="round" stroke-width="1.5" d="M23 6L17 12 23 18" transform="translate(0 1300) matrix(-1 0 0 1 40 0)"/>
                <path stroke="#345CCD" stroke-linecap="round" stroke-width="1.5" d="M22 12L1 12" transform="translate(0 1300)"/>
            </g>
            <g fill-rule="nonzero" transform="translate(0 1400)">
                <circle cx="15" cy="15" r="15" fill="#07B53B"/>
                <path fill="#FFF" d="M11 10.15v9.7c0 .682.553 1.235 1.235 1.235.219 0 .434-.058.623-.169l8.313-4.849c.59-.344.788-1.1.444-1.69-.107-.183-.26-.337-.444-.444l-8.313-4.85c-.59-.343-1.346-.144-1.69.445-.11.19-.168.404-.168.623z"/>
            </g>
            <g>
                <path d="M0 0H20V20H0z" transform="translate(0 1500)"/>
                <path stroke="#AAA" stroke-linecap="round" stroke-width="1.263" d="M5.25 5.25L14.75 14.75" transform="translate(0 1500)"/>
                <path stroke="#AAA" stroke-linecap="round" stroke-width="1.263" d="M5.25 5.25L14.75 14.75" transform="translate(0 1500) matrix(-1 0 0 1 20 0)"/>
            </g>
            <g opacity=".9">
                <g>
                    <path d="M0 0H33V14H0z" transform="translate(0 1200)"/>
                    <path stroke="#345CCD" stroke-linecap="round" stroke-linejoin="round" stroke-width="1.5" d="M31 3L27 7 31 11" transform="translate(0 1200) matrix(-1 0 0 1 58 0)"/>
                    <path stroke="#345CCD" stroke-linecap="round" stroke-width="1.5" d="M31 7L1 7" transform="translate(0 1200)"/>
                </g>
            </g>
            <g>
                <g>
                    <path d="M0 0H50V82H0z" transform="translate(0 1100) matrix(-1 0 0 1 50 0)"/>
                    <path stroke="#222" stroke-linecap="round" stroke-linejoin="round" stroke-width="2" d="M40 10L10 41 40 72" transform="translate(0 1100) matrix(-1 0 0 1 50 0)"/>
                </g>
            </g>
            <g>
                <path d="M0 0H50V82H0z" transform="translate(0 1000)"/>
                <path stroke="#222" stroke-linecap="round" stroke-linejoin="round" stroke-width="2" d="M40 10L10 41 40 72" transform="translate(0 1000)"/>
            </g>
            <g>
                <path d="M0 0H30V30H0z" transform="translate(0 800)"/>
                <path stroke="#222" stroke-linecap="round" stroke-linejoin="round" d="M17 7L9 15 17 23" transform="translate(0 800)"/>
            </g>
            <g>
                <path d="M0 0H30V30H0z" transform="translate(0 900)"/>
                <path stroke="#222" stroke-linecap="round" stroke-linejoin="round" d="M21 7L13 15 21 23" transform="translate(0 900) matrix(-1 0 0 1 34 0)"/>
            </g>
            <g>
                <path d="M0 0H30V30H0z" transform="translate(0 700)"/>
                <path fill="#FFF" fill-rule="nonzero" d="M9 9.585v10.83c0 .829.672 1.5 1.5 1.5.261 0 .518-.068.744-.197l9.477-5.416c.72-.41.969-1.327.558-2.046-.133-.233-.326-.425-.558-.558l-9.477-5.416c-.72-.41-1.635-.16-2.046.559-.13.226-.198.483-.198.744z" transform="translate(0 700)"/>
            </g>
            <g>
                <path d="M0 0H40V40H0z" transform="translate(0 400)"/>
                <path stroke="#FFF" stroke-linecap="round" stroke-linejoin="round" stroke-width="2" d="M23 13L16 20 23 27" transform="translate(0 400)"/>
            </g>
            <g>
                <g>
                    <path d="M0 0H40V40H0z" transform="translate(0 600) matrix(-1 0 0 1 40 0)"/>
                    <path stroke="#FFF" stroke-linecap="round" stroke-linejoin="round" stroke-width="2" d="M23 13L16 20 23 27" transform="translate(0 600) matrix(-1 0 0 1 40 0)"/>
                </g>
            </g>
            <g>
                <path d="M0 0H30V30H0z" transform="translate(0 500)"/>
                <path fill="#FFF" fill-rule="nonzero" d="M10 8H13V22H10zM17 8H20V22H17z" transform="translate(0 500)"/>
            </g>
            <g>
                <path d="M0 0H30V30H0z" transform="translate(0 100)"/>
                <path fill="#000" fill-rule="nonzero" d="M10 8H13V22H10zM17 8H20V22H17z" transform="translate(0 100)"/>
            </g>
            <g>
                <g>
                    <path d="M0 0H40V40H0z" transform="translate(0 200) matrix(-1 0 0 1 40 0)"/>
                    <path stroke="#000" stroke-linecap="round" stroke-linejoin="round" stroke-width="2" d="M23 13L16 20 23 27" transform="translate(0 200) matrix(-1 0 0 1 40 0)"/>
                </g>
            </g>
            <g>
                <path d="M0 0H30V30H0z" transform="translate(0 300)"/>
                <path fill="#000" fill-rule="nonzero" d="M9 9.585v10.83c0 .829.672 1.5 1.5 1.5.261 0 .518-.068.744-.197l9.477-5.416c.72-.41.969-1.327.558-2.046-.133-.233-.326-.425-.558-.558l-9.477-5.416c-.72-.41-1.635-.16-2.046.559-.13.226-.198.483-.198.744z" transform="translate(0 300)"/>
            </g>
        </g>
    </g>
</svg>
