<svg xmlns="http://www.w3.org/2000/svg" xmlns:xlink="http://www.w3.org/1999/xlink" width="81" height="42" viewBox="0 0 81 42">
    <defs>
        <path id="wuvrgld91a" d="M0 0H80.769V42H0z"/>
    </defs>
    <g fill="none" fill-rule="evenodd">
        <g>
            <g>
                <g>
                    <g>
                        <g>
                            <g transform="translate(-310 -804) translate(310 804)">
                                <mask id="6rwbngdlnb" fill="#fff">
                                    <use xlink:href="#wuvrgld91a"/>
                                </mask>
                                <g mask="url(#6rwbngdlnb)">
                                    <g>
                                        <path fill="#03CF5D" d="M23.096 0l-6.063 15.346h5.154l.732-2.03h5.81l.733 2.03h5.153L28.553 0h-5.457zm2.728 4.835l1.728 4.794h-3.456l1.728-4.794zM51.648 0L51.648 15.346 63.736 15.346 63.736 11.585 56.528 11.585 56.528 9.516 63.511 9.516 63.511 5.83 56.528 5.83 56.528 3.761 63.586 3.761 63.586 0zM44.297 0L40.659 10.091 37.022 0 31.868 0 37.931 15.346 43.388 15.346 49.451 0zM10.432 0L10.432 8.213 4.728 0 0 0 0 15.346 4.953 15.346 4.953 7.133 10.657 15.346 15.385 15.346 15.385 0zM73.431 7.147h-2.624V3.912h2.624c.89 0 1.612.724 1.612 1.617s-.722 1.618-1.612 1.618zm3.33 2.935l.465-.195c1.777-.747 2.681-2.362 2.681-4.412 0-1.938-.705-3.373-2.095-4.262C76.521.385 74.845 0 72.54 0h-6.456v15.346h4.798v-4.288h1.724l2.924 4.288h5.098l-3.866-5.264z" transform="translate(0 13.73)"/>
                                    </g>
                                </g>
                            </g>
                        </g>
                    </g>
                </g>
            </g>
        </g>
    </g>
</svg>
