<svg width="703" height="588" viewBox="0 0 703 588" fill="none" xmlns="http://www.w3.org/2000/svg">
<path fill-rule="evenodd" clip-rule="evenodd" d="M348.392 473.47C342.709 473.47 337.795 472.478 341.596 469.982C350.215 465.049 355.07 461.641 356.16 459.759C358.628 455.046 360.516 440.393 361.828 415.799H442.909C444.22 440.393 446.11 455.046 448.577 459.759C449.666 461.639 454.521 465.049 463.141 469.982C466.943 472.478 462.027 473.47 456.345 473.47H348.392Z" fill="#EAEDF1"/>
<path fill-rule="evenodd" clip-rule="evenodd" d="M361.07 420.337H443.668V414.434H361.07V420.337Z" fill="#D9DDE2"/>
<path fill-rule="evenodd" clip-rule="evenodd" d="M596.896 128.699C601.467 128.699 603.126 129.175 604.796 130.069C606.468 130.964 607.779 132.276 608.673 133.948C609.568 135.621 610.043 137.279 610.043 141.854V401.391C610.043 405.964 609.567 407.623 608.673 409.295C607.78 410.968 606.468 412.28 604.796 413.175C603.125 414.07 601.467 414.545 596.896 414.545H207.842C203.27 414.545 201.611 414.07 199.942 413.175C198.27 412.28 196.958 410.968 196.065 409.296C195.17 407.623 194.695 405.965 194.695 401.391V141.854C194.695 137.28 195.171 135.621 196.065 133.95C196.958 132.276 198.27 130.964 199.942 130.069C201.613 129.175 203.271 128.699 207.842 128.699H596.896Z" fill="#EAEDF1"/>
<path fill-rule="evenodd" clip-rule="evenodd" d="M207.842 128.699H596.896C601.467 128.699 603.126 129.175 604.796 130.07C606.468 130.967 607.779 132.279 608.673 133.953C609.568 135.627 610.043 137.288 610.043 141.866V376.934H194.695V141.868C194.695 137.288 195.171 135.627 196.065 133.953C196.958 132.279 198.27 130.967 199.942 130.07C201.613 129.177 203.271 128.699 207.842 128.699" fill="#6C778B"/>
<path fill-rule="evenodd" clip-rule="evenodd" d="M596.897 128.699C601.468 128.699 603.126 129.175 604.797 130.071C606.468 130.967 607.779 132.279 608.673 133.953C609.568 135.627 610.043 137.288 610.043 141.867V376.934H194.695V141.868C194.695 137.288 195.171 135.627 196.065 133.953C196.957 132.279 198.27 130.967 199.941 130.071C201.613 129.177 203.27 128.699 207.842 128.699H596.897Z" fill="#BCC4CD"/>
<mask id="mask0_2_2150" style="mask-type:alpha" maskUnits="userSpaceOnUse" x="265" y="183" width="202" height="158">
<path fill-rule="evenodd" clip-rule="evenodd" d="M265.508 183.072H466.45V340.755H265.508V183.072Z" fill="white"/>
</mask>
<g mask="url(#mask0_2_2150)">
<path fill-rule="evenodd" clip-rule="evenodd" d="M466.02 340.755H265.939C265.701 340.755 265.508 340.563 265.508 340.325V183.502C265.508 183.265 265.701 183.072 265.939 183.072H466.02C466.258 183.072 466.45 183.265 466.45 183.502V340.325C466.45 340.563 466.258 340.755 466.02 340.755" fill="#E2E2E2"/>
</g>
<mask id="mask1_2_2150" style="mask-type:alpha" maskUnits="userSpaceOnUse" x="265" y="183" width="202" height="13">
<path fill-rule="evenodd" clip-rule="evenodd" d="M265.508 183.072H466.45V195.128H265.508V183.072Z" fill="white"/>
</mask>
<g mask="url(#mask1_2_2150)">
<path fill-rule="evenodd" clip-rule="evenodd" d="M466.45 195.128H265.508V183.502C265.508 183.264 265.701 183.072 265.939 183.072H466.02C466.258 183.072 466.45 183.264 466.45 183.502V195.128Z" fill="#C2C4C6"/>
</g>
<mask id="mask2_2_2150" style="mask-type:alpha" maskUnits="userSpaceOnUse" x="265" y="183" width="276" height="158">
<path fill-rule="evenodd" clip-rule="evenodd" d="M265.508 340.755H540.591V183.072H265.508V340.755Z" fill="white"/>
</mask>
<g mask="url(#mask2_2_2150)">
<rect x="265.508" y="183.072" width="201.546" height="12.234" fill="#9A9D9F"/>
<path fill-rule="evenodd" clip-rule="evenodd" d="M274.542 331.519H343.477V204.419H274.542V331.519Z" fill="#F2F2F2"/>
<path fill-rule="evenodd" clip-rule="evenodd" d="M354.712 211.673H451.969V204.419H354.712V211.673Z" fill="#C3C3C3"/>
<path fill-rule="evenodd" clip-rule="evenodd" d="M354.712 225.631H451.969V218.377H354.712V225.631Z" fill="#C3C3C3"/>
<path fill-rule="evenodd" clip-rule="evenodd" d="M354.712 331.652H451.969V232.335H354.712V331.652Z" fill="#C3C3C3"/>
<path fill-rule="evenodd" clip-rule="evenodd" d="M315.883 220.382H294.277C294.158 220.382 294.062 220.286 294.062 220.167V217.53C294.062 217.412 294.158 217.315 294.277 217.315H315.883C316.002 217.315 316.098 217.412 316.098 217.53V220.167C316.098 220.286 316.002 220.382 315.883 220.382" fill="#CCCCCC"/>
<path fill-rule="evenodd" clip-rule="evenodd" d="M284.365 216.272L283.274 214.449H280.568V221.351H287.658V216.272H284.365Z" fill="#CCCCCC"/>
<path fill-rule="evenodd" clip-rule="evenodd" d="M321.363 233.198H303.651C303.532 233.198 303.435 233.101 303.435 232.983V230.346C303.435 230.227 303.532 230.131 303.651 230.131H321.363C321.482 230.131 321.578 230.227 321.578 230.346V232.983C321.578 233.101 321.482 233.198 321.363 233.198" fill="#CCCCCC"/>
<path fill-rule="evenodd" clip-rule="evenodd" d="M294.848 229.087L293.756 227.264H291.051V234.168H298.141V229.087H294.848Z" fill="#CCCCCC"/>
<path fill-rule="evenodd" clip-rule="evenodd" d="M321.363 246.013H303.651C303.532 246.013 303.435 245.917 303.435 245.798V243.161C303.435 243.043 303.532 242.946 303.651 242.946H321.363C321.482 242.946 321.578 243.043 321.578 243.161V245.798C321.578 245.917 321.482 246.013 321.363 246.013" fill="#CCCCCC"/>
<path fill-rule="evenodd" clip-rule="evenodd" d="M295.31 241.904L294.221 240.08H291.513V246.984H298.606V241.904H295.31Z" fill="#CCCCCC"/>
<path fill-rule="evenodd" clip-rule="evenodd" d="M333.951 258.829H313.825C313.707 258.829 313.61 258.733 313.61 258.614V255.977C313.61 255.858 313.707 255.762 313.825 255.762H333.951C334.07 255.762 334.166 255.859 334.166 255.977V258.614C334.166 258.733 334.07 258.829 333.951 258.829" fill="#CCCCCC"/>
<path fill-rule="evenodd" clip-rule="evenodd" d="M305.022 254.72L303.933 252.896H301.225V259.799H308.316V254.72H305.022Z" fill="#CCCCCC"/>
<path fill-rule="evenodd" clip-rule="evenodd" d="M333.951 271.646H313.825C313.707 271.646 313.61 271.55 313.61 271.431V268.794C313.61 268.675 313.707 268.579 313.825 268.579H333.951C334.07 268.579 334.166 268.675 334.166 268.794V271.431C334.166 271.55 334.07 271.646 333.951 271.646" fill="#CCCCCC"/>
<path fill-rule="evenodd" clip-rule="evenodd" d="M305.022 267.535L303.933 265.712H301.225V272.615H308.316V267.535H305.022Z" fill="#CCCCCC"/>
<path fill-rule="evenodd" clip-rule="evenodd" d="M333.951 284.462H313.825C313.707 284.462 313.61 284.365 313.61 284.247V281.61C313.61 281.491 313.707 281.395 313.825 281.395H333.951C334.07 281.395 334.166 281.491 334.166 281.61V284.247C334.166 284.365 334.07 284.462 333.951 284.462" fill="#CCCCCC"/>
<path fill-rule="evenodd" clip-rule="evenodd" d="M305.022 280.351L303.933 278.529H301.225V285.432H308.316V280.351H305.022Z" fill="#CCCCCC"/>
<path fill-rule="evenodd" clip-rule="evenodd" d="M333.951 297.279H313.825C313.707 297.279 313.61 297.182 313.61 297.064V294.427C313.61 294.308 313.707 294.212 313.825 294.212H333.951C334.07 294.212 334.166 294.308 334.166 294.427V297.064C334.166 297.182 334.07 297.279 333.951 297.279" fill="#CCCCCC"/>
<path fill-rule="evenodd" clip-rule="evenodd" d="M305.022 293.166L303.933 291.345H301.225V298.247H308.316V293.166H305.022Z" fill="#CCCCCC"/>
<path fill-rule="evenodd" clip-rule="evenodd" d="M333.951 310.094H313.825C313.707 310.094 313.61 309.998 313.61 309.879V307.242C313.61 307.123 313.707 307.027 313.825 307.027H333.951C334.07 307.027 334.166 307.123 334.166 307.242V309.879C334.166 309.997 334.07 310.094 333.951 310.094" fill="#CCCCCC"/>
<path fill-rule="evenodd" clip-rule="evenodd" d="M305.022 305.984L303.933 304.161H301.225V311.064H308.316V305.984H305.022Z" fill="#CCCCCC"/>
<path fill-rule="evenodd" clip-rule="evenodd" d="M333.951 322.91H313.825C313.707 322.91 313.61 322.813 313.61 322.695V320.058C313.61 319.939 313.707 319.843 313.825 319.843H333.951C334.07 319.843 334.166 319.939 334.166 320.058V322.695C334.166 322.813 334.07 322.91 333.951 322.91" fill="#CCCCCC"/>
<path fill-rule="evenodd" clip-rule="evenodd" d="M305.022 318.799L303.933 316.976H301.225V323.881H308.316V318.799H305.022Z" fill="#CCCCCC"/>
<path fill-rule="evenodd" clip-rule="evenodd" d="M283.42 323.206H284.189V223.758H283.42V323.206Z" fill="#C8CACC"/>
<path fill-rule="evenodd" clip-rule="evenodd" d="M294.441 256.777H297.835V256.011H294.441V256.777Z" fill="#C8CACC"/>
<path fill-rule="evenodd" clip-rule="evenodd" d="M294.441 269.616H297.835V268.849H294.441V269.616Z" fill="#C8CACC"/>
<path fill-rule="evenodd" clip-rule="evenodd" d="M294.441 282.455H297.835V281.688H294.441V282.455Z" fill="#C8CACC"/>
<path fill-rule="evenodd" clip-rule="evenodd" d="M294.441 295.295H297.835V294.528H294.441V295.295Z" fill="#C8CACC"/>
<path fill-rule="evenodd" clip-rule="evenodd" d="M294.441 308.132H297.835V307.366H294.441V308.132Z" fill="#C8CACC"/>
<path fill-rule="evenodd" clip-rule="evenodd" d="M283.651 231.838H287.04V231.071H283.651V231.838Z" fill="#C8CACC"/>
<path fill-rule="evenodd" clip-rule="evenodd" d="M283.651 244.676H287.04V243.909H283.651V244.676Z" fill="#C8CACC"/>
<path fill-rule="evenodd" clip-rule="evenodd" d="M297.937 320.972H293.903V251.948H294.671V320.205H297.937V320.972Z" fill="#C8CACC"/>
<path fill-rule="evenodd" clip-rule="evenodd" d="M540.027 319.831H368.206C367.895 319.831 367.642 319.579 367.642 319.268V210.502C367.642 209.79 368.22 209.213 368.933 209.213H540.027C540.339 209.213 540.592 209.465 540.592 209.776V319.268C540.592 319.579 540.339 319.831 540.027 319.831" fill="#F1F5FC"/>
<path fill-rule="evenodd" clip-rule="evenodd" d="M540.592 221.27H367.643V209.776C367.643 209.465 367.895 209.212 368.207 209.212H540.028C540.339 209.212 540.592 209.465 540.592 209.776V221.27Z" fill="#515151"/>
<path fill-rule="evenodd" clip-rule="evenodd" d="M381.199 308.844H443.058V234.597H381.199V308.844Z" fill="white"/>
<path fill-rule="evenodd" clip-rule="evenodd" d="M434.719 288.761C432.505 286.264 421.683 282.281 420.906 281.997C420.91 281.98 420.918 281.963 420.922 281.946C421.086 281.223 420.119 280.261 419.607 279.186C419.607 279.186 419.322 278.393 417.9 278.45L411.891 283.622L406.031 278.45C404.609 278.393 404.325 279.186 404.325 279.186C403.824 280.238 402.89 281.181 403.003 281.898L402.943 281.981C402.943 281.981 391.381 286.171 389.084 288.761C389.084 288.761 384.123 293.017 383.985 303.325C383.985 303.325 386.94 306.391 411.672 306.771L411.902 306.772C411.979 306.772 412.053 306.772 412.131 306.772V306.771C437.246 306.239 439.818 303.325 439.818 303.325C439.735 293.352 434.719 288.761 434.719 288.761" fill="#BCF4E3"/>
<path fill-rule="evenodd" clip-rule="evenodd" d="M414.772 287.343L412.07 284.249L409.368 287.343C409.368 287.343 409.964 289.089 410.29 289.79C410.29 289.79 409.203 301.558 408.807 306.705C409.8 306.732 410.835 306.754 411.914 306.771V306.772C411.987 306.772 412.058 306.771 412.131 306.771C412.204 306.771 412.275 306.772 412.348 306.772V306.771C413.387 306.749 414.382 306.722 415.341 306.692C415.049 301.784 413.85 289.79 413.85 289.79C414.175 289.089 414.772 287.343 414.772 287.343" fill="#77BCDF"/>
<path fill-rule="evenodd" clip-rule="evenodd" d="M417.8 249.893C419.233 250.132 420.611 251.901 420.611 251.901C420.611 251.901 422.786 254.676 422.018 261.136C422.018 261.136 421.946 261.998 421.792 262.525L420.103 263.147" fill="black"/>
<path fill-rule="evenodd" clip-rule="evenodd" d="M405.261 251.421L403.163 251.52C403.163 251.52 400.988 254.675 401.755 261.136C401.755 261.136 401.73 264.104 401.884 264.104C402.037 264.104 405.21 264.008 405.21 264.008" fill="black"/>
<path fill-rule="evenodd" clip-rule="evenodd" d="M405.571 272.195V279.763L411.965 283.688L418.238 279.602V272.025" fill="white"/>
<path fill-rule="evenodd" clip-rule="evenodd" d="M404.675 266.692C403.879 266.862 402.981 266.773 402.981 266.773C401.612 266.73 400.34 266.1 399.693 264.813C399.209 263.851 399.094 262.543 399.765 261.636C400.297 260.918 401.677 260.379 403.011 261.115C403.011 261.115 404.218 261.757 404.407 262.285" fill="white"/>
<path fill-rule="evenodd" clip-rule="evenodd" d="M419.134 266.692C419.931 266.862 420.829 266.773 420.829 266.773C422.197 266.73 423.469 266.1 424.116 264.813C424.601 263.851 424.716 262.543 424.045 261.636C423.513 260.918 422.133 260.379 420.799 261.115C420.799 261.115 419.592 261.757 419.402 262.285" fill="white"/>
<path fill-rule="evenodd" clip-rule="evenodd" d="M411.905 248.544C411.905 248.544 416.503 248.498 419.122 252.263C420.948 254.889 421.1 258.585 420.935 261.654C420.935 261.654 420.705 265.405 420.54 267.38C420.503 267.822 420.435 268.368 420.373 268.73C419.947 271.197 418.687 273.263 416.556 274.445C416.556 274.445 414.696 275.815 411.905 275.815C409.113 275.815 407.253 274.445 407.253 274.445C405.122 273.263 403.862 271.197 403.436 268.73C403.374 268.368 403.307 267.822 403.27 267.38C403.104 265.405 402.874 261.654 402.874 261.654C402.71 258.585 402.861 254.889 404.687 252.263C407.306 248.498 411.905 248.544 411.905 248.544" fill="white"/>
<path fill-rule="evenodd" clip-rule="evenodd" d="M424.038 261.636C423.529 260.949 422.245 260.43 420.967 261.029C421.075 258.094 420.829 254.714 419.125 252.263C416.506 248.498 411.908 248.544 411.908 248.544C411.908 248.544 407.309 248.498 404.691 252.263C402.985 254.716 402.74 258.102 402.849 261.038C401.565 260.425 400.27 260.946 399.759 261.636C399.087 262.543 399.203 263.851 399.687 264.813C400.334 266.1 401.606 266.73 402.974 266.773C402.974 266.773 403.07 266.782 403.225 266.789C403.242 266.998 403.258 267.197 403.273 267.38C403.31 267.822 403.377 268.368 403.44 268.73C403.737 270.457 404.446 271.987 405.575 273.155V279.763L411.969 283.689L418.241 279.602V273.155C419.369 271.987 420.078 270.457 420.376 268.73C420.439 268.368 420.506 267.822 420.543 267.38C420.558 267.197 420.574 266.998 420.59 266.788C420.735 266.781 420.822 266.773 420.822 266.773C422.191 266.73 423.463 266.1 424.11 264.813C424.594 263.851 424.709 262.543 424.038 261.636Z" stroke="black" stroke-width="1.38145" stroke-linecap="round" stroke-linejoin="round"/>
<path fill-rule="evenodd" clip-rule="evenodd" d="M407.908 262.239C407.523 262.239 407.264 262.422 407.264 262.693V263.923C407.264 264.195 407.523 264.377 407.908 264.377C408.294 264.377 408.552 264.195 408.552 263.923V262.693C408.552 262.422 408.294 262.239 407.908 262.239" fill="black"/>
<path fill-rule="evenodd" clip-rule="evenodd" d="M415.908 262.239C415.523 262.239 415.264 262.422 415.264 262.693V263.923C415.264 264.195 415.523 264.377 415.908 264.377C416.294 264.377 416.553 264.195 416.553 263.923V262.693C416.553 262.422 416.294 262.239 415.908 262.239" fill="black"/>
<path d="M411.302 264.856C411.302 264.856 411.2 266.625 411.356 268.23" stroke="black" stroke-width="1.16892" stroke-linecap="round"/>
<path d="M414.317 270.252C414.317 270.252 413.543 270.71 411.908 270.71C410.273 270.71 409.499 270.252 409.499 270.252" stroke="black" stroke-width="1.16892" stroke-linecap="round"/>
<path fill-rule="evenodd" clip-rule="evenodd" d="M402.293 256.634L404.249 251.01L405.287 253.26C405.287 253.26 405.363 257.898 404.979 259.334C404.979 259.334 404.135 260.797 402.753 261.515C402.753 261.515 402.331 261.405 402.177 261.441" fill="black"/>
<path fill-rule="evenodd" clip-rule="evenodd" d="M421.408 256.131L419.541 251.225L418.487 253.259C418.487 253.259 418.41 257.898 418.794 259.334C418.794 259.334 419.638 260.797 421.02 261.515C421.02 261.515 421.182 261.476 421.6 261.44" fill="black"/>
<path fill-rule="evenodd" clip-rule="evenodd" d="M421.957 258.158C422.577 253.688 420.216 250.737 419.185 249.819C417.12 247.981 414.589 247.035 411.9 246.964C410.443 246.925 409.039 247.331 407.595 247.394C406.398 247.447 405.019 246.991 403.947 247.763C401.911 249.232 402.655 252.542 404.114 254.124C404.114 254.124 404.919 255.29 410.37 255.561C410.37 255.561 417.509 255.848 418.952 254.411" fill="black"/>
<path d="M405.558 278.45C404.532 278.403 404.324 279.187 404.324 279.187C403.955 279.864 403.168 281.117 403.003 281.898C403.003 281.898 391.381 286.171 389.084 288.761C389.084 288.761 384.291 292.85 383.985 303.325" stroke="black" stroke-width="1.38145" stroke-linecap="round" stroke-linejoin="round"/>
<path d="M418.245 278.45C419.271 278.402 419.479 279.186 419.479 279.186C419.848 279.864 420.635 281.116 420.8 281.898C420.8 281.898 432.422 286.171 434.719 288.761C434.719 288.761 439.512 292.85 439.818 303.324" stroke="black" stroke-width="1.38145" stroke-linecap="round" stroke-linejoin="round"/>
<path fill-rule="evenodd" clip-rule="evenodd" d="M461.854 242.674C461.854 245.202 459.804 247.25 457.272 247.25C454.741 247.25 452.691 245.202 452.691 242.674C452.691 240.148 454.741 238.099 457.272 238.099C459.804 238.099 461.854 240.148 461.854 242.674" fill="#CCD0D8"/>
<path fill-rule="evenodd" clip-rule="evenodd" d="M477.085 242.674C477.085 245.202 475.035 247.25 472.503 247.25C469.972 247.25 467.92 245.202 467.92 242.674C467.92 240.148 469.972 238.099 472.503 238.099C475.035 238.099 477.085 240.148 477.085 242.674" fill="#CCD0D8"/>
<path fill-rule="evenodd" clip-rule="evenodd" d="M492.315 242.674C492.315 245.202 490.264 247.25 487.734 247.25C485.203 247.25 483.151 245.202 483.151 242.674C483.151 240.148 485.203 238.099 487.734 238.099C490.264 238.099 492.315 240.148 492.315 242.674" fill="#CCD0D8"/>
<path fill-rule="evenodd" clip-rule="evenodd" d="M507.548 242.674C507.548 245.202 505.495 247.25 502.965 247.25C500.433 247.25 498.382 245.202 498.382 242.674C498.382 240.148 500.433 238.099 502.965 238.099C505.495 238.099 507.548 240.148 507.548 242.674" fill="#CCD0D8"/>
<path fill-rule="evenodd" clip-rule="evenodd" d="M522.778 242.674C522.778 245.202 520.725 247.25 518.195 247.25C515.664 247.25 513.612 245.202 513.612 242.674C513.612 240.148 515.664 238.099 518.195 238.099C520.725 238.099 522.778 240.148 522.778 242.674" fill="#CCD0D8"/>
<path fill-rule="evenodd" clip-rule="evenodd" d="M496.742 297.607H476.618C476.499 297.607 476.402 297.511 476.402 297.392V292.028C476.402 291.909 476.499 291.813 476.618 291.813H496.742C496.86 291.813 496.957 291.909 496.957 292.028V297.392C496.957 297.511 496.86 297.607 496.742 297.607" fill="#CCD0D8"/>
<path fill-rule="evenodd" clip-rule="evenodd" d="M526.072 297.607H504.887C504.768 297.607 504.671 297.511 504.671 297.392V292.028C504.671 291.909 504.768 291.813 504.887 291.813H526.072C526.191 291.813 526.288 291.909 526.288 292.028V297.392C526.288 297.511 526.191 297.607 526.072 297.607" fill="#CCD0D8"/>
<path fill-rule="evenodd" clip-rule="evenodd" d="M526.073 281.961H476.618C476.499 281.961 476.402 281.865 476.402 281.746V276.382C476.402 276.263 476.499 276.167 476.618 276.167H526.073C526.191 276.167 526.288 276.263 526.288 276.382V281.746C526.288 281.865 526.191 281.961 526.073 281.961" fill="#CCD0D8"/>
<path fill-rule="evenodd" clip-rule="evenodd" d="M526.073 266.179H452.347C452.228 266.179 452.132 266.083 452.132 265.964V260.6C452.132 260.481 452.228 260.385 452.347 260.385H526.073C526.191 260.385 526.288 260.481 526.288 260.6V265.964C526.288 266.083 526.191 266.179 526.073 266.179" fill="#CCD0D8"/>
<path fill-rule="evenodd" clip-rule="evenodd" d="M461.831 280.3C461.534 280.553 461.166 280.679 460.8 280.679C460.433 280.679 460.065 280.553 459.765 280.3L453.427 274.948V283.957C453.427 284.278 453.688 284.538 454.009 284.538H467.59C467.911 284.538 468.173 284.278 468.173 283.957V274.948L461.831 280.3Z" fill="#00CC54"/>
<path fill-rule="evenodd" clip-rule="evenodd" d="M461.268 278.868L467.518 273.59H454.078L460.329 278.868C460.602 279.097 460.998 279.097 461.268 278.868" fill="#00CC54"/>
<path fill-rule="evenodd" clip-rule="evenodd" d="M462.097 297.946C461.196 297.439 460.32 296.784 459.522 295.985C458.721 295.186 458.066 294.317 457.556 293.414L459.027 291.74C459.189 291.552 459.219 291.284 459.096 291.069L459.093 291.067C458.517 290.055 457.677 289.216 456.66 288.638L456.604 288.605C456.403 288.491 456.154 288.509 455.968 288.644C455.758 288.796 455.542 288.98 455.401 289.121C454.822 289.698 454.561 290.471 454.621 291.217V291.242C454.687 292.066 454.891 292.919 455.221 293.767C455.758 295.136 456.631 296.488 457.824 297.68C459.016 298.869 460.371 299.742 461.741 300.277C462.59 300.609 463.445 300.81 464.273 300.879C464.279 300.879 464.288 300.879 464.297 300.88C465.044 300.939 465.818 300.678 466.397 300.098C466.537 299.959 466.72 299.743 466.874 299.534C467.008 299.346 467.025 299.1 466.912 298.899L466.88 298.84C466.301 297.827 465.461 296.988 464.447 296.412H464.444C464.231 296.289 463.961 296.316 463.773 296.479L462.097 297.946Z" fill="#00CC54"/>
<path fill-rule="evenodd" clip-rule="evenodd" d="M377.996 317.886H445.182V302.145H377.996V317.886Z" fill="#F1F5FC"/>
<path fill-rule="evenodd" clip-rule="evenodd" d="M380.322 215.74C380.322 217.387 378.986 218.721 377.336 218.721C375.687 218.721 374.351 217.387 374.351 215.74C374.351 214.094 375.687 212.76 377.336 212.76C378.986 212.76 380.322 214.094 380.322 215.74" fill="#FB613F"/>
<path fill-rule="evenodd" clip-rule="evenodd" d="M391.448 215.74C391.448 217.387 390.114 218.721 388.464 218.721C386.814 218.721 385.479 217.387 385.479 215.74C385.479 214.094 386.814 212.76 388.464 212.76C390.114 212.76 391.448 214.094 391.448 215.74" fill="#FFC951"/>
<path fill-rule="evenodd" clip-rule="evenodd" d="M402.576 215.74C402.576 217.387 401.238 218.721 399.592 218.721C397.942 218.721 396.604 217.387 396.604 215.74C396.604 214.094 397.942 212.76 399.592 212.76C401.238 212.76 402.576 214.094 402.576 215.74" fill="#00C53C"/>
<path fill-rule="evenodd" clip-rule="evenodd" d="M276.654 188.941C276.654 190.587 275.316 191.921 273.669 191.921C272.019 191.921 270.685 190.587 270.685 188.941C270.685 187.294 272.019 185.96 273.669 185.96C275.316 185.96 276.654 187.294 276.654 188.941" fill="#C2C4C6"/>
<path fill-rule="evenodd" clip-rule="evenodd" d="M287.781 188.941C287.781 190.587 286.444 191.921 284.797 191.921C283.147 191.921 281.809 190.587 281.809 188.941C281.809 187.294 283.147 185.96 284.797 185.96C286.444 185.96 287.781 187.294 287.781 188.941" fill="#C2C4C6"/>
<path fill-rule="evenodd" clip-rule="evenodd" d="M298.909 188.941C298.909 190.587 297.571 191.921 295.923 191.921C294.275 191.921 292.937 190.587 292.937 188.941C292.937 187.294 294.275 185.96 295.923 185.96C297.571 185.96 298.909 187.294 298.909 188.941" fill="#C2C4C6"/>
<path fill-rule="evenodd" clip-rule="evenodd" d="M412.891 295.611H412.129H411.367L408.809 313.281H415.45L412.891 295.611Z" fill="#77BCDF"/>
<path fill-rule="evenodd" clip-rule="evenodd" d="M376.756 316.067H447.5V301.251H376.756V316.067Z" fill="#F1F5FC"/>
</g>
<mask id="mask3_2_2150" style="mask-type:alpha" maskUnits="userSpaceOnUse" x="0" y="200" width="305" height="388">
<rect y="200.723" width="304.432" height="387.277" fill="#E7FDF6"/>
</mask>
<g mask="url(#mask3_2_2150)">
<path d="M245.094 589.199H272.033C272.257 580.969 271.797 575.077 269.673 572.184C269.673 572.184 270.558 547.92 270.77 539.691C270.77 539.691 254.958 546.208 244.48 538.793C244.468 538.817 246.321 573.578 245.094 589.199Z" fill="white"/>
<path d="M243.288 537.07C243.288 537.07 243.595 517.623 243.595 515.155L108.985 515.58C108.985 515.58 108.985 533.279 108.985 538.628C108.985 538.628 106.105 567.001 107.333 589.222H245.153C246.38 566.989 243.288 537.07 243.288 537.07Z" fill="#355872"/>
<path d="M274.782 510.881C274.782 510.492 274.782 510.09 274.782 509.677C275.372 493.595 273.932 441.407 274.192 425.916C274.782 389.597 268.776 375.322 268.776 375.322C264.646 358.639 248.551 349.713 248.551 349.713C235.843 343.36 222.486 338.177 209.305 332.875L143.499 332.474C130.743 334.446 116.135 337.953 103.958 342.18C93.1495 345.922 82.1522 352.086 75.1668 363.35L75.2612 363.433L75.0252 363.551C75.7095 358.639 66.3524 388.145 66.3524 388.145C57.6206 390.129 50.2104 386.705 50.2104 386.705C44.2634 384.721 33.0419 376.113 33.0419 376.113C33.0419 376.113 23.2482 385.819 20.6405 399.008C20.6405 399.008 15.543 410.059 22.6936 424.346C22.6936 424.346 31.5552 450.948 66.0574 435.468C66.0574 435.468 97.9755 421.465 103.887 408.796L104.135 408.642C104.359 414.263 104.524 419.883 104.489 425.503C104.347 442.966 102.79 463.215 101.94 480.678C101.315 493.548 102.79 504.482 108.135 515.592C108.135 515.592 120.973 521.968 175.393 522.275C175.393 522.275 231.147 520.941 241.991 515.793L242.168 515.427C242.64 524.979 243.819 541.013 243.819 541.013C246.604 541.639 251.879 542.147 255.678 542.147C255.678 542.147 267.726 542.466 273.861 536.845C273.861 536.845 273.92 536.715 274.003 536.019L274.664 536.845C277.083 530.056 278.629 510.621 278.629 510.621C277.567 510.716 276.233 510.799 274.782 510.881Z" fill="#7EE5A3"/>
<path d="M116.584 537.991C116.584 537.991 133.221 542.312 176.231 542.737C176.231 542.737 215.689 542.82 241.908 536.255" stroke="black" stroke-width="2.95181" stroke-miterlimit="10" stroke-linecap="round" stroke-linejoin="round"/>
<path d="M128.808 542.82C127.982 535.417 129.327 520.303 129.327 520.303L137.965 521.236C137.965 521.236 137.139 534.496 137.552 543.138" fill="#355872"/>
<path d="M210.662 543.127C211.075 534.484 210.249 521.224 210.249 521.224L218.887 520.292C218.887 520.292 220.22 535.405 219.406 542.808" fill="#355872"/>
<path d="M56.6531 295.458C58.9658 294.691 63.6975 293.014 64.6887 290.535C67.615 283.261 57.9747 282.494 52.9244 285.21C43.9212 290.062 41.5023 296.379 43.1543 306.309C44.7354 317.42 50.0335 334.092 50.0335 334.092L33.8679 376.09C33.8679 376.09 53.0896 394.072 67.1784 388.121L80.3704 338.791C90.9548 326.618 93.9283 311.87 93.9283 311.87C96.8428 302.342 98.4947 289.507 98.4947 289.507C99.2263 282.033 97.9756 277.866 94.0817 277.653C90.6952 277.464 89.0314 280.617 88.465 283.226C87.7452 286.579 88.0284 291.456 88.642 294.797" fill="white"/>
<path d="M169.234 345.97C167.794 349.465 165.375 357.588 163.888 358.721C161.328 360.658 158.673 357.812 156.077 355.014C150.508 349.004 146.696 338.909 144.997 333.312C144.454 331.541 145.977 330.514 147.133 329.475C149.929 326.96 150.885 324.138 155.062 324.303" fill="#7EE5A3"/>
<path d="M169.234 345.97C167.794 349.465 165.375 357.588 163.888 358.721C161.328 360.658 158.673 357.812 156.077 355.014C150.508 349.004 146.696 338.909 144.997 333.312C144.454 331.541 145.977 330.514 147.133 329.475C149.929 326.96 150.885 324.138 155.062 324.303" stroke="black" stroke-width="2.95181" stroke-miterlimit="10" stroke-linecap="round" stroke-linejoin="round"/>
<path d="M186.084 345.97C187.724 349.11 189.116 355.427 190.709 357.482C193.753 361.402 196.585 358.214 199.028 355.014C201.695 351.519 208.35 338.909 210.049 333.312C210.592 331.541 209.069 330.514 207.913 329.475C205.117 326.96 204.161 324.138 199.984 324.303" fill="#7EE5A3"/>
<path d="M186.084 345.97C187.724 349.11 189.116 355.427 190.709 357.482C193.753 361.402 196.585 358.214 199.028 355.014C201.695 351.519 208.35 338.909 210.049 333.312C210.592 331.541 209.069 330.514 207.913 329.475C205.117 326.96 204.161 324.138 199.984 324.303" stroke="black" stroke-width="2.95181" stroke-miterlimit="10" stroke-linecap="round" stroke-linejoin="round"/>
<path d="M219.642 264.547C217.86 262.127 213.365 260.308 208.904 262.434C209.282 252.138 208.432 240.271 202.485 231.676C193.352 218.475 177.317 218.629 177.317 218.629C177.317 218.629 161.281 218.463 152.148 231.676C146.201 240.271 145.351 252.138 145.729 262.434C141.257 260.308 136.761 262.127 134.991 264.547C132.655 267.723 133.056 272.316 134.743 275.693C136.997 280.203 141.434 282.411 146.201 282.565C146.201 282.565 146.519 282.6 147.039 282.624C147.098 283.356 147.157 284.053 147.204 284.702C147.334 286.249 147.57 288.161 147.782 289.437C148.82 295.494 151.287 300.854 155.228 304.951V329.05L161.635 334.198L172.16 339.44C174.473 345.604 177.871 354.825 177.871 354.825L183.028 339.794L191.913 335.379L199.406 329.416V304.94C203.335 300.842 205.813 295.482 206.851 289.425C207.064 288.15 207.3 286.237 207.429 284.69C207.488 284.053 207.536 283.344 207.595 282.612C208.114 282.588 208.432 282.553 208.432 282.553C213.199 282.4 217.636 280.192 219.89 275.681C221.577 272.316 221.99 267.723 219.642 264.547Z" fill="white"/>
<path d="M166.189 312.095C162.095 310.501 158.295 308.08 155.345 305.058" stroke="black" stroke-width="2.95181" stroke-miterlimit="10" stroke-linecap="round" stroke-linejoin="round"/>
<path d="M199.406 304.94C203.335 300.842 205.813 295.482 206.851 289.425C207.064 288.15 207.3 286.237 207.429 284.69C207.488 284.053 207.536 283.344 207.595 282.612C208.102 282.588 208.409 282.553 208.409 282.553C213.176 282.4 217.612 280.192 219.866 275.681C221.554 272.304 221.955 267.723 219.618 264.535C217.848 262.127 213.365 260.308 208.904 262.41C209.282 252.114 208.42 240.26 202.485 231.676C193.352 218.475 177.317 218.629 177.317 218.629C177.317 218.629 161.281 218.463 152.148 231.676C146.201 240.283 145.351 252.149 145.729 262.445C141.245 260.296 136.737 262.115 134.956 264.535C132.619 267.711 133.021 272.304 134.708 275.681C136.962 280.192 141.398 282.4 146.165 282.553C146.165 282.553 146.496 282.588 147.039 282.612C147.098 283.344 147.157 284.041 147.204 284.69C147.334 286.237 147.57 288.15 147.782 289.425C148.82 295.482 151.286 300.842 155.228 304.94" stroke="black" stroke-width="2.95181" stroke-miterlimit="10" stroke-linecap="round" stroke-linejoin="round"/>
<path d="M199.394 327.55C199.394 327.55 200.279 332.002 184.715 338.885C183.795 339.287 183.087 340.054 182.744 340.987C181.446 344.529 176.526 361.225 175.393 369.006" stroke="black" stroke-width="2.95181" stroke-miterlimit="10" stroke-linecap="round" stroke-linejoin="round"/>
<path d="M163.381 267.015C162.343 267.015 161.493 267.452 161.493 268.254V272.564C161.493 273.367 162.343 273.804 163.381 273.804C164.419 273.804 165.269 273.367 165.269 272.564V268.254C165.269 267.452 164.419 267.015 163.381 267.015Z" fill="black"/>
<path d="M191.276 267.015C190.237 267.015 189.388 267.452 189.388 268.254V272.564C189.388 273.367 190.237 273.804 191.276 273.804C192.314 273.804 193.163 273.367 193.163 272.564V268.254C193.163 267.452 192.314 267.015 191.276 267.015Z" fill="black"/>
<path d="M175.216 275.835C175.216 275.835 174.862 282.033 175.405 287.666" stroke="black" stroke-width="2.95181" stroke-miterlimit="10" stroke-linecap="round" stroke-linejoin="round"/>
<path d="M155.239 328.105C155.239 328.105 154.602 331.836 170.272 338.708C171.133 339.086 171.818 339.783 172.184 340.656C173.446 343.644 176.373 350.964 177.647 357.482" stroke="black" stroke-width="2.95181" stroke-miterlimit="10" stroke-linecap="round" stroke-linejoin="round"/>
<path d="M155.239 304.94V328.105" stroke="black" stroke-width="3.60215" stroke-miterlimit="10" stroke-linecap="round" stroke-linejoin="round"/>
<path d="M199.406 327.55V304.94" stroke="black" stroke-width="3.60215" stroke-miterlimit="10" stroke-linecap="round" stroke-linejoin="round"/>
<path d="M144.348 254.416L145.788 265.409C160.136 257.262 161.375 237.792 161.375 237.792L144.348 254.416Z" fill="black"/>
<path d="M156.856 219.868C149.564 220.341 143.003 227.071 140.525 233.093C136.95 241.783 136.077 251.701 140.171 261.347L144.454 263.98C158.85 254.487 163.676 230.058 163.676 230.058L156.856 219.868Z" fill="black"/>
<path d="M214.226 232.845C210.851 224.438 203.158 218.05 195.099 214.071C183.523 208.368 165.375 207.837 155.051 219.857C150.708 224.91 158.649 238.725 158.649 238.725C159.711 248.513 168.726 262.988 178.39 262.292C183.299 261.938 183.7 256.872 182.402 250.685C187.795 256.896 195.783 263.083 206.568 263.968L213.506 262.481C217.766 253.649 217.837 241.865 214.226 232.845Z" fill="black"/>
<path d="M148.525 256.565L141.835 257.616C141.811 258.23 141.316 272.718 146.791 275.705C146.909 275.776 147.05 275.799 147.18 275.799C147.322 275.799 147.475 275.764 147.605 275.681C147.853 275.528 148.006 275.256 147.994 274.961C147.994 274.831 147.735 261.56 148.525 256.565Z" fill="black"/>
<path d="M212.68 257.616L205.99 256.565C206.78 261.56 206.521 274.831 206.521 274.961C206.509 275.256 206.662 275.528 206.91 275.681C207.04 275.764 207.193 275.799 207.335 275.799C207.465 275.799 207.606 275.764 207.724 275.705C213.199 272.718 212.704 258.23 212.68 257.616Z" fill="black"/>
<path d="M103.899 372.099C103.569 389.893 105.48 407.686 105.327 425.48C105.185 442.942 103.628 463.192 102.778 480.655C102.153 493.525 103.628 504.458 108.973 515.569" stroke="black" stroke-width="2.95181" stroke-miterlimit="10" stroke-linecap="round" stroke-linejoin="round"/>
<path d="M246.581 377.223C244.893 384.839 244.598 401.369 244.598 413.649C244.598 444.218 246.687 489.002 246.687 490.195C246.687 491.387 246.887 505.922 243.289 514.848" stroke="black" stroke-width="2.95181" stroke-miterlimit="10" stroke-linecap="round" stroke-linejoin="round"/>
<path d="M73.6564 365.145C80.6418 353.869 93.9754 345.911 104.772 342.156C116.949 337.941 131.569 334.422 144.313 332.45" stroke="black" stroke-width="2.95181" stroke-miterlimit="10" stroke-linecap="round" stroke-linejoin="round"/>
<path d="M68.1106 406.482C66.9189 416.4 65.9513 420.981 65.5147 422.752" stroke="black" stroke-width="2.95181" stroke-miterlimit="10" stroke-linecap="round" stroke-linejoin="round"/>
<path d="M104.725 408.784C98.8134 421.453 66.8953 435.457 66.8953 435.457C32.3812 450.936 23.5315 424.334 23.5315 424.334C16.3927 410.047 21.4783 398.996 21.4783 398.996C24.086 385.807 32.5346 375.618 32.5346 375.618C32.5346 375.618 42.3283 383.753 48.2754 385.736C48.2754 385.736 58.4585 390.105 67.1903 388.121" stroke="black" stroke-width="2.95181" stroke-miterlimit="10" stroke-linecap="round" stroke-linejoin="round"/>
<path d="M68.5471 307.903C68.5471 307.903 64.842 311.87 63.7918 317.963" stroke="black" stroke-width="2.95181" stroke-miterlimit="10" stroke-linecap="round" stroke-linejoin="round"/>
<path d="M187.511 293.746C187.511 293.746 185.022 296.367 177.317 296.367C169.611 296.367 167.122 293.746 167.122 293.746" stroke="black" stroke-width="2.95181" stroke-miterlimit="10" stroke-linecap="round"/>
<path d="M81.5975 309.355L55.5911 303.735C53.6795 303.322 52.4642 301.433 52.8771 299.52L64.2284 246.966C64.6414 245.053 66.5294 243.837 68.4409 244.25L94.4474 249.871C96.3589 250.284 97.5743 252.173 97.1613 254.086L85.81 306.64C85.397 308.553 83.5091 309.769 81.5975 309.355Z" fill="#E8E8E8"/>
<path d="M81.5975 309.355L55.5911 303.735C53.6795 303.322 52.4642 301.433 52.8771 299.52L64.2284 246.966C64.6414 245.053 66.5294 243.837 68.4409 244.25L94.4474 249.871C96.3589 250.284 97.5743 252.173 97.1613 254.086L85.81 306.64C85.397 308.553 83.5091 309.769 81.5975 309.355Z" stroke="black" stroke-width="2.95181" stroke-miterlimit="10" stroke-linecap="round" stroke-linejoin="round"/>
<path d="M48.9833 273.757C45.8091 268.644 64.96 257.061 66.317 264.429C66.966 267.936 65.0308 270.947 63.0013 272.163" fill="white"/>
<path d="M48.9833 273.757C45.8091 268.644 64.96 257.061 66.317 264.429C66.966 267.936 65.0308 270.947 63.0013 272.163" stroke="black" stroke-width="2.95181" stroke-miterlimit="10" stroke-linecap="round" stroke-linejoin="round"/>
<path d="M88.0521 294.207C87.4385 290.865 87.7453 285.977 88.465 282.636C89.0314 280.014 90.294 277.275 94.0817 277.653C97.952 278.043 99.2145 282.033 98.4948 289.507C98.4948 289.507 100.737 285.599 97.834 295.128" fill="white"/>
<path d="M88.6537 294.797C88.0401 291.456 87.757 286.567 88.4767 283.226C89.0431 280.605 90.7069 277.464 94.0934 277.653C97.9755 277.866 99.2262 282.034 98.5065 289.507C98.5065 289.507 96.8545 302.342 93.94 311.87C93.94 311.87 90.9665 326.618 80.3822 338.791L67.1901 388.121" stroke="black" stroke-width="2.95181" stroke-miterlimit="10" stroke-linecap="round" stroke-linejoin="round"/>
<path d="M45.0068 289.378C45.0068 289.378 41.8326 283.557 46.0687 278.527C48.5821 275.54 58.9068 267.64 62.9895 272.174C66.5648 276.13 59.308 282.376 56.1221 283.698" fill="white"/>
<path d="M45.0068 289.378C45.0068 289.378 41.8326 283.557 46.0687 278.527C48.5821 275.54 58.9068 267.64 62.9895 272.174C66.5648 276.13 59.308 282.376 56.1221 283.698" stroke="black" stroke-width="2.95181" stroke-miterlimit="10" stroke-linecap="round" stroke-linejoin="round"/>
<path d="M42.8947 300.276C42.7649 294.667 43.933 290.062 52.9244 285.21C57.9628 282.494 66.4114 283.261 63.4851 290.535C62.4821 293.014 55.3197 297.572 51.355 297.843" fill="white"/>
<path d="M33.8797 376.102L50.0453 334.103C50.0453 334.103 44.759 317.432 43.166 306.321C41.5141 296.391 43.933 290.074 52.9362 285.221C57.9746 282.506 65.8332 282.683 62.9069 289.944C61.9039 292.424 58.5764 296.32 51.9686 298.446" stroke="black" stroke-width="2.95181" stroke-miterlimit="10" stroke-linecap="round" stroke-linejoin="round"/>
<path d="M108.985 515.569C108.985 515.569 121.823 521.945 176.243 522.252C176.243 522.252 231.996 520.917 242.84 515.769" stroke="black" stroke-width="2.95181" stroke-miterlimit="10" stroke-linecap="round" stroke-linejoin="round"/>
<path d="M245.141 589.199C246.38 566.989 243.288 537.058 243.288 537.058C243.288 537.058 243.595 517.611 243.595 515.144" stroke="black" stroke-width="2.95181" stroke-miterlimit="10" stroke-linecap="round" stroke-linejoin="round"/>
<path d="M272.032 589.199C272.257 580.969 271.796 575.077 269.673 572.184C269.673 572.184 270.558 547.92 270.77 539.691" stroke="black" stroke-width="2.95181" stroke-miterlimit="10" stroke-linecap="round" stroke-linejoin="round"/>
<path d="M275.596 509.677C276.186 493.595 274.145 441.407 274.392 425.916C274.982 389.597 269.59 375.322 269.59 375.322C265.46 358.639 249.365 349.713 249.365 349.713C236.657 343.36 223.3 338.177 210.12 332.875" stroke="black" stroke-width="2.95181" stroke-miterlimit="10" stroke-linecap="round" stroke-linejoin="round"/>
<path d="M244.669 540.99C247.454 541.615 252.728 542.123 256.528 542.123C256.528 542.123 268.575 542.442 274.711 536.822" stroke="black" stroke-width="2.95181" stroke-miterlimit="10" stroke-linecap="round" stroke-linejoin="round"/>
<path d="M108.985 515.569C108.985 515.569 108.985 533.268 108.985 538.616C108.985 538.616 106.105 566.989 107.333 589.21" stroke="black" stroke-width="2.95181" stroke-miterlimit="10" stroke-linecap="round" stroke-linejoin="round"/>
<path d="M137.953 521.236C137.953 521.236 137.127 534.496 137.54 543.139" stroke="black" stroke-width="2.95181" stroke-miterlimit="10" stroke-linecap="round" stroke-linejoin="round"/>
<path d="M129.328 520.303C129.328 520.303 127.994 535.417 128.808 542.82" stroke="black" stroke-width="3.54217" stroke-miterlimit="10" stroke-linecap="round" stroke-linejoin="round"/>
<path d="M210.249 521.236C210.249 521.236 211.076 534.496 210.663 543.139" stroke="black" stroke-width="2.95181" stroke-miterlimit="10" stroke-linecap="round" stroke-linejoin="round"/>
<path d="M218.887 520.303C218.887 520.303 220.221 535.417 219.406 542.82" stroke="black" stroke-width="2.95181" stroke-miterlimit="10" stroke-linecap="round" stroke-linejoin="round"/>
<path d="M195.594 409.563C195.288 421.441 195.783 439.329 195.783 439.329C200.184 441.844 208.845 443.344 213.931 443.615C214.686 443.663 215.418 443.757 216.173 443.757C228.976 443.627 234.592 438.09 234.592 438.09C235.029 432.717 234.639 403.613 234.639 403.613C234.639 403.613 204.267 403.306 196.161 403.683" stroke="black" stroke-width="2.95181" stroke-miterlimit="10" stroke-linecap="round" stroke-linejoin="round"/>
<path d="M201.954 415.455C201.954 415.455 221.341 415.077 228.574 415.125" stroke="black" stroke-width="2.95181" stroke-miterlimit="10" stroke-linecap="round" stroke-linejoin="round"/>
<path d="M38.5052 390.908C38.5052 390.908 39.4256 402.94 41.2781 408.489C41.2781 408.489 55.5085 410.685 71.0605 404.498C71.0605 404.498 70.8717 396.15 69.0309 392.136" stroke="black" stroke-width="2.95181" stroke-miterlimit="10" stroke-linecap="round" stroke-linejoin="round"/>
<path d="M254.121 511.318C254.121 511.318 270.463 511.011 278.688 510.598C278.688 510.598 277.142 530.032 274.723 536.822" stroke="black" stroke-width="2.95181" stroke-miterlimit="10" stroke-linecap="round" stroke-linejoin="round"/>
<path d="M173.093 383.965C173.093 383.965 172.172 470.193 173.093 488.695" stroke="black" stroke-width="2.95181" stroke-miterlimit="10" stroke-linecap="round" stroke-linejoin="round"/>
<path fill-rule="evenodd" clip-rule="evenodd" d="M53.2866 298.53C52.8219 300.291 53.9729 302.077 55.8575 302.52L81.1536 308.455C83.0388 308.898 84.9433 307.829 85.4086 306.067L86.1101 303.41L53.9881 295.873L53.2866 298.53Z" fill="black"/>
<path fill-rule="evenodd" clip-rule="evenodd" d="M96.6771 255.153C97.0885 253.295 95.8781 251.462 93.9736 251.06L68.4096 245.669C66.5045 245.267 64.6264 246.449 64.215 248.307L63.7183 250.551L96.1805 257.398L96.6771 255.153Z" fill="black"/>
<path fill-rule="evenodd" clip-rule="evenodd" d="M83.6053 268.899L72.1186 266.536C70.2622 266.154 68.4465 267.34 68.063 269.186L65.6913 280.602C65.3078 282.447 66.5021 284.252 68.3585 284.634L79.8452 286.997C81.7021 287.379 83.5173 286.193 83.9008 284.347L86.2725 272.931C86.656 271.086 85.4622 269.281 83.6053 268.899" fill="white"/>
<path fill-rule="evenodd" clip-rule="evenodd" d="M71.2706 281.037L73.322 281.459C73.4289 281.48 73.5371 281.43 73.5883 281.334L78.111 272.823C78.1872 272.68 78.1037 272.504 77.9439 272.472L75.8924 272.05C75.7856 272.028 75.6774 272.078 75.6262 272.174L71.1035 280.685C71.0278 280.828 71.1108 281.004 71.2706 281.037" fill="#006D2F"/>
<path fill-rule="evenodd" clip-rule="evenodd" d="M76.7845 282.171L78.836 282.593C78.9428 282.614 79.051 282.564 79.1022 282.468L83.6249 273.957C83.7011 273.814 83.6176 273.638 83.4578 273.606L81.4064 273.184C81.2995 273.162 81.1913 273.212 81.1401 273.308L76.6174 281.819C76.5417 281.962 76.6247 282.138 76.7845 282.171" fill="#88E518"/>
<path fill-rule="evenodd" clip-rule="evenodd" d="M73.3225 281.459L71.0407 280.989C70.9344 280.967 70.8548 280.878 70.8463 280.77L70.0855 271.173C70.0725 271.011 70.2193 270.882 70.379 270.916L72.6608 271.385C72.7671 271.407 72.8467 271.496 72.8552 271.604L73.616 281.201C73.629 281.363 73.4822 281.491 73.3225 281.459" fill="#7EE5A3"/>
<path fill-rule="evenodd" clip-rule="evenodd" d="M78.8362 282.592L76.5544 282.123C76.4481 282.101 76.3685 282.012 76.36 281.904L75.5993 272.307C75.5863 272.145 75.733 272.016 75.8928 272.049L78.1746 272.519C78.2814 272.541 78.3605 272.63 78.369 272.738L79.1297 282.335C79.1427 282.496 78.996 282.625 78.8362 282.592" fill="#00C63B"/>
</g>
<g filter="url(#filter0_d_2_2150)">
<path fill-rule="evenodd" clip-rule="evenodd" d="M607.983 97.2783C608.065 97.3225 608.146 97.3663 608.216 97.4414L619.684 109.341C623.53 113.342 624.409 120.544 621.653 125.352L611.598 142.859C608.832 147.657 602.179 150.496 596.818 149.152L580.837 145.122C580.674 145.078 580.549 145.005 580.422 144.931C580.314 144.868 580.205 144.804 580.07 144.758C576.9 147.001 573.488 148.92 569.924 150.566C569.905 150.662 569.906 150.749 569.908 150.836C569.909 150.933 569.911 151.031 569.884 151.142L565.351 167.073C563.837 172.406 558.072 176.78 552.55 176.78H532.441C526.918 176.78 521.144 172.406 519.63 167.073L515.107 151.142C515.055 150.97 515.059 150.808 515.063 150.647C515.066 150.524 515.068 150.4 515.046 150.273C511.493 148.597 508.121 146.627 504.971 144.364C504.879 144.392 504.806 144.436 504.734 144.48C504.647 144.533 504.562 144.584 504.446 144.606L488.455 148.637C483.095 149.991 476.452 147.152 473.676 142.344L463.631 124.847C460.865 120.039 461.753 112.836 465.6 108.836L477.048 96.9363C477.174 96.8045 477.313 96.728 477.452 96.6514C477.558 96.593 477.664 96.5345 477.765 96.4514C477.603 94.623 477.482 92.7946 477.482 90.9157C477.482 88.8145 477.603 86.7436 477.795 84.7031C477.726 84.6339 477.649 84.5913 477.574 84.5493C477.495 84.5054 477.418 84.4622 477.351 84.3899L465.892 72.4901C462.046 68.4898 461.158 61.2873 463.924 56.4788L473.979 38.9826C476.735 34.1742 483.388 31.3457 488.738 32.6791L504.729 36.7097C504.895 36.7541 505.022 36.829 505.15 36.9042C505.254 36.9659 505.359 37.0279 505.486 37.0734C508.676 34.8409 512.078 32.9115 515.652 31.275C515.671 31.1737 515.668 31.0839 515.664 30.9957C515.66 30.8992 515.656 30.8047 515.682 30.6992L520.215 14.7687C521.729 9.42491 527.494 5.05086 533.026 5.05086H553.126C558.658 5.05086 564.422 9.42491 565.937 14.7687L570.469 30.6992C570.513 30.8609 570.51 31.011 570.507 31.1605C570.504 31.2911 570.502 31.4212 570.53 31.5578C574.084 33.2347 577.455 35.2046 580.605 37.4673C580.699 37.4391 580.773 37.3934 580.846 37.3485C580.93 37.2969 581.012 37.2465 581.12 37.2249L597.111 33.1943C602.471 31.8407 609.114 34.6793 611.89 39.4877L621.935 56.994C624.691 61.7923 623.813 69.005 619.977 72.9952L608.508 84.9051C608.387 85.0265 608.257 85.0997 608.127 85.1724C608.02 85.2328 607.913 85.2928 607.812 85.3799C607.963 87.2083 608.095 89.0468 608.095 90.9157C608.095 93.0168 607.973 95.0877 607.772 97.1383C607.838 97.1999 607.911 97.2393 607.983 97.2783ZM517.55 90.9156C517.55 104.866 528.847 116.17 542.788 116.17C556.73 116.17 568.026 104.866 568.026 90.9156C568.026 76.9651 556.73 65.6613 542.788 65.6613C528.847 65.6613 517.55 76.9651 517.55 90.9156Z" fill="#7EE5A3"/>
</g>
<g filter="url(#filter1_d_2_2150)">
<path fill-rule="evenodd" clip-rule="evenodd" d="M662.911 261.635C662.945 261.682 662.98 261.728 662.999 261.789L666.349 271.534C667.471 274.807 666.072 279.109 663.25 281.1L652.963 288.344C650.138 290.327 645.632 290.179 642.956 288.007L634.986 281.521C634.905 281.453 634.853 281.379 634.801 281.303C634.757 281.239 634.712 281.175 634.648 281.113C632.267 281.545 629.834 281.731 627.387 281.723C627.351 281.772 627.329 281.821 627.307 281.871C627.282 281.926 627.257 281.981 627.213 282.038L620.461 289.846C618.202 292.461 613.794 293.414 610.674 291.96L599.31 286.663C596.19 285.208 594.077 281.216 594.625 277.803L596.259 267.61C596.276 267.499 596.32 267.409 596.365 267.318C596.399 267.249 596.433 267.18 596.454 267.103C594.887 265.219 593.5 263.218 592.315 261.11C592.256 261.101 592.203 261.107 592.15 261.113C592.088 261.12 592.026 261.127 591.955 261.109L581.858 259.174C578.473 258.527 575.466 255.174 575.162 251.725L574.089 239.193C573.791 235.747 576.187 231.911 579.413 230.664L589.012 226.955C589.118 226.913 589.217 226.907 589.316 226.9C589.391 226.895 589.466 226.89 589.545 226.87C589.935 225.794 590.347 224.729 590.841 223.667C591.394 222.48 592.007 221.341 592.652 220.239C592.632 220.181 592.6 220.137 592.568 220.094C592.535 220.048 592.503 220.003 592.484 219.945L589.139 210.203C588.018 206.929 589.411 202.625 592.239 200.636L602.523 193.398C605.345 191.407 609.849 191.561 612.521 193.724L620.497 200.213C620.58 200.282 620.632 200.358 620.684 200.434C620.727 200.496 620.769 200.559 620.829 200.618C623.219 200.197 625.649 200.003 628.099 200.019C628.137 199.967 628.158 199.915 628.179 199.864C628.203 199.809 628.225 199.754 628.268 199.702L635.02 191.894C637.281 189.273 641.689 188.32 644.815 189.777L656.173 195.071C659.299 196.528 661.406 200.518 660.856 203.936L659.227 214.132C659.209 214.235 659.167 214.319 659.127 214.403C659.091 214.476 659.055 214.549 659.035 214.633C660.602 216.517 661.989 218.518 663.174 220.627C663.234 220.635 663.288 220.629 663.341 220.623C663.402 220.616 663.462 220.609 663.529 220.625L673.625 222.559C677.01 223.206 680.017 226.56 680.321 230.008L681.392 242.547C681.687 245.984 679.293 249.828 676.076 251.073L666.463 254.782C666.362 254.819 666.269 254.826 666.177 254.833C666.1 254.838 666.024 254.844 665.944 254.867C665.549 255.94 665.139 257.013 664.648 258.069C664.095 259.257 663.482 260.395 662.828 261.501C662.849 261.553 662.88 261.594 662.911 261.635ZM613.483 234.221C609.813 242.104 613.223 251.467 621.101 255.139C628.979 258.811 638.336 255.399 642.006 247.516C645.676 239.633 642.266 230.27 634.388 226.598C626.51 222.925 617.153 226.338 613.483 234.221Z" fill="#E5E5E5"/>
</g>
<mask id="path-153-outside-1_2_2150" maskUnits="userSpaceOnUse" x="67.798" y="144.59" width="159" height="63" fill="black">
<rect fill="white" x="67.798" y="144.59" width="159" height="63"/>
<path fill-rule="evenodd" clip-rule="evenodd" d="M95.0028 147.59C81.6348 147.59 70.798 158.427 70.798 171.795C70.798 185.163 81.6348 196 95.0028 196H124.262L131.872 204.37C132.598 205.168 133.926 204.654 133.926 203.575V196H199.989C213.357 196 224.194 185.163 224.194 171.795C224.194 158.427 213.357 147.59 199.989 147.59H95.0028Z"/>
</mask>
<path fill-rule="evenodd" clip-rule="evenodd" d="M95.0028 147.59C81.6348 147.59 70.798 158.427 70.798 171.795C70.798 185.163 81.6348 196 95.0028 196H124.262L131.872 204.37C132.598 205.168 133.926 204.654 133.926 203.575V196H199.989C213.357 196 224.194 185.163 224.194 171.795C224.194 158.427 213.357 147.59 199.989 147.59H95.0028Z" fill="white"/>
<path d="M124.262 196L126.009 194.411L125.306 193.639H124.262V196ZM131.872 204.37L133.619 202.781V202.781L131.872 204.37ZM133.926 196V193.639H131.565V196H133.926ZM73.1594 171.795C73.1594 159.731 82.939 149.952 95.0028 149.952V145.229C80.3307 145.229 68.4365 157.123 68.4365 171.795H73.1594ZM95.0028 193.639C82.939 193.639 73.1594 183.859 73.1594 171.795H68.4365C68.4365 186.467 80.3306 198.361 95.0028 198.361V193.639ZM124.262 193.639H95.0028V198.361H124.262V193.639ZM133.619 202.781L126.009 194.411L122.515 197.589L130.125 205.958L133.619 202.781ZM131.565 203.575C131.565 202.496 132.893 201.983 133.619 202.781L130.125 205.958C132.303 208.354 136.288 206.813 136.288 203.575H131.565ZM131.565 196V203.575H136.288V196H131.565ZM199.989 193.639H133.926V198.361H199.989V193.639ZM221.832 171.795C221.832 183.859 212.053 193.639 199.989 193.639V198.361C214.661 198.361 226.555 186.467 226.555 171.795H221.832ZM199.989 149.952C212.053 149.952 221.832 159.731 221.832 171.795H226.555C226.555 157.123 214.661 145.229 199.989 145.229V149.952ZM95.0028 149.952H199.989V145.229H95.0028V149.952Z" fill="#202020" mask="url(#path-153-outside-1_2_2150)"/>
<path d="M90.4709 178.675H99.8411V176.332H96.8184C96.1572 176.332 95.2315 176.427 94.5326 176.502C97.0829 174.008 99.1988 171.288 99.1988 168.738C99.1988 166.131 97.423 164.449 94.797 164.449C92.889 164.449 91.6233 165.186 90.3386 166.565L91.8689 168.077C92.5867 167.283 93.3991 166.622 94.4381 166.622C95.7794 166.622 96.5162 167.491 96.5162 168.889C96.5162 171.043 94.287 173.668 90.4709 177.088V178.675ZM106.205 178.939C109.038 178.939 110.927 176.464 110.927 171.628C110.927 166.811 109.038 164.449 106.205 164.449C103.352 164.449 101.463 166.811 101.463 171.628C101.463 176.464 103.352 178.939 106.205 178.939ZM106.205 176.767C104.996 176.767 104.089 175.558 104.089 171.628C104.089 167.718 104.996 166.584 106.205 166.584C107.414 166.584 108.302 167.718 108.302 171.628C108.302 175.558 107.414 176.767 106.205 176.767ZM124.356 162.881V175.444H126.888V162.881H124.356ZM115.232 178.051V180.054H127.322V178.051H115.232ZM115.232 174.179V178.864H117.744V174.179H115.232ZM117.367 163.977C114.684 163.977 112.606 165.828 112.606 168.417C112.606 170.986 114.684 172.856 117.367 172.856C120.049 172.856 122.108 170.986 122.108 168.417C122.108 165.828 120.049 163.977 117.367 163.977ZM117.367 166.15C118.651 166.15 119.652 166.981 119.652 168.417C119.652 169.833 118.651 170.665 117.367 170.665C116.063 170.665 115.062 169.833 115.062 168.417C115.062 166.981 116.063 166.15 117.367 166.15ZM145.619 162.844V180.394H148.15V162.844H145.619ZM138.723 164.072C136.078 164.072 134.133 166.49 134.133 170.306C134.133 174.16 136.078 176.578 138.723 176.578C141.368 176.578 143.314 174.16 143.314 170.306C143.314 166.49 141.368 164.072 138.723 164.072ZM138.723 166.357C140.027 166.357 140.896 167.736 140.896 170.306C140.896 172.913 140.027 174.311 138.723 174.311C137.42 174.311 136.532 172.913 136.532 170.306C136.532 167.736 137.42 166.357 138.723 166.357ZM154.647 163.807V165.356C154.647 167.736 153.457 170.079 150.529 171.061L151.87 173.045C155.195 171.893 156.706 168.832 156.706 165.356V163.807H154.647ZM155.157 163.807V165.602C155.157 168.757 156.65 171.477 159.805 172.535L161.108 170.589C158.369 169.739 157.198 167.699 157.198 165.602V163.807H155.157ZM162.072 162.862V173.196H164.584V162.862H162.072ZM163.885 166.905V168.983H166.908V166.905H163.885ZM158.879 173.593C155.233 173.593 152.947 174.859 152.947 176.974C152.947 179.109 155.233 180.356 158.879 180.356C162.506 180.356 164.792 179.109 164.792 176.974C164.792 174.859 162.506 173.593 158.879 173.593ZM158.879 175.539C161.108 175.539 162.298 176.011 162.298 176.974C162.298 177.957 161.108 178.41 158.879 178.41C156.65 178.41 155.441 177.957 155.441 176.974C155.441 176.011 156.65 175.539 158.879 175.539ZM184.146 162.862V180.356H186.678V162.862H184.146ZM178.989 164.676V165.129C178.989 169.815 177.175 172.988 172.15 175.406L173.454 177.409C179.669 174.405 181.482 170.022 181.482 164.676H178.989ZM173.076 164.676V166.66H180.179V164.676H173.076ZM198.124 166.716V168.738H202.507V166.716H198.124ZM194.119 163.58C191.475 163.58 189.491 165.337 189.491 167.755C189.491 170.192 191.475 171.93 194.119 171.93C196.745 171.93 198.729 170.192 198.729 167.755C198.729 165.337 196.745 163.58 194.119 163.58ZM194.119 165.677C195.404 165.677 196.33 166.452 196.33 167.755C196.33 169.059 195.404 169.852 194.119 169.852C192.835 169.852 191.89 169.059 191.89 167.755C191.89 166.452 192.835 165.677 194.119 165.677ZM201.412 162.862V172.27H203.924V162.862H201.412ZM192.306 173.026V180.167H203.924V173.026H201.43V174.689H194.8V173.026H192.306ZM194.8 176.616H201.43V178.165H194.8V176.616Z" fill="#222222"/>
<mask id="path-156-outside-2_2_2150" maskUnits="userSpaceOnUse" x="290.045" y="346.904" width="264" height="54" fill="black">
<rect fill="white" x="290.045" y="346.904" width="264" height="54"/>
<path fill-rule="evenodd" clip-rule="evenodd" d="M526.84 397.904C540.208 397.904 551.045 387.067 551.045 373.699C551.045 360.331 540.208 349.494 526.84 349.494H326.276C316.445 349.494 307.983 355.355 304.194 363.773L293.617 365.542C292.423 365.741 292.268 367.394 293.403 367.814L302.213 371.068C302.119 371.932 302.071 372.81 302.071 373.699C302.071 387.067 312.908 397.904 326.276 397.904H526.84Z"/>
</mask>
<path fill-rule="evenodd" clip-rule="evenodd" d="M526.84 397.904C540.208 397.904 551.045 387.067 551.045 373.699C551.045 360.331 540.208 349.494 526.84 349.494H326.276C316.445 349.494 307.983 355.355 304.194 363.773L293.617 365.542C292.423 365.741 292.268 367.394 293.403 367.814L302.213 371.068C302.119 371.932 302.071 372.81 302.071 373.699C302.071 387.067 312.908 397.904 326.276 397.904H526.84Z" fill="white"/>
<path d="M304.194 363.773L304.583 366.102L305.829 365.894L306.347 364.742L304.194 363.773ZM293.617 365.542L293.228 363.212V363.213L293.617 365.542ZM293.403 367.814L294.221 365.599L293.403 367.814ZM302.213 371.068L304.561 371.321L304.759 369.49L303.031 368.852L302.213 371.068ZM548.683 373.699C548.683 385.763 538.904 395.542 526.84 395.542V400.265C541.512 400.265 553.406 388.371 553.406 373.699H548.683ZM526.84 351.855C538.904 351.855 548.683 361.635 548.683 373.699H553.406C553.406 359.027 541.512 347.133 526.84 347.133V351.855ZM326.276 351.855H526.84V347.133H326.276V351.855ZM306.347 364.742C309.769 357.14 317.408 351.855 326.276 351.855V347.133C315.483 347.133 306.198 353.569 302.04 362.804L306.347 364.742ZM294.007 367.871L304.583 366.102L303.804 361.444L293.228 363.212L294.007 367.871ZM294.221 365.599C295.357 366.018 295.201 367.671 294.007 367.871L293.228 363.213C289.646 363.812 289.178 368.771 292.585 370.029L294.221 365.599ZM303.031 368.852L294.221 365.599L292.585 370.029L301.395 373.283L303.031 368.852ZM304.433 373.699C304.433 372.895 304.476 372.101 304.561 371.321L299.865 370.814C299.763 371.762 299.71 372.725 299.71 373.699H304.433ZM326.276 395.542C314.212 395.542 304.433 385.763 304.433 373.699H299.71C299.71 388.371 311.604 400.265 326.276 400.265V395.542ZM526.84 395.542H326.276V400.265H526.84V395.542Z" fill="#202020" mask="url(#path-156-outside-2_2_2150)"/>
<path d="M322.781 375.24V377.243H338.632V375.24H322.781ZM329.394 376.525V382.948H331.887V376.525H329.394ZM324.614 366.305V373.37H336.742V366.305H324.614ZM334.268 368.288V371.386H327.089V368.288H334.268ZM343.995 375.656V379.774H346.451V375.656H343.995ZM349.53 375.637V379.774H351.986V375.637H349.53ZM339.99 378.981V381.021H355.821V378.981H339.99ZM341.766 366.588V368.572H351.552V370.423H341.804V375.354H344.297V372.388H354.046V366.588H341.766ZM341.804 374.296V376.317H354.442V374.296H341.804ZM368.204 369.006V371.027H370.982V369.006H368.204ZM373.777 365.454V377.337H376.158V365.454H373.777ZM370.283 365.794V375.694H372.644V365.794H370.283ZM369.017 376.449V376.827C369.017 378.603 367.241 380.473 363.444 380.945L364.369 382.891C368.733 382.287 371.17 379.85 371.17 376.827V376.449H369.017ZM369.395 376.449V376.827C369.395 379.85 371.832 382.287 376.177 382.891L377.102 380.945C373.324 380.473 371.529 378.603 371.529 376.827V376.449H369.395ZM364.332 366.531V368.534C364.332 370.517 363.387 372.652 361.007 373.729L362.329 375.637C365.125 374.447 366.296 371.5 366.296 368.534V366.531H364.332ZM364.842 366.531V368.534C364.842 371.481 365.843 374.201 368.45 375.391L369.791 373.483C367.619 372.444 366.769 370.517 366.769 368.534V366.531H364.842ZM387.283 369.308V371.33H391.666V369.308H387.283ZM383.278 366.172C380.634 366.172 378.65 367.929 378.65 370.347C378.65 372.784 380.634 374.522 383.278 374.522C385.904 374.522 387.888 372.784 387.888 370.347C387.888 367.929 385.904 366.172 383.278 366.172ZM383.278 368.269C384.563 368.269 385.489 369.044 385.489 370.347C385.489 371.651 384.563 372.444 383.278 372.444C381.994 372.444 381.049 371.651 381.049 370.347C381.049 369.044 381.994 368.269 383.278 368.269ZM390.571 365.454V374.862H393.083V365.454H390.571ZM381.465 375.618V382.759H393.083V375.618H390.59V377.281H383.959V375.618H381.465ZM383.959 379.207H390.59V380.757H383.959V379.207ZM403.936 368.213V370.177C403.936 373.143 402.519 376.374 399.591 377.677L401.008 379.661C404.295 378.168 405.939 374.22 405.939 370.177V368.213H403.936ZM404.503 368.213V370.177C404.503 374.069 406.128 377.791 409.452 379.226L410.813 377.243C407.884 376.034 406.486 373.011 406.486 370.177V368.213H404.503ZM400.29 367.136V369.195H410.095V367.136H400.29ZM411.719 365.454V382.948H414.251V365.454H411.719ZM421.466 374.428V378.263H423.979V374.428H421.466ZM429.136 365.454V378.697H431.649V365.454H429.136ZM419.048 380.643V382.646H432.026V380.643H419.048ZM419.048 377.451V381.172H421.56V377.451H419.048ZM417.159 375.184C420.314 375.184 424.413 375.089 428.135 374.466L427.984 372.671C424.319 373.143 420.049 373.181 416.856 373.181L417.159 375.184ZM425.83 375.618V377.337H429.684V375.618H425.83ZM422.486 366.059C419.917 366.059 418.122 367.325 418.122 369.176C418.122 371.046 419.917 372.293 422.486 372.293C425.037 372.293 426.831 371.046 426.831 369.176C426.831 367.325 425.037 366.059 422.486 366.059ZM422.486 367.891C423.639 367.891 424.451 368.326 424.451 369.176C424.451 370.026 423.639 370.461 422.486 370.461C421.315 370.461 420.503 370.026 420.503 369.176C420.503 368.326 421.315 367.891 422.486 367.891ZM450.209 365.473V378.225H452.741V365.473H450.209ZM441.085 380.643V382.646H453.175V380.643H441.085ZM441.085 376.997V381.682H443.597V376.997H441.085ZM442.294 366.418V368.118C442.294 370.442 441.066 372.879 438.138 373.88L439.403 375.883C442.804 374.692 444.372 371.537 444.372 368.118V366.418H442.294ZM442.804 366.418V368.118C442.804 371.5 444.334 374.466 447.64 375.58L448.925 373.578C446.053 372.652 444.863 370.404 444.863 368.118V366.418H442.804ZM459.313 368.515V369.157C459.313 371.141 458.086 373.143 455.271 373.937L456.442 375.901C459.786 374.938 461.335 372.199 461.335 369.157V368.515H459.313ZM459.786 368.515V369.157C459.786 372.029 461.392 374.579 464.754 375.467L465.888 373.521C463.073 372.784 461.826 370.952 461.826 369.157V368.515H459.786ZM455.875 367.268V369.233H465.264V367.268H455.875ZM459.313 365.398V368.043H461.826V365.398H459.313ZM464.773 370.121V372.142H468.117V370.121H464.773ZM467.512 365.454V376.015H470.025V365.454H467.512ZM464.093 376.317C460.39 376.317 458.104 377.526 458.104 379.623C458.104 381.72 460.39 382.948 464.093 382.948C467.796 382.948 470.082 381.72 470.082 379.623C470.082 377.526 467.796 376.317 464.093 376.317ZM464.093 378.225C466.398 378.225 467.588 378.679 467.588 379.623C467.588 380.568 466.398 381.04 464.093 381.04C461.807 381.04 460.617 380.568 460.617 379.623C460.617 378.679 461.807 378.225 464.093 378.225ZM487.887 365.454V382.948H490.38V365.454H487.887ZM489.814 372.274V374.371H492.912V372.274H489.814ZM476.59 368.043V370.045H486.772V368.043H476.59ZM481.709 371.027C479.159 371.027 477.27 372.765 477.27 375.202C477.27 377.639 479.159 379.377 481.709 379.377C484.26 379.377 486.149 377.639 486.149 375.202C486.149 372.765 484.26 371.027 481.709 371.027ZM481.709 373.068C482.899 373.068 483.749 373.861 483.749 375.202C483.749 376.544 482.899 377.337 481.709 377.337C480.519 377.337 479.669 376.544 479.669 375.202C479.669 373.861 480.519 373.068 481.709 373.068ZM480.443 365.738V368.798H482.956V365.738H480.443ZM500.75 371.33V373.37H503.641V371.33H500.75ZM497.01 366.966V369.913C497.01 372.879 496.103 375.996 493.534 377.583L495.045 379.472C497.841 377.753 498.937 373.88 498.937 369.913V366.966H497.01ZM497.558 366.966V369.799C497.558 373.578 498.427 377.356 501.204 379.075L502.564 377.111C500.184 375.561 499.447 372.652 499.447 369.799V366.966H497.558ZM506.493 365.454V382.948H508.893V365.454H506.493ZM502.942 365.719V382.155H505.284V365.719H502.942ZM514.54 374.333V379.245H517.033V374.333H514.54ZM520.887 374.333V379.245H523.4V374.333H520.887ZM511.064 378.886V380.927H526.895V378.886H511.064ZM518.96 366.305C515.182 366.305 512.424 368.156 512.424 371.009C512.424 373.861 515.182 375.694 518.96 375.694C522.72 375.694 525.497 373.861 525.497 371.009C525.497 368.156 522.72 366.305 518.96 366.305ZM518.96 368.269C521.397 368.269 523.022 369.271 523.022 371.009C523.022 372.728 521.397 373.748 518.96 373.748C516.523 373.748 514.899 372.728 514.899 371.009C514.899 369.271 516.523 368.269 518.96 368.269ZM530.067 376.506H531.881L532.277 369.535L532.353 366.909H529.576L529.652 369.535L530.067 376.506ZM530.955 381.531C531.956 381.531 532.693 380.757 532.693 379.718C532.693 378.679 531.956 377.923 530.955 377.923C529.973 377.923 529.236 378.679 529.236 379.718C529.236 380.757 529.973 381.531 530.955 381.531Z" fill="#222222"/>
<defs>
<filter id="filter0_d_2_2150" x="451.927" y="0" width="186.438" height="186.554" filterUnits="userSpaceOnUse" color-interpolation-filters="sRGB">
<feFlood flood-opacity="0" result="BackgroundImageFix"/>
<feColorMatrix in="SourceAlpha" type="matrix" values="0 0 0 0 0 0 0 0 0 0 0 0 0 0 0 0 0 0 127 0" result="hardAlpha"/>
<feOffset dx="4.72289" dy="4.72289"/>
<feComposite in2="hardAlpha" operator="out"/>
<feColorMatrix type="matrix" values="0 0 0 0 0 0 0 0 0 0 0 0 0 0 0 0 0 0 0.05 0"/>
<feBlend mode="normal" in2="BackgroundImageFix" result="effect1_dropShadow_2_2150"/>
<feBlend mode="normal" in="SourceGraphic" in2="effect1_dropShadow_2_2150" result="shape"/>
</filter>
<filter id="filter1_d_2_2150" x="552.485" y="165.562" width="155.238" height="155.334" filterUnits="userSpaceOnUse" color-interpolation-filters="sRGB">
<feFlood flood-opacity="0" result="BackgroundImageFix"/>
<feColorMatrix in="SourceAlpha" type="matrix" values="0 0 0 0 0 0 0 0 0 0 0 0 0 0 0 0 0 0 127 0" result="hardAlpha"/>
<feOffset dx="4.72289" dy="4.72289"/>
<feComposite in2="hardAlpha" operator="out"/>
<feColorMatrix type="matrix" values="0 0 0 0 0 0 0 0 0 0 0 0 0 0 0 0 0 0 0.04 0"/>
<feBlend mode="normal" in2="BackgroundImageFix" result="effect1_dropShadow_2_2150"/>
<feBlend mode="normal" in="SourceGraphic" in2="effect1_dropShadow_2_2150" result="shape"/>
</filter>
</defs>
</svg>
