<svg xmlns="http://www.w3.org/2000/svg" width="300" height="250" viewBox="0 0 300 250">
    <g fill="none" fill-rule="evenodd">
        <path fill="#00C73C" d="M51.699 99.345L73.889 160.312 86.405 140.952 108.437 147.737 86.247 86.771z" transform="translate(92 48)"/>
        <path stroke="#000" stroke-linecap="round" stroke-linejoin="round" stroke-width="3.5" d="M51.699 99.345L73.889 160.312 86.405 140.952 108.437 147.737 86.247 86.771z" transform="translate(92 48)"/>
        <path fill="#00C73C" d="M61.357 99.345L39.167 160.312 26.652 140.952 4.62 147.737 26.81 86.771z" transform="translate(92 48)"/>
        <g>
            <path stroke="#000" stroke-linecap="round" stroke-linejoin="round" stroke-width="3.5" d="M61.357 99.284L39.167 160.25 26.652 140.891 4.62 147.676 26.81 86.71z" transform="translate(92 48) translate(0 .061)"/>
            <path fill="#FFF" d="M112.549 56.559c0 30.939-25.082 56.02-56.02 56.02-30.94 0-56.021-25.081-56.021-56.02 0-30.94 25.081-56.02 56.02-56.02 30.94-.001 56.02 25.08 56.02 56.02" transform="translate(92 48) translate(0 .061)"/>
            <path stroke="#000" stroke-linecap="round" stroke-linejoin="round" stroke-width="3.5" d="M112.549 56.559c0 30.939-25.082 56.02-56.02 56.02-30.94 0-56.021-25.081-56.021-56.02 0-30.94 25.081-56.02 56.02-56.02 30.94-.001 56.02 25.08 56.02 56.02z" transform="translate(92 48) translate(0 .061)"/>
            <path fill="#000" d="M56.528 12.41c-24.383 0-44.15 19.766-44.15 44.149 0 24.383 19.767 44.15 44.15 44.15 24.384 0 44.15-19.767 44.15-44.15s-19.766-44.15-44.15-44.15m0 3.5c22.415 0 40.65 18.235 40.65 40.65 0 22.414-18.235 40.65-40.65 40.65-22.414 0-40.65-18.236-40.65-40.65 0-22.415 18.236-40.65 40.65-40.65" transform="translate(92 48) translate(0 .061)"/>
            <path fill="#000" d="M71.592 79.311H41.464v-6.91h10.147V45.004H41.464V38.66c4.022-.042 6.864-.603 8.53-1.68 1.665-1.08 2.632-2.782 2.905-5.106h8.766V72.4h9.927v6.911z" transform="translate(92 48) translate(0 .061)"/>
        </g>
    </g>
</svg>
