<svg xmlns="http://www.w3.org/2000/svg" width="300" height="250" viewBox="0 0 300 250">
    <g fill="none" fill-rule="evenodd">
        <path fill="#FFF" d="M246.627 88.774c-8.13-6.219-21.248-10.625-23.793-11.446-.233-.58-.42-.922-1.077-1.66-.795-.895-2.207-2.527-3.02-3.436 0 0-1.57-1.517-2.531-.756h-20.272c-.962-.761-2.532.756-2.532.756-.813.91-2.225 2.541-3.02 3.435-.656.74-.844 1.08-1.076 1.661-2.545.82-15.664 5.227-23.794 11.446-7.645 5.849-11.227 19.317-11.227 29.587 0 0 15.812 4.988 51.785 4.988 35.972 0 51.784-4.988 51.784-4.988 0-10.27-3.582-23.738-11.227-29.587" transform="translate(21 45)"/>
        <path fill="#FFF" d="M205.991 80.137s-1.998 2.328-3.979 5.676c-.93 1.572-3.192 2.234-4.678.904-.006-.006-4.19-3.34-7.78-7.93l-.248-1.458c.232-.581.42-.923 1.076-1.661.795-.895 2.207-2.526 3.02-3.436 0 0 1.57-1.517 2.532-.755h20.271c.962-.762 2.532.755 2.532.755.813.91 2.225 2.541 3.02 3.436.656.738.844 1.08 1.076 1.66l-.404 1.458c-3.591 4.59-7.774 7.925-7.78 7.93-1.487 1.331-3.748.67-4.679-.903-1.98-3.348-3.979-5.676-3.979-5.676" transform="translate(21 45)"/>
        <path stroke="#000" stroke-linecap="round" stroke-linejoin="round" stroke-width="3.25" d="M257.854 117.22c0-10.27-3.582-22.597-11.227-28.446-8.13-6.219-21.248-10.625-23.794-11.445-.232-.581-.42-.923-1.076-1.662-.795-.894-2.207-2.525-3.02-3.435 0 0-1.57-1.517-2.531-.755M154.285 117.22c0-10.27 3.583-22.597 11.228-28.446 8.13-6.219 21.248-10.625 23.793-11.445.232-.581.42-.923 1.077-1.662.794-.894 2.206-2.525 3.02-3.435 0 0 1.57-1.517 2.53-.755" transform="translate(21 45)"/>
        <path fill="#000" d="M235.732 31.916c0 16.442-13.302 27.627-29.711 27.627s-29.71-11.184-29.71-27.627C176.31 15.473 189.611 0 206.02 0s29.71 15.473 29.71 31.916" transform="translate(21 45)"/>
        <path fill="#FFF" d="M191.071 42.466c-1.647.353-3.504.169-3.504.169-2.83-.09-5.459-1.398-6.798-4.072-1.001-2-1.24-4.72.148-6.604 1.1-1.493 3.954-2.611 6.713-1.083 0 0 2.495 1.334 2.888 2.433M220.97 42.466c1.648.353 3.504.169 3.504.169 2.83-.09 5.46-1.398 6.799-4.072 1-2 1.24-4.72-.149-6.604-1.1-1.493-3.954-2.611-6.712-1.083 0 0-2.496 1.334-2.888 2.433M195.732 56.594L195.732 73.538 205.991 80.137 216.31 73.538 216.31 56.594" transform="translate(21 45)"/>
        <path fill="#FFF" d="M206.02 5.008c3.85 0 8.027 1.505 10.91 3.929 2.912 2.447 4.976 5.495 6.074 9.02 1.133 3.638 1.496 7.999 1.466 11.808.014 6.058-.04 9.67-.725 15.2-.134 1.08-.37 2.148-.695 3.19-1.103 3.535-3.213 6.8-6.027 9.295-2.937 2.605-6.954 4.182-11.002 4.182-4.048 0-8.065-1.577-11.002-4.182-2.814-2.496-4.924-5.76-6.027-9.295-.325-1.042-.561-2.11-.695-3.19-.684-5.53-.74-9.142-.725-15.2-.03-3.81.333-8.17 1.466-11.807 1.098-3.526 3.162-6.574 6.074-9.021 2.883-2.424 7.06-3.929 10.909-3.929" transform="translate(21 45)"/>
        <path stroke="#000" stroke-linecap="round" stroke-linejoin="round" stroke-width="2.75" d="M201.66 48.946s1.114 1.51 4.36 1.51c3.249 0 4.361-1.51 4.361-1.51M206.512 43.808c-1.356-.04-2.363-.818-2.427-1.768-.105-1.545 1.27-1.826 1.824-2.933.321-.643.16-4.097.16-4.097" transform="translate(21 45)"/>
        <path fill="#000" d="M197.544 33.266c-.634 0-1.148.262-1.148.75v2.62c0 .487.514.75 1.148.75.634 0 1.148-.263 1.148-.75v-2.62c0-.488-.514-.75-1.148-.75M214.498 33.266c-.634 0-1.148.262-1.148.75v2.62c0 .487.514.75 1.148.75.634 0 1.148-.263 1.148-.75v-2.62c0-.488-.514-.75-1.148-.75" transform="translate(21 45)"/>
        <path stroke="#000" stroke-linecap="round" stroke-linejoin="round" stroke-width="3.25" d="M231.124 31.959c-1.092-1.482-3.914-2.593-6.654-1.112.03-3.808-.334-8.166-1.466-11.802-1.099-3.526-3.162-6.574-6.074-9.021-2.883-2.424-7.06-3.929-10.91-3.929-3.848 0-8.025 1.505-10.909 3.929-2.911 2.447-4.975 5.495-6.073 9.021-1.133 3.636-1.496 7.994-1.466 11.802-2.74-1.481-5.563-.37-6.655 1.112-1.387 1.884-1.149 4.604-.148 6.604 1.339 2.674 3.969 3.982 6.798 4.071 0 0 .175.018.463.032.076.714.164 1.472.267 2.299.133 1.08.37 2.148.695 3.19 1.103 3.535 3.213 6.799 6.027 9.294.23.205.47.401.713.592v15.496l10.26 6.6 10.318-6.6V58.041c.243-.191.482-.387.713-.592 2.814-2.495 4.923-5.759 6.026-9.294.325-1.042.562-2.11.695-3.19.103-.827.19-1.585.267-2.3.288-.013.463-.03.463-.03 2.83-.09 5.46-1.398 6.798-4.072 1.002-2 1.24-4.72-.148-6.604z" transform="translate(21 45)"/>
        <path fill="#000" d="M210.84 5.257S193.493 1.16 185.783 16.82c-5.03 10.218 2.662 15.697 2.662 15.697 6.92-3.928 10.348-15.574 10.348-15.574" transform="translate(21 45)"/>
        <path fill="#000" d="M198.793 16.944c2.752 6.132 7.567 10.227 13.67 13.112 6.18 2.923 14.319 3.863 20.301.017 0 0-4.578-24.335-21.925-24.816" transform="translate(21 45)"/>
        <path stroke="#000" stroke-linecap="round" stroke-linejoin="round" stroke-width="2.75" d="M212.117 45.564s1.386 2.772 2.08 4.852M199.925 45.564s-1.386 2.772-2.08 4.852" transform="translate(21 45)"/>
        <path fill="#FFF" d="M104.027 87.353c-4.535-5.14-26.697-13.337-28.29-13.922.01-.035.026-.071.033-.106.336-1.487-1.644-3.466-2.693-5.68 0 0-.582-1.632-3.495-1.515L57.275 76.776l-12-10.646c-2.913-.117-3.495 1.515-3.495 1.515-1.026 2.166-2.938 4.106-2.706 5.582l-.123.17s-23.679 8.624-28.383 13.956c0 0-10.16 8.76-10.443 29.975 0 0 6.053 6.311 56.702 7.093l.47.001c.158.002.312.002.47.002v-.003c51.434-1.095 56.703-7.093 56.703-7.093-.171-20.527-10.443-29.975-10.443-29.975" transform="translate(21 45)"/>
        <path fill="#FFF" d="M63.175 84.434l-5.532-6.369-5.534 6.369s1.221 3.593 1.887 5.036c0 0-2.224 24.222-3.035 34.816 2.034.055 4.153.1 6.363.135v.002l.444-.001h.444c2.127-.046 4.166-.101 6.13-.164-.599-10.101-3.054-34.788-3.054-34.788.666-1.443 1.888-5.036 1.888-5.036" transform="translate(21 45)"/>
        <path fill="#000" d="M69.378 7.352c2.935.493 5.756 4.135 5.756 4.135s4.454 5.71 2.882 19.008c0 0-.148 1.773-.463 2.857l-3.459 1.28M43.698 10.499l-4.297.202s-4.455 6.496-2.882 19.794c0 0-.053 6.107.262 6.107.314 0 6.813-.197 6.813-.197" transform="translate(21 45)"/>
        <path fill="#FFF" d="M44.334 53.257L44.334 68.832 57.428 76.912 70.273 68.501 70.273 52.906M42.498 41.929c-1.631.35-3.47.166-3.47.166-2.802-.088-5.407-1.384-6.733-4.032-.992-1.98-1.227-4.674.147-6.54 1.09-1.479 3.916-2.587 6.648-1.073 0 0 2.471 1.321 2.86 2.41M72.11 41.929c1.63.35 3.47.166 3.47.166 2.802-.088 5.406-1.384 6.732-4.032.992-1.98 1.228-4.674-.147-6.54-1.089-1.479-3.915-2.587-6.647-1.073 0 0-2.472 1.321-2.86 2.41" transform="translate(21 45)"/>
        <path fill="#FFF" d="M57.304 4.576s9.417-.095 14.78 7.655c3.74 5.406 4.051 13.011 3.714 19.328 0 0-.472 7.72-.81 11.787-.076.91-.214 2.032-.341 2.777-.872 5.079-3.453 9.331-7.817 11.764 0 0-3.809 2.82-9.526 2.82-5.718 0-9.526-2.82-9.526-2.82-4.364-2.433-6.945-6.685-7.817-11.764-.128-.745-.265-1.868-.341-2.777-.339-4.067-.81-11.787-.81-11.787-.338-6.317-.027-13.922 3.713-19.328 5.363-7.75 14.78-7.655 14.78-7.655" transform="translate(21 45)"/>
        <path stroke="#000" stroke-linecap="round" stroke-linejoin="round" stroke-width="3.25" d="M82.152 31.523c-1.041-1.414-3.672-2.483-6.29-1.25.222-6.04-.282-12.998-3.771-18.042-5.363-7.75-14.78-7.655-14.78-7.655-.001 0-9.418-.095-14.781 7.655-3.493 5.05-3.995 12.017-3.771 18.062-2.63-1.263-5.283-.191-6.33 1.23-1.374 1.866-1.138 4.56-.147 6.54 1.326 2.648 3.93 3.944 6.733 4.033 0 0 .196.019.514.033.034.43.066.84.098 1.217.075.91.213 2.032.34 2.778.61 3.555 2.062 6.703 4.373 9.108v13.6l13.095 8.08 12.845-8.41v-13.27c2.311-2.405 3.763-5.553 4.373-9.108.128-.746.265-1.869.341-2.778.032-.378.064-.787.097-1.219.297-.014.476-.031.476-.031 2.802-.09 5.407-1.385 6.732-4.033.992-1.98 1.228-4.674-.147-6.54z" transform="translate(21 45)"/>
        <path fill="#000" d="M49.118 32.765c-.789 0-1.319.376-1.319.934v2.532c0 .559.53.934 1.32.934.788 0 1.318-.375 1.318-.934V33.7c0-.558-.53-.934-1.319-.934M65.502 32.765c-.789 0-1.319.376-1.319.934v2.532c0 .559.53.934 1.32.934.788 0 1.318-.375 1.318-.934V33.7c0-.558-.53-.934-1.319-.934" transform="translate(21 45)"/>
        <path stroke="#000" stroke-linecap="round" stroke-width="2.75" d="M56.069 38.15s-.207 3.642.11 6.945M62.243 49.258s-1.584.939-4.933.939c-3.348 0-4.933-.94-4.933-.94" transform="translate(21 45)"/>
        <path fill="#000" d="M37.619 21.227l4.008-11.574 2.124 4.63s.157 9.547-.63 12.502c0 0-1.729 3.012-4.559 4.49 0 0-.865-.228-1.18-.154M76.767 20.193l-3.825-10.097-2.158 4.186s-.157 9.548.629 12.503c0 0 1.73 3.012 4.559 4.49 0 0 .332-.08 1.188-.154" transform="translate(21 45)"/>
        <path fill="#000" d="M77.891 24.365C79.16 15.164 74.326 9.09 72.213 7.2c-4.23-3.782-9.413-5.73-14.918-5.876-2.985-.079-5.86.755-8.817.886-2.451.109-5.277-.83-7.471.76-4.17 3.022-2.645 9.836.341 13.09 0 0 1.649 2.4 12.812 2.958 0 0 14.621.592 17.576-2.366" transform="translate(21 45)"/>
        <path stroke="#000" stroke-linecap="round" stroke-linejoin="round" stroke-width="3.25" d="M44.306 66.13c-2.102-.097-2.526 1.515-2.526 1.515-.757 1.395-2.368 3.973-2.706 5.582 0 0-23.801 8.794-28.506 14.126 0 0-9.816 8.416-10.443 29.975M70.289 66.13c2.101-.097 2.526 1.515 2.526 1.515.757 1.395 2.368 3.973 2.706 5.582 0 0 23.801 8.794 28.505 14.126 0 0 9.816 8.416 10.443 29.975" transform="translate(21 45)"/>
        <path fill="#FFF" d="M188.105 118.837c-5.322-6.03-32.327-15.65-34.195-16.336.01-.041.029-.084.038-.125.394-1.745-1.93-4.067-3.16-6.665 0 0-.684-1.914-4.101-1.778l-14.442 12.493-14.08-12.493c-3.418-.136-4.102 1.778-4.102 1.778-1.204 2.542-3.448 4.818-3.175 6.55l-.145.2s-28.784 10.12-34.305 16.376c0 0-11.921 7.28-12.253 32.173 0 0 8.101 7.406 67.534 8.324l.552.001.552.001v-.002c60.354-1.286 67.536-8.324 67.536-8.324-.201-24.086-12.254-32.173-12.254-32.173" transform="translate(21 45)"/>
        <path fill="#00C73C" d="M139.17 115.412l-6.493-7.473-6.493 7.473s1.433 4.216 2.215 5.91c0 0-2.612 25.422-3.563 37.853 2.386.065 4.873.118 7.467.158v.003l.52-.002.522.002v-.003c2.496-.053 4.889-.117 7.193-.19-.702-11.854-3.584-37.821-3.584-37.821.782-1.694 2.215-5.91 2.215-5.91" transform="translate(21 45)"/>
        <path stroke="#000" stroke-linecap="round" stroke-linejoin="round" stroke-width="3.25" d="M117.027 93.934c-2.466-.114-2.964 1.778-2.964 1.778-.888 1.637-2.778 4.661-3.175 6.55 0 0-28.93 10.32-34.45 16.575 0 0-11.518 6.876-12.253 32.173M147.516 93.934c2.466-.114 2.964 1.778 2.964 1.778.889 1.637 2.779 4.661 3.175 6.55 0 0 28.93 10.32 34.45 16.575 0 0 11.518 6.876 12.254 32.173" transform="translate(21 45)"/>
        <path fill="#FFF" d="M117.244 78.808L117.244 97.199 132.706 106.74 147.874 96.809 147.874 78.394M115.076 65.432c-1.926.412-4.097.197-4.097.197-3.31-.105-6.385-1.635-7.95-4.762-1.172-2.34-1.45-5.52.173-7.723 1.286-1.745 4.624-3.054 7.85-1.266 0 0 2.918 1.56 3.377 2.844M150.042 65.432c1.926.412 4.097.197 4.097.197 3.31-.105 6.384-1.635 7.95-4.762 1.171-2.34 1.45-5.52-.174-7.723-1.286-1.745-4.623-3.054-7.85-1.266 0 0-2.918 1.56-3.376 2.844" transform="translate(21 45)"/>
        <path fill="#FFF" d="M132.559 21.325s11.12-.112 17.453 9.04c4.417 6.383 4.783 15.363 4.385 22.822 0 0-.556 9.116-.957 13.918-.09 1.074-.251 2.4-.403 3.28-1.029 5.996-4.077 11.018-9.23 13.89 0 0-4.497 3.33-11.248 3.33-6.751 0-11.249-3.33-11.249-3.33-5.153-2.872-8.2-7.894-9.23-13.89-.15-.88-.313-2.206-.403-3.28-.4-4.802-.957-13.918-.957-13.918-.397-7.459-.03-16.439 4.386-22.823 6.333-9.151 17.453-9.04 17.453-9.04" transform="translate(21 45)"/>
        <path stroke="#000" stroke-linecap="round" stroke-linejoin="round" stroke-width="3.25" d="M161.9 53.144c-1.23-1.67-4.336-2.931-7.427-1.475.262-7.132-.333-15.349-4.454-21.304-6.332-9.152-17.452-9.04-17.452-9.04s-11.12-.112-17.453 9.04c-4.125 5.962-4.717 14.189-4.453 21.327-3.106-1.491-6.238-.226-7.474 1.452-1.623 2.204-1.345 5.384-.173 7.723 1.565 3.127 4.64 4.657 7.95 4.762 0 0 .231.023.607.039.039.509.077.992.115 1.437.09 1.074.251 2.4.402 3.28.72 4.198 2.435 7.916 5.164 10.755V97.2l15.462 9.54 15.167-9.931v-15.67c2.73-2.838 4.444-6.556 5.164-10.754.151-.88.314-2.206.403-3.28.037-.446.076-.93.115-1.439.35-.016.561-.037.561-.037 3.309-.105 6.384-1.635 7.95-4.762 1.171-2.339 1.45-5.52-.174-7.723z" transform="translate(21 45)"/>
        <path fill="#000" d="M122.893 54.783c-.828 0-1.385.374-1.385.931v2.99c0 .557.557.931 1.385.931.83 0 1.386-.374 1.386-.93v-2.99c0-.558-.557-.932-1.386-.932M142.24 54.783c-.829 0-1.386.374-1.386.931v2.99c0 .557.557.931 1.386.931.829 0 1.385-.374 1.385-.93v-2.99c0-.558-.556-.932-1.385-.932" transform="translate(21 45)"/>
        <path stroke="#000" stroke-linecap="round" stroke-width="2.75" d="M129.398 56.888c0 4.063-3.293 7.356-7.355 7.356s-7.356-3.293-7.356-7.356c0-4.062 3.294-7.355 7.356-7.355 4.062 0 7.355 3.293 7.355 7.355zM135.509 56.888c0 4.063 3.293 7.356 7.355 7.356s7.356-3.293 7.356-7.356c0-4.062-3.294-7.355-7.356-7.355-4.062 0-7.355 3.293-7.355 7.355z" transform="translate(21 45)"/>
        <path stroke="#000" stroke-linecap="round" stroke-width="2.75" d="M135.509 56.888s-1.471-.34-3.056-.34c-1.584 0-3.055.34-3.055.34" transform="translate(21 45)"/>
        <path stroke="#000" stroke-linecap="round" stroke-linejoin="round" stroke-width="2.75" d="M131.101 60.97s-.245 4.3.13 8.2" transform="translate(21 45)"/>
        <path stroke="#000" stroke-linecap="round" stroke-width="2.75" d="M139.633 73.484s-1.73 1.814-7.067 1.814c-5.335 0-7.067-1.814-7.067-1.814" transform="translate(21 45)"/>
        <path fill="#000" d="M161.05 31.183c-3.286-2.303-6.04-3.072-8.79-6.373-2.454-2.944-5.631-5.566-9.366-6.65-2.987-.866-7.714-.741-10.145 1.538-1.631-1.53-4.237-1.826-6.373-1.958-2.682-.166-5.472.374-7.882 1.565-2.18 1.076-3.685 2.861-5.118 4.771-1.926 2.568-4.625 4.69-8.101 6.693-3.821 2.203-7.398 4.129-8.107 11.386-.668 6.838 6.412 13.304 12.649 11.872 4.623-1.06 7.118-4.338 10.895-7.344 3.958-3.15 5.961-8.667 8.303-9.115.948-.18 1.643.107 2.683.69.656.37 1.446.37 2.102 0 1.04-.583 1.928-1.825 3.511-.242 1.651 1.65 2.018 2.66 4.127 5.41 2.938 3.832 9.642 9.038 14.243 10.188 6.942 1.735 11.81-4.158 12.235-9.804.576-7.628-2.927-9.867-6.866-12.627" transform="translate(21 45)"/>
    </g>
</svg>
